<?xml version="1.0" encoding="UTF-8"?>
<svg width="200px" height="152px" viewBox="0 0 200 152" version="1.1" xmlns="http://www.w3.org/2000/svg" xmlns:xlink="http://www.w3.org/1999/xlink">
    <!-- Generator: Sketch 52.5 (67469) - http://www.bohemiancoding.com/sketch -->
    <title>illus-6sec</title>
    <desc>Created with Sketch.</desc>
    <defs>
        <linearGradient x1="50%" y1="15.0073317%" x2="50%" y2="97.2482415%" id="linearGradient-1">
            <stop stop-color="#D8E6F3" offset="0%"></stop>
            <stop stop-color="#B0C0D4" offset="100%"></stop>
        </linearGradient>
        <path d="M110.374593,12.9999999 L110.38833,124.097845 C110.389211,131.223766 116.166159,137 123.292081,137 L14.158105,137 C7.01238079,137 1.20625343,131.232629 1.15839652,124.087065 L0.350688766,3.48740877 C0.337875334,1.57422243 1.87843196,0.0128911234 3.7916183,7.76918954e-05 C3.79935179,2.58974436e-05 3.80708542,-5.50725102e-14 3.81481907,-5.5067062e-14 L97.3729852,0.00160756078 C104.552059,0.00160756078 110.372097,5.82092615 110.372985,13.0000001 Z" id="path-2"></path>
        <linearGradient x1="46.3242906%" y1="5.06024205%" x2="71.0808625%" y2="81.8260951%" id="linearGradient-4">
            <stop stop-color="#D0DCE9" offset="0%"></stop>
            <stop stop-color="#788698" offset="100%"></stop>
        </linearGradient>
        <path d="M39,79 C45.0062858,77.7347925 54,77.5970386 55,72.6603284 C57.1143906,62.2221951 50.2712025,49.0291065 49.8948605,46 C48.6316202,35.832413 46.1610337,27.733632 42.483101,21.703657 C40.4663257,18.2376389 38.305292,16.3364199 36,16 C32.542062,15.4953701 33.9755535,18.4298531 33.206503,17.0789653 C31.6133407,14.2804708 30.3683994,13 27.4083166,12.9191498 C22.3342021,12.7805579 25.9495573,18.3305617 25.0656736,16.3979853 C23.5097439,12.9960068 22,12.3414997 19.4403391,12.3414997 C15.9183753,12.3414997 15.9183753,16.7128755 19.4403391,25.4556272 C13.7393613,8.71329358 10.4446931,0.442529884 9.5563343,0.643336144 C5.55511704,1.54777871 4.36967227,4.44173504 6,9.32520512 L16,38.0489382 C10.6666667,33.3496461 6.13150848,32.0184697 2.39452543,34.055409 C-1.34245761,36.0923483 -0.673966091,37.7285901 4.4,38.9641345 C12.8,48.7262861 18.6666667,54.404908 22,56 C27,58.392638 31.0320225,80.6784324 39,79 Z" id="path-5"></path>
        <path d="M24.8016686,43 C36.5976028,43 44.726661,33.3741221 42.9584282,21.5 C41.1901955,9.62587788 30.1942656,0 18.3983314,0 C6.6023972,0 -1.52666097,9.62587788 0.241571778,21.5 C2.00980453,33.3741221 13.0057344,43 24.8016686,43 Z" id="path-7"></path>
    </defs>
    <g id="Article-Page" stroke="none" stroke-width="1" fill="none" fill-rule="evenodd">
        <g id="Article-page-V3" transform="translate(-1031.000000, -1782.000000)">
            <g id="Sidebar" transform="translate(971.000000, 968.000000)">
                <g id="6-Sec-Challenge" transform="translate(0.000000, 702.000000)">
                    <g id="illus-6sec" transform="translate(60.000000, 112.000000)">
                        <path d="M32.6457745,116 C32.7985602,107.804861 33.3140346,101.705421 38,94 C39.3333333,91.8075181 43.3333333,86.9361406 50,79.3858677 L50,149.983292 L33.5321062,149 C32.7050681,139.666667 32.4096242,128.666667 32.6457745,116 Z" id="Path-12" fill="#E08145" fill-rule="nonzero"></path>
                        <g id="resume" transform="translate(27.000000, 13.000000)">
                            <path d="M110.556334,136.983292 L0.845774968,135.985643 L0.845774968,135.985643 C-0.961601684,132.205699 0.637479851,127.676281 4.41742354,125.868904 C5.43598008,125.381882 6.55039699,125.128339 7.67939888,125.126766 L98.6577826,125.000012 C105.220258,124.990869 110.547608,130.303394 110.556751,136.86587 C110.556805,136.905011 110.556667,136.944152 110.556334,136.983292 Z" id="Rectangle" fill="#727C8A" fill-rule="nonzero" transform="translate(55.329102, 130.991646) scale(-1, -1) translate(-55.329102, -130.991646) "></path>
                            <g transform="translate(71.026866, 68.500000) scale(-1, 1) translate(-71.026866, -68.500000) translate(9.026866, 0.000000)">
                                <mask id="mask-3" fill="white">
                                    <use xlink:href="#path-2"></use>
                                </mask>
                                <use id="Mask" fill="url(#linearGradient-1)" fill-rule="nonzero" xlink:href="#path-2"></use>
                                <g id="Group-22" mask="url(#mask-3)" fill-rule="nonzero">
                                    <g transform="translate(13.002985, 13.013193)" id="Rectangle">
                                        <path d="M0.3464208,0 L54.9162658,5.55111512e-17 C55.1075887,-3.88799884e-15 55.2626866,0.155097875 55.2626866,0.3464208 L55.2626866,5.79869793 C55.2626866,5.99002086 55.1075887,6.14511873 54.9162658,6.14511873 L0.3464208,6.14511873 C0.155097875,6.14511873 7.45075267e-16,5.99002086 7.21644966e-16,5.79869793 L0,0.3464208 C-2.34303008e-17,0.155097875 0.155097875,2.57190056e-16 0.3464208,2.22044605e-16 Z" fill="#FFFFFF"></path>
                                        <path d="M23.4628387,9.03693931 L54.9162658,9.03693931 C55.1075887,9.03693931 55.2626866,9.19203719 55.2626866,9.38336011 L55.2626866,11.5823391 C55.2626866,11.773662 55.1075887,11.9287599 54.9162658,11.9287599 L23.4628387,11.9287599 C23.2715158,11.9287599 23.1164179,11.773662 23.1164179,11.5823391 L23.1164179,9.38336011 C23.1164179,9.19203719 23.2715158,9.03693931 23.4628387,9.03693931 Z" fill="#FFFFFF"></path>
                                        <rect fill="#FFFFFF" x="62.8477612" y="0" width="25.6447761" height="29.6411609" rx="0.36"></rect>
                                        <path d="M0.36,43.9868074 L55.64,43.9868074 C55.8388225,43.9868074 56,44.1479849 56,44.3468074 L56,60.6268074 C56,60.8256299 55.8388225,60.9868074 55.64,60.9868074 L0.36,60.9868074 C0.16117749,60.9868074 1.41172571e-15,60.8256299 -5.55111512e-16,60.6268074 L5.55111512e-17,44.3468074 C3.11624162e-17,44.1479849 0.16117749,43.9868074 0.36,43.9868074 Z" fill="#E7EEF7"></path>
                                        <path d="M0.36,85.4221636 L55.64,85.4221636 C55.8388225,85.4221636 56,85.5833411 56,85.7821636 L56,96.0621636 C56,96.2609861 55.8388225,96.4221636 55.64,96.4221636 L0.36,96.4221636 C0.16117749,96.4221636 -5.30762777e-16,96.2609861 -5.55111512e-16,96.0621636 L0,85.7821636 C-2.4348735e-17,85.5833411 0.16117749,85.4221636 0.36,85.4221636 Z" fill="#E7EEF7"></path>
                                        <path d="M26.3523909,17.7124011 L55.2774598,17.7124011 C55.4687827,17.7124011 55.6238806,17.8674989 55.6238806,18.0588219 L55.6238806,18.0889354 C55.6238806,18.2802583 55.4687827,18.4353562 55.2774598,18.4353562 L26.3523909,18.4353562 C26.161068,18.4353562 26.0059701,18.2802583 26.0059701,18.0889354 L26.0059701,18.0588219 C26.0059701,17.8674989 26.161068,17.7124011 26.3523909,17.7124011 Z" fill="#FFFFFF"></path>
                                        <path d="M13.5238806,23.9868074 L55.5238806,23.9868074 C55.800023,23.9868074 56.0238806,24.210665 56.0238806,24.4868074 L56.0238806,24.4868074 C56.0238806,24.7629498 55.800023,24.9868074 55.5238806,24.9868074 L13.5238806,24.9868074 C13.2477382,24.9868074 13.0238806,24.7629498 13.0238806,24.4868074 L13.0238806,24.4868074 C13.0238806,24.210665 13.2477382,23.9868074 13.5238806,23.9868074 Z" fill="#FFFFFF"></path>
                                        <path d="M3.5238806,79.9868074 L55.5238806,79.9868074 C55.800023,79.9868074 56.0238806,80.210665 56.0238806,80.4868074 L56.0238806,80.4868074 C56.0238806,80.7629498 55.800023,80.9868074 55.5238806,80.9868074 L3.5238806,80.9868074 C3.24773822,80.9868074 3.0238806,80.7629498 3.0238806,80.4868074 L3.0238806,80.4868074 C3.0238806,80.210665 3.24773822,79.9868074 3.5238806,79.9868074 Z" fill="#FFFFFF"></path>
                                        <path d="M26.5,32.1081794 L55.5,32.1081794 C55.7761424,32.1081794 56,32.332037 56,32.6081794 L56,32.6081794 C56,32.8843218 55.7761424,33.1081794 55.5,33.1081794 L26.5,33.1081794 C26.2238576,33.1081794 26,32.8843218 26,32.6081794 L26,32.6081794 C26,32.332037 26.2238576,32.1081794 26.5,32.1081794 Z" fill="#FFFFFF"></path>
                                        <path d="M26.5,68.5514512 L55.5,68.5514512 C55.7761424,68.5514512 56,68.7753088 56,69.0514512 L56,69.0514512 C56,69.3275936 55.7761424,69.5514512 55.5,69.5514512 L26.5,69.5514512 C26.2238576,69.5514512 26,69.3275936 26,69.0514512 L26,69.0514512 C26,68.7753088 26.2238576,68.5514512 26.5,68.5514512 Z" fill="#FFFFFF"></path>
                                        <path d="M17.5238806,73.9868074 L55.5238806,73.9868074 C55.800023,73.9868074 56.0238806,74.210665 56.0238806,74.4868074 L56.0238806,74.4868074 C56.0238806,74.7629498 55.800023,74.9868074 55.5238806,74.9868074 L17.5238806,74.9868074 C17.2477382,74.9868074 17.0238806,74.7629498 17.0238806,74.4868074 L17.0238806,74.4868074 C17.0238806,74.210665 17.2477382,73.9868074 17.5238806,73.9868074 Z" fill="#FFFFFF"></path>
                                        <path d="M3.5,111 L55.5,111 C55.7761424,111 56,111.223858 56,111.5 L56,111.5 C56,111.776142 55.7761424,112 55.5,112 L3.5,112 C3.22385763,112 3,111.776142 3,111.5 L3,111.5 C3,111.223858 3.22385763,111 3.5,111 Z" fill="#FFFFFF"></path>
                                        <path d="M17.5,105 L55.5,105 C55.7761424,105 56,105.223858 56,105.5 L56,105.5 C56,105.776142 55.7761424,106 55.5,106 L17.5,106 C17.2238576,106 17,105.776142 17,105.5 L17,105.5 C17,105.223858 17.2238576,105 17.5,105 Z" fill="#FFFFFF"></path>
                                        <path d="M2.5,38.0474934 L55.5,38.0474934 C55.7761424,38.0474934 56,38.271351 56,38.5474934 L56,38.5474934 C56,38.8236358 55.7761424,39.0474934 55.5,39.0474934 L2.5,39.0474934 C2.22385763,39.0474934 2,38.8236358 2,38.5474934 L2,38.5474934 C2,38.271351 2.22385763,38.0474934 2.5,38.0474934 Z" fill="#FFFFFF"></path>
                                        <path d="M70.3464208,40 L88.6535792,40 C88.8449021,40 89,40.1550979 89,40.3464208 L89,40.6535792 C89,40.8449021 88.8449021,41 88.6535792,41 L70.3464208,41 C70.1550979,41 70,40.8449021 70,40.6535792 L70,40.3464208 C70,40.1550979 70.1550979,40 70.3464208,40 Z" fill="#FFFFFF"></path>
                                        <path d="M63.3464208,46 L88.6535792,46 C88.8449021,46 89,46.1550979 89,46.3464208 L89,46.6535792 C89,46.8449021 88.8449021,47 88.6535792,47 L63.3464208,47 C63.1550979,47 63,46.8449021 63,46.6535792 L63,46.3464208 C63,46.1550979 63.1550979,46 63.3464208,46 Z" fill="#FFFFFF"></path>
                                        <rect fill="#E7EEF7" x="62.8477612" y="51.701847" width="25.6447761" height="61.0791557"></rect>
                                    </g>
                                </g>
                                <path d="M-13.0029851,139.421323 C21.3692279,103.907315 52.3042195,89.6295306 79.8019899,96.5879712 C107.29976,103.546412 133.186086,81.9537635 157.460967,31.8100264 L164.704478,157.242744 L-13.0029851,150.913293 L-13.0029851,139.421323 Z" id="Path-26" fill="url(#linearGradient-4)" fill-rule="nonzero" opacity="0.333054315" mask="url(#mask-3)" transform="translate(75.850746, 94.526385) scale(-1, 1) translate(-75.850746, -94.526385) "></path>
                                <polygon id="Path-29" fill-opacity="0.4" fill="#F6FDFF" fill-rule="nonzero" mask="url(#mask-3)" transform="translate(65.040628, 31.680386) scale(-1, 1) translate(-65.040628, -31.680386) " points="13.0029851 63.8509143 117.078271 0.979998899 16.5359328 -0.490141748"></polygon>
                                <circle id="Oval" fill="#B5C4D4" fill-rule="nonzero" mask="url(#mask-3)" cx="88.5" cy="22.5" r="5.5"></circle>
                                <path d="M87,28 L90,28 C94.418278,28 98,31.581722 98,36 L98,39 L79,39 L79,36 C79,31.581722 82.581722,28 87,28 Z" id="Rectangle" fill="#B5C4D4" fill-rule="nonzero" mask="url(#mask-3)"></path>
                            </g>
                            <path d="M35,-2.27373675e-13 L134.825598,-2.18491891e-13 C141.133884,-2.30856473e-13 146.247761,5.11387683 146.247761,11.4221636 L47.8120924,11.2795059 L47.8120924,11.2795059 C47.8120924,5.05000679 42.7620856,-1.18675227e-13 36.5325865,-2.06057393e-13 L35,-2.27373675e-13 Z" id="Rectangle" fill="#B8C7DA" fill-rule="nonzero"></path>
                        </g>
                        <g id="Group-12" transform="translate(127.000000, 61.000000)">
                            <g id="Path-10" transform="translate(1.000000, 0.000000)">
                                <mask id="mask-6" fill="white">
                                    <use xlink:href="#path-5"></use>
                                </mask>
                                <use id="Mask" fill="#E08145" fill-rule="nonzero" xlink:href="#path-5"></use>
                                <ellipse id="Oval" fill="#FF9048" fill-rule="nonzero" mask="url(#mask-6)" cx="14" cy="25" rx="31" ry="39"></ellipse>
                            </g>
                            <rect id="Rectangle" fill="#4F94C6" fill-rule="nonzero" transform="translate(42.820776, 63.185406) rotate(-23.000000) translate(-42.820776, -63.185406) " x="26.8207759" y="60.185406" width="32" height="6" rx="3"></rect>
                            <circle id="Oval" stroke="#4F94C6" fill="#FFFFFF" fill-rule="nonzero" cx="42.5" cy="63.5" r="7.5"></circle>
                            <rect id="Rectangle" fill="#D8D8D8" fill-rule="nonzero" transform="translate(45.917106, 72.514229) rotate(-22.000000) translate(-45.917106, -72.514229) " x="28.4171061" y="64.0142288" width="35" height="17" rx="2"></rect>
                            <path d="M32.2366642,66.2252491 L67.2777503,66.2252491 C68.3794757,66.2252491 69.2737237,67.1162454 69.2777371,68.2179634 L69.3737416,94.5720756 C69.3777653,95.6766378 68.4856027,96.5753243 67.3810405,96.579348 C67.1218201,96.5802923 66.8648882,96.5308353 66.6245417,96.433729 L31.2815517,82.1542342 C30.514096,81.8441619 30.0169431,81.0933743 30.0310556,80.265767 L30.2369549,68.1911496 C30.2555609,67.1000327 31.1453886,66.2252491 32.2366642,66.2252491 Z" id="Rectangle" fill="#4D70B0" fill-rule="nonzero" transform="translate(49.702259, 81.402305) rotate(-22.000000) translate(-49.702259, -81.402305) "></path>
                            <circle id="Oval" fill="#FFFFFF" fill-rule="nonzero" cx="62" cy="77" r="2"></circle>
                            <path d="M10.2723484,7.50416931 L12.569458,6.84942435 C13.0462636,6.71351521 13.3515004,6.24876769 13.2868023,5.75720991 C12.8452108,2.40212027 11.9649509,1.01884956 10.6460224,1.60739778 C8.52673975,2.55308974 8.00262609,4.3251373 9.07368145,6.92354046 L9.07365648,6.92355075 C9.26746216,7.39372747 9.78327505,7.64357526 10.2723484,7.50416931 Z" id="Path-11" fill="#FFFFFF" fill-rule="nonzero" opacity="0.492908296" transform="translate(10.924276, 4.501565) rotate(-11.000000) translate(-10.924276, -4.501565) "></path>
                            <path d="M3.773699,39.2204124 L4.73441373,38.830863 C5.18641797,38.6475633 5.44025081,38.1649205 5.33514359,37.6886232 C4.83190582,35.4081825 4.06145514,34.4809207 3.02379154,34.906838 C2.02699846,35.3159796 1.83223679,36.5400878 2.43950653,38.5791627 L2.4395305,38.5791556 C2.59716368,39.1084522 3.15403035,39.409745 3.68332703,39.2521118 C3.71394001,39.2429948 3.74409858,39.2324162 3.773699,39.2204124 Z" id="Path-11" fill="#FFFFFF" fill-rule="nonzero" opacity="0.492908296" transform="translate(3.795771, 37.212433) rotate(-59.000000) translate(-3.795771, -37.212433) "></path>
                            <path d="M42.4962838,64.100253 C42.4626786,64.3743429 42.2132424,64.5692944 41.9391525,64.5356892 C41.6650625,64.5020841 41.4701111,64.2526479 41.5037162,63.9785579 L42.0037162,59.9004641 C42.0373214,59.6263742 42.2867576,59.4314227 42.5608475,59.4650279 C42.8349375,59.4986331 43.0298889,59.7480692 42.9962838,60.0221592 L42.4962838,64.100253 Z" id="Path-15" fill="#979797" fill-rule="nonzero"></path>
                        </g>
                        <path d="M45.7689198,102.541819 C48.763607,99.2581911 51.8406338,95.7066453 55,91.8871815 C58.179344,93.4454859 59.2170192,96.0678992 58.1130256,99.7544212 C57.4456131,101.983085 57,105 53,109.362144 C52.0040131,110.448304 51.4695822,112.660923 51.3967075,116 C39.6895633,115.750726 37.8136341,111.264666 45.7689198,102.541819 Z" id="Path-13" fill="#FF9048" fill-rule="nonzero"></path>
                        <path d="M54.4208811,97.3610414 L56.0797785,96.7026585 C56.5931013,96.4989404 56.8440855,95.9176639 56.6403673,95.4043411 C56.6284161,95.3742268 56.6150084,95.3447111 56.6001917,95.3158986 C55.2537859,92.6976819 53.9300727,91.6498756 52.6290519,92.1724797 C51.2854876,92.7121729 51.4804375,94.3137074 53.2139016,96.9770832 L53.2139291,96.9770653 C53.4735804,97.3760057 53.9784527,97.5366243 54.4208811,97.3610414 Z" id="Path-11" fill="#FFFFFF" fill-rule="nonzero" opacity="0.492908296" transform="translate(54.186522, 94.704776) rotate(55.000000) translate(-54.186522, -94.704776) "></path>
                        <g id="6second" transform="translate(0.000000, 109.000000)">
                            <path d="M8.96076555,31.3682118 C7.98832159,31.3682118 7.2,30.5851933 7.2,29.6192911 C7.2,28.6533888 7.98832159,27.8703704 8.96076555,27.8703704 L29.2095694,27.8703704 C30.1820133,27.8703704 30.9703349,28.6533888 30.9703349,29.6192911 C30.9703349,30.5851933 30.1820133,31.3682118 29.2095694,31.3682118 L8.96076555,31.3682118 Z" id="Path-6" fill="#FFD15C" fill-rule="nonzero" opacity="0.315801711"></path>
                            <path d="M4.08562073e-14,13.6933651 L4.08562073e-14,13.6933651 C4.07379184e-14,12.7274629 0.783018469,11.9444444 1.7489207,11.9444444 L9.18141372,11.9444444 C10.147316,11.9444444 10.9303344,12.7274629 10.9303344,13.6933651 L10.9303344,13.6933651 C10.9303344,14.6592674 10.147316,15.4422858 9.18141372,15.4422858 L1.7489207,15.4422858 C0.783018469,15.4422858 4.09744962e-14,14.6592674 4.08562073e-14,13.6933651 Z" id="Path-6" fill="#FFD15C" fill-rule="nonzero" opacity="0.315801711"></path>
                            <path d="M2.4,21.6563281 L2.4,21.6563281 C2.4,20.6904259 3.18301847,19.9074074 4.1489207,19.9074074 L17.1814137,19.9074074 C18.147316,19.9074074 18.9303344,20.6904259 18.9303344,21.6563281 L18.9303344,21.6563281 C18.9303344,22.6222303 18.147316,23.4052488 17.1814137,23.4052488 L4.1489207,23.4052488 C3.18301847,23.4052488 2.4,22.6222303 2.4,21.6563281 Z" id="Path-6" fill="#FFD15C" fill-rule="nonzero" opacity="0.315801711"></path>
                            <g id="Oval-4" transform="translate(38.400000, 21.500000) scale(-1, 1) translate(-38.400000, -21.500000) translate(16.800000, 0.000000)">
                                <mask id="mask-8" fill="white">
                                    <use xlink:href="#path-7"></use>
                                </mask>
                                <use id="Mask" fill="#EDB234" fill-rule="nonzero" xlink:href="#path-7"></use>
                                <ellipse fill="#F9C43E" fill-rule="nonzero" mask="url(#mask-8)" cx="13.8626866" cy="9.62686567" rx="17.7313433" ry="17.9701493"></ellipse>
                            </g>
                            <path d="M42.1488072,18.3767566 C42.3429754,17.5545324 42.275595,16.8828147 41.946664,16.3615833 C41.617733,15.8403519 41.0276243,15.5797401 40.1763203,15.5797401 C39.3250163,15.5797401 38.5802206,15.8146577 37.9419109,16.2845001 C37.3036012,16.7543425 36.8839012,17.4150485 36.6827984,18.2666379 C36.4816956,19.1182272 36.5841433,19.8009567 36.9901446,20.3148468 C37.3961459,20.828737 38.0172556,21.0856782 38.8534922,21.0856782 C39.6897289,21.0856782 40.4003241,20.8360781 40.9852991,20.3368706 C41.5702741,19.837663 41.9581062,19.1842982 42.1488072,18.3767566 Z M41.5032599,9.72142194 C40.4786816,9.72142194 39.6166441,10.1178455 38.9171213,10.9107046 C38.2175985,11.7035636 37.6540081,12.9735873 37.2263333,14.7208137 C37.7498408,14.1628759 38.3928064,13.7370876 39.1552492,13.4434361 C39.9176921,13.1497846 40.6755853,13.002961 41.4289517,13.002961 C42.9356844,13.002961 44.0469016,13.4654552 44.7626366,14.3904574 C45.4783716,15.3154597 45.6438021,16.5928245 45.2589329,18.2225904 C44.8740637,19.8523562 44.0833323,21.1590857 42.8867149,22.1428183 C41.6900976,23.1265508 40.2329731,23.6184097 38.5152978,23.6184097 C36.2853334,23.6184097 34.8607475,22.9356802 34.2414975,21.5702007 C33.6222475,20.2047212 33.6420148,18.127168 34.3007999,15.3374788 C35.5871644,9.89024347 38.2041273,7.16666667 42.1517671,7.16666667 C43.7338364,7.16666667 44.8638557,7.58144319 45.5418588,8.41100868 C46.2198619,9.24057416 46.4961034,10.2720096 46.3705917,11.5053459 L43.4324776,11.5053459 C43.4270488,10.3160573 42.7839827,9.72142194 41.5032599,9.72142194 Z M31.6008642,27.6071559 C31.3162591,27.6071559 31.0679781,27.6778488 30.8560136,27.8192365 C30.6440492,27.9606243 30.5062855,28.1659053 30.4427185,28.4350859 C30.3791516,28.7042664 30.4367022,28.9095475 30.6153721,29.0509353 C30.7940421,29.192323 31.0263418,29.2956433 31.3122781,29.3608992 C31.5982145,29.4261551 31.8818993,29.5009263 32.163341,29.5852152 C32.4447828,29.669504 32.6645619,29.8258439 32.8226849,30.0542395 C32.980808,30.2826351 33.0104281,30.6061907 32.9115461,31.024916 C32.8126641,31.4436413 32.5426937,31.818857 32.1016267,32.1505745 C31.6605597,32.4822919 31.1358972,32.6481481 30.5276236,32.6481481 C29.9193501,32.6481481 29.4582301,32.5094815 29.1442499,32.2321439 C28.8302698,31.9548064 28.7310693,31.5714338 28.8466457,31.0820146 L29.8678705,31.0820146 C29.8311201,31.3321622 29.8791151,31.5306459 30.011857,31.6774717 C30.1445988,31.8242974 30.3728006,31.8977092 30.6964691,31.8977092 C31.0201376,31.8977092 31.2947037,31.8161405 31.5201756,31.6530008 C31.7456475,31.4898611 31.8847071,31.2968153 31.9373586,31.0738577 C31.99001,30.8509001 31.973904,30.676887 31.8890401,30.5518132 C31.8041762,30.4267394 31.6784472,30.3329355 31.5118493,30.2703986 C31.3452514,30.2078617 31.1589145,30.1521231 30.952833,30.1031812 C30.7467514,30.0542393 30.5412041,29.9971412 30.3361849,29.9318854 C30.1311656,29.8666295 29.9501755,29.7823419 29.7932089,29.6790201 C29.6362424,29.5756982 29.5239971,29.4247962 29.4564696,29.2263096 C29.3889422,29.0278229 29.3892093,28.7844765 29.4572709,28.496263 C29.5741314,28.0014058 29.8509546,27.603079 30.2877489,27.3012705 C30.7245432,26.999462 31.2345133,26.84856 31.8176747,26.84856 C32.4008361,26.84856 32.8359802,26.9790698 33.1231203,27.2400934 C33.4102603,27.501117 33.5149302,27.8790516 33.4371331,28.3739088 L32.3824255,28.3739088 C32.4114708,28.1563892 32.3596233,27.9742192 32.2268814,27.8273935 C32.0941396,27.6805677 31.8854692,27.6071559 31.6008642,27.6071559 Z M38.2267734,26.9138156 L38.055336,27.6397837 L35.7952483,27.6397837 L35.3888069,29.3608992 L37.3977738,29.3608992 L37.2282627,30.0787104 L35.2192958,30.0787104 L34.7974443,31.8650814 L37.057532,31.8650814 L36.8860947,32.5910495 L33.6717476,32.5910495 L35.0124263,26.9138156 L38.2267734,26.9138156 Z M40.6999449,32.6399912 C39.8684517,32.6399912 39.2295284,32.3680957 38.7831559,31.8242967 C38.3367834,31.2804976 38.2128021,30.5885237 38.4112081,29.7483541 C38.6096141,28.9081845 39.0607358,28.2148511 39.7645867,27.668333 C40.4684376,27.121815 41.2360981,26.84856 42.0675913,26.84856 C42.6870259,26.84856 43.2030978,26.9967431 43.6158224,27.2931135 C44.028547,27.589484 44.2795161,28.0095625 44.3687371,28.5533616 L43.2219518,28.5533616 C43.0442834,27.9823726 42.5927239,27.6968823 41.86726,27.6968823 C41.2813084,27.6968823 40.7584849,27.8844902 40.2987736,28.2597116 C39.8390624,28.6349329 39.5363341,29.1311421 39.3905795,29.7483541 C39.2448249,30.365566 39.3131936,30.8617752 39.5956878,31.2369966 C39.878182,31.612218 40.3123984,31.7998258 40.89835,31.7998258 C41.6238139,31.7998258 42.2102103,31.5143356 42.6575569,30.9433466 L43.8043422,30.9433466 C43.4582849,31.4871457 43.0092338,31.9058647 42.4571755,32.1995162 C41.9051172,32.4931677 41.3193795,32.6399912 40.6999449,32.6399912 Z" id="6-SEC" fill="#FFFFFF"></path>
                        </g>
                        <g id="button" transform="translate(91.000000, 0.000000)" fill-rule="nonzero">
                            <rect id="Rectangle" fill="#AABBC8" opacity="0.347865513" x="0" y="4.8" width="86.2105263" height="43.2" rx="2.4"></rect>
                            <path d="M8.38947368,0 L47.8947368,0 L47.8947368,43.2 L8.38947368,43.2 C6.40124858,43.2 4.78947368,41.5882251 4.78947368,39.6 L4.78947368,3.6 C4.78947368,1.6117749 6.40124858,-1.41112581e-15 8.38947368,-1.77635684e-15 Z" id="Rectangle" fill="#4D70B0"></path>
                            <g id="ico-trash" transform="translate(15.565789, 10.800000)" fill="#FFFFFF">
                                <path d="M3.44829023,4.44 L5.17486593,21.96 L16.3777656,21.96 L18.1043413,4.44 L3.44829023,4.44 Z M2.38903291,2.4 L19.1635987,2.4 C19.7600662,2.4 20.2435987,2.88353247 20.2435987,3.48 C20.2435987,3.51537051 20.2418611,3.55071966 20.2383922,3.58591965 L18.3226027,23.0259197 C18.268128,23.5786877 17.803255,24 17.2478092,24 L4.30482238,24 C3.74937661,24 3.28450355,23.5786877 3.2300289,23.0259197 L1.31423943,3.58591965 C1.25574162,2.9923276 1.68952121,2.46370433 2.28311326,2.40520652 C2.31831325,2.4017376 2.3536624,2.4 2.38903291,2.4 Z" id="Rectangle"></path>
                                <path d="M0.114035088,4.12909091 C-0.449295357,4.12909091 -0.905964912,3.67242135 -0.905964912,3.10909091 C-0.905964912,2.54576046 -0.449295357,2.08909091 0.114035088,2.08909091 L21.6666667,2.08909091 C22.2299971,2.08909091 22.6866667,2.54576046 22.6866667,3.10909091 C22.6866667,3.67242135 22.2299971,4.12909091 21.6666667,4.12909091 L0.114035088,4.12909091 Z" id="Path-6"></path>
                                <path d="M10.1763158,6.54545276 C10.1763168,6.21408191 10.4449467,5.94545356 10.7763176,5.94545455 C11.1076884,5.94545553 11.3763168,6.21408548 11.3763158,6.54545633 L11.3762763,19.8000018 C11.3762753,20.1313726 11.1076453,20.400001 10.7762745,20.4 C10.4449036,20.399999 10.1762753,20.1313691 10.1762763,19.7999982 L10.1763158,6.54545276 Z" id="Path-7"></path>
                                <path d="M14.4546756,6.49597092 C14.4820046,6.16572894 14.7718732,5.9201695 15.1021152,5.94749855 C15.4323572,5.9748276 15.6779166,6.2646962 15.6505876,6.59493817 L14.5672542,19.6858473 C14.5399252,20.0160892 14.2500566,20.2616487 13.9198146,20.2343196 C13.5895726,20.2069906 13.3440132,19.917122 13.3713423,19.58688 L14.4546756,6.49597092 Z" id="Path-7"></path>
                                <path d="M7.27046506,6.49597092 C7.29779411,6.16572894 7.5876627,5.9201695 7.91790468,5.94749855 C8.24814666,5.9748276 8.4937061,6.2646962 8.46637705,6.59493817 L7.38304371,19.6858473 C7.35571466,20.0160892 7.06584607,20.2616487 6.73560409,20.2343196 C6.40536212,20.2069906 6.15980267,19.917122 6.18713173,19.58688 L7.27046506,6.49597092 Z" id="Path-7" transform="translate(7.326754, 13.090909) scale(-1, 1) translate(-7.326754, -13.090909) "></path>
                                <path d="M8.20421053,2.4 L6.16421053,2.4 C6.16421053,0.511186156 7.69539668,-1.02 9.58421053,-1.02 L11.9684211,-1.02 C13.8572349,-1.02 15.3884211,0.511186156 15.3884211,2.4 L13.3484211,2.4 C13.3484211,1.63784705 12.730574,1.02 11.9684211,1.02 L9.58421053,1.02 C8.82205757,1.02 8.20421053,1.63784705 8.20421053,2.4 Z" id="Path-8"></path>
                            </g>
                            <path d="M47.8947368,0 L87.4,0 C89.3882251,-3.65231026e-16 91,1.6117749 91,3.6 L91,39.6 C91,41.5882251 89.3882251,43.2 87.4,43.2 L47.8947368,43.2 L47.8947368,0 Z" id="Rectangle" fill="#3CC9D5"></path>
                            <path d="M79.8956543,11.201455 C80.2571591,10.6459905 81.0005096,10.488755 81.5559741,10.8502598 C82.1114387,11.2117646 82.2686741,11.9551152 81.9071693,12.5105797 L70.465477,30.0911319 C70.0783074,30.6860313 69.2621943,30.8167106 68.7086295,30.3724455 L59.270781,22.7980721 C58.753911,22.3832566 58.6711796,21.6279762 59.0859951,21.1111062 C59.5008107,20.5942362 60.2560911,20.5115047 60.7729611,20.9263203 L69.1770119,27.6710163 L79.8956543,11.201455 Z" id="Path-14" fill="#FFFFFF" transform="translate(70.461690, 20.646280) rotate(7.000000) translate(-70.461690, -20.646280) "></path>
                        </g>
                    </g>
                </g>
            </g>
        </g>
    </g>
</svg>