<svg xmlns="http://www.w3.org/2000/svg" xmlns:xlink="http://www.w3.org/1999/xlink" width="612" height="496.599" viewBox="0 0 612 496.599"><defs><style>.a{opacity:0.8;}.b{fill:#ebae8d;}.c,.f,.k{fill:#a3cdee;}.c,.j{opacity:0.4;}.d{fill:#4081c3;}.e,.n{fill:#fff;}.g,.t,.w{fill:#233f57;}.h{fill:#3075bb;}.i{fill:#e8f3fb;}.k,.n{opacity:0.43;}.l{fill:#f05475;}.m{fill:#c13f3f;}.o{fill:url(#a);}.p{fill:#e3b33b;}.q,.u,.x,.z{fill:none;}.q,.w,.x{stroke:#233f57;}.q,.w{stroke-miterlimit:10;}.q{stroke-width:0.452px;}.r{fill:#bf6673;}.s{fill:#e48c71;}.t{opacity:0.22;}.u{stroke:#fff;stroke-width:1.332px;}.u,.x,.z{stroke-linecap:round;stroke-linejoin:round;}.v{fill:#3cb984;}.w{stroke-width:1.412px;}.x{stroke-width:1.059px;}.y{fill:#f0a48a;}.z{stroke:#e3b33b;stroke-width:2.47px;}</style><radialGradient id="a" cx="53.667" cy="50.267" r="51.013" gradientUnits="userSpaceOnUse"><stop offset="0" stop-color="#233f57"/><stop offset="0.06" stop-color="#24435e"/><stop offset="0.94" stop-color="#3075bb"/></radialGradient></defs><g transform="translate(-11.19 -0.95)"><g transform="translate(11.19 0.95)"><g class="a"><path class="b" d="M293.2,219.793a13.823,13.823,0,0,0,5.834,15.3s3.895.829,3.663-3.945-.481-11.486-.481-11.486Z" transform="translate(173.883 142.838)"/><path class="c" d="M397.806,286.548l-227.3-131.236c-2.635-1.508-2.3-4.193.746-5.95L280.227,86.479a11.6,11.6,0,0,1,10.309-.431L517.854,217.284c2.619,1.525,2.287,4.193-.746,5.95L408.181,286.117a11.469,11.469,0,0,1-10.376.431Z" transform="translate(92.38 54.337)"/><path class="d" d="M371.517,97.156h0v-.5h0v-.414a.248.248,0,0,0,0-.116v-.613h0v-.249a1.654,1.654,0,0,0,0-.232v-.2a.4.4,0,0,0,0-.133s0-.149,0-.232a.7.7,0,0,1,0-.166h0l-.166-.431h0l-.1-.215-.713-.481h0a1.516,1.516,0,0,0-.116-.232,1.246,1.246,0,0,0-.116-.2V92.6h0l-.2-.315v-.116h0l-.282-.4h0l-.1-.133-.182-.215h0l-.182-.2-.133-.149h0l-.2-.2a1.14,1.14,0,0,0-.215-.182h0l-.216-.182-.215-.182h0l-.166-.133-.232-.149h-.133l-.232-.149-1.227-.7-7.458,2.983,1.657.994a.846.846,0,0,1,.216.149l.232.149.215.166.1.083.332.282h0l.348.331h0l.3.331h0a2.7,2.7,0,0,1,.282.331h0l.265.348a1.656,1.656,0,0,0,.133.182l.149.232.182.265.1.182a.681.681,0,0,1,0,.149l.166.282h0l.2.4h0l.182.431h0l.149.414h0a3.032,3.032,0,0,0,.133.414h0l.1.414h0a3.666,3.666,0,0,1,0,.414h0v.414h0a3.8,3.8,0,0,1,0,.414s0,.149,0,.215v.5a1.515,1.515,0,0,0,0,.265v.878l-23.2,143.7c-.1.68-2.751,5.055-2.155,4.707l6.365-5.4a7.359,7.359,0,0,0,2.519-4.458l22.806-141c.116-.68.282-1.657.282-1.657v-.4h0a1.263,1.263,0,0,1,0-.249v.1Z" transform="translate(204.276 57.069)"/><path class="e" d="M452.419,142.934a9.58,9.58,0,0,1,4.558,8.983l-23.6,145.854c-.514,3.215-3.4,4.392-6.414,2.652L203.672,171.458a9.563,9.563,0,0,1-4.558-8.983l23.6-145.854c.514-3.215,3.315-4.392,6.414-2.652Z" transform="translate(112.335 7.081)"/><path class="f" d="M449.035,129.733,227.735,1.961h0l-.331-.2h0l-.6-.331-.215-.116-.232-.116-.249-.166h-.166L225.713.95h-2.138l-.448.116h0a3.1,3.1,0,0,0-.53.249L216,4.978a2.934,2.934,0,0,1,.514-.249h1.923l.514.1h0l.514.166h0l.564.249.215.116.182.1,1.227.713h0l221.7,127.821a.829.829,0,0,0,.829,0l4.856-2.834a.829.829,0,0,0,0-1.425ZM225.547,2.359Z" transform="translate(123.459 -0.95)"/><path class="d" d="M372.366,87.933h0v-.249a1.267,1.267,0,0,0,0-.249h0a.567.567,0,0,0,0-.166v-.249a.249.249,0,0,1,0-.116v-.6h0V86.06a1.364,1.364,0,0,1,0-.249v-.646h0a.832.832,0,0,0,0-.215.314.314,0,0,0-.083-.215h0v-.083l-.1-.215-.116-.215h0a1.368,1.368,0,0,1-.116-.215l-.116-.215a.925.925,0,0,0,0-.133h0l-.216-.331v-.116h0l-.3-.414h0l-.116-.133-.166-.232h0l-.166-.2-.149-.133h0l-.2-.2-.2-.2h0l-.2-.182-.232-.182h0l-.166-.116-.216-.166h0l-.133-.1-.232-.133-5.4-3.133-6.63,4.011,5.768,3.033.232.149.215.166.216.166h.1l.348.3h0l.332.315h0a2.812,2.812,0,0,1,.315.315h0l.3.331h0l.265.348.116.182.166.215c0,.1.116.182.166.265l.1.182.1.166L366,88.1h0a4.247,4.247,0,0,1,.182.4h0a3.129,3.129,0,0,1,.182.414h0a3.084,3.084,0,0,1,.166.414h0a1.339,1.339,0,0,0,.133.414h0a.592.592,0,0,0,.116.414h0l.1.414h0a3.61,3.61,0,0,1,0,.414h0a3.3,3.3,0,0,1,0,.414.809.809,0,0,1,0,.2V92.64a.978.978,0,0,1,0,.215v.381l-23.2,143.7c-.116.68-2.768,5.055-2.171,4.707l6.365-5.387a7.409,7.409,0,0,0,2.519-4.475l22.823-141,.265-1.657a.843.843,0,0,0,0-.215.609.609,0,0,0,0-.182h0v-.5Z" transform="translate(205.913 49.502)"/><path class="g" d="M453.91,132.684a9.53,9.53,0,0,1,4.541,8.983L434.866,287.521c-.514,3.215-3.4,4.392-6.431,2.652L205.145,161.208a9.58,9.58,0,0,1-4.541-8.983L224.189,6.371c.53-3.215,3.4-4.392,6.431-2.652Z" transform="translate(113.314 0.342)"/><path class="h" d="M443.489,134.787a8.42,8.42,0,0,1,4.359,7.84L426.5,264.929c-.464,2.7-3.166,3.563-6.05,1.939L208.664,146.886a8.4,8.4,0,0,1-4.359-7.823L225.636,16.744c.481-2.7,3.182-3.563,6.066-1.939Z" transform="translate(115.762 7.62)"/><path class="g" d="M477.369,246.192v-6.779l-8.718,3.315-1.873-4.309L248.328,112.4a12.431,12.431,0,0,0-10.757.431l-94.474,54.3v-1.508L128.578,172.6l-2.088-.812.249,6.63a3.033,3.033,0,0,0,1.657,2.552L355.7,312.556a11.437,11.437,0,0,0,10.309-.249l108.927-62.8a4.177,4.177,0,0,0,2.5-3.315Z" transform="translate(64.612 71.654)"/><path class="i" d="M355.526,307.351l-227.3-131.236c-2.635-1.525-2.3-4.21.746-5.95l108.91-62.9a11.6,11.6,0,0,1,10.309-.414L475.425,238.087c2.635,1.508,2.3,4.193-.729,5.95L365.769,306.92a11.6,11.6,0,0,1-10.243.431Z" transform="translate(64.584 68.008)"/><g class="j" transform="translate(248.35 184.777)"><path class="f" d="M208.154,126.831a1.807,1.807,0,0,1-1.492-.2l-13.79-7.956c-.5-.3-.63-.68-.315-.878l9.132-5.254a1.657,1.657,0,0,1,1.508.166l13.79,7.972c.5.282.63.663.3.862Z" transform="translate(-140.414 -112.434)"/><path class="f" d="M217.824,141.162a1.657,1.657,0,0,1-1.508-.166l-13.806-7.972c-.5-.282-.63-.663-.282-.862l9.132-5.287a1.774,1.774,0,0,1,1.492.182l13.806,7.956c.5.3.63.68.315.878Z" transform="translate(-134.074 -102.997)"/><path class="f" d="M212.944,147.129a1.757,1.757,0,0,1-1.508-.182l-13.806-7.956c-.481-.282-.63-.68-.3-.862l9.149-5.287a1.657,1.657,0,0,1,1.492.166l13.806,7.972c.5.282.63.68.3.862Z" transform="translate(-137.282 -99.086)"/><path class="f" d="M199.714,148.275a1.657,1.657,0,0,1-1.492-.182l-13.79-7.956c-.5-.282-.63-.68-.315-.862l9.149-5.287a1.757,1.757,0,0,1,1.492.166l13.806,7.972c.5.282.63.68.3.862Z" transform="translate(-145.963 -98.326)"/><path class="f" d="M176.809,145.3a1.774,1.774,0,0,1-1.492-.182l-13.806-7.956c-.5-.3-.63-.68-.3-.878l10.724-6.2a1.757,1.757,0,0,1,1.508.182l13.79,7.956c.5.3.63.68.315.862Z" transform="translate(-161.03 -100.889)"/><path class="f" d="M193.08,154.678a2.337,2.337,0,0,1-1.79-.331l-18.083-10.458c-.646-.365-.912-.829-.58-1.028l10.74-6.2a2.3,2.3,0,0,1,1.773.331l18.083,10.442c.663.381.912.845.6,1.028Z" transform="translate(-153.5 -96.541)"/><path class="f" d="M262.809,193.427a1.757,1.757,0,0,1-1.392-.232l-13.79-7.939c-.514-.282-.7-.646-.414-.812l3.961-2.287a1.657,1.657,0,0,1,1.409.232l13.79,7.972c.5.282.68.646.414.8Z" transform="translate(-104.458 -66.639)"/><path class="f" d="M273.941,200.013a1.657,1.657,0,0,1-1.409-.232l-13.79-7.956c-.5-.282-.68-.646-.414-.812l3.978-2.287a1.658,1.658,0,0,1,1.409.232l13.79,7.956c.5.282.663.646.4.812Z" transform="translate(-97.143 -62.32)"/><path class="f" d="M285.73,206.627a1.658,1.658,0,0,1-1.376-.232l-13.806-7.972c-.5-.282-.7-.646-.431-.8l3.829-2.2a1.657,1.657,0,0,1,1.392.249l13.79,7.956c.5.282.68.646.431.8Z" transform="translate(-89.39 -57.912)"/><path class="f" d="M278.48,197.5a1.658,1.658,0,0,1-1.392-.232l-13.79-8.055c-.5-.282-.7-.646-.431-.8l3.829-2.2a1.657,1.657,0,0,1,1.376.249l13.806,7.956c.5.282.68.646.414.8Z" transform="translate(-94.156 -63.965)"/><path class="f" d="M278.587,204.035a1.807,1.807,0,0,1-1.508-.182l-89.8-51.828c-.481-.282-.63-.68-.3-.862l10.724-6.2a1.657,1.657,0,0,1,1.508.166l89.8,51.828c.5.282.63.68.315.862Z" transform="translate(-144.086 -91.12)"/><path class="f" d="M187.655,148.05h-.149l-10.492-6.116s-.083-.083,0-.083l.663-.381h.149l10.541,6.083s.1.083,0,.083Z" transform="translate(-150.545 -93.344)"/><path class="f" d="M168.875,136.5l-4.475-2.586h0l.663-.381h.083l4.475,2.586h0Z" transform="translate(-158.814 -98.564)"/><path class="f" d="M211.124,154.887a1.757,1.757,0,0,1-1.459-.249l-13.79-7.956c-.5-.282-.646-.68-.315-.862l9.149-5.287a1.657,1.657,0,0,1,1.508.166l13.79,7.972c.5.282.63.68.315.862Z" transform="translate(-138.445 -94.032)"/><path class="f" d="M222.6,161.479a1.773,1.773,0,0,1-1.492-.182L207.3,153.341c-.481-.3-.63-.68-.3-.878l9.149-5.271a1.657,1.657,0,0,1,1.492.166l13.806,7.972c.481.282.63.663.3.862Z" transform="translate(-130.924 -89.652)"/><path class="f" d="M234.069,168.082a1.79,1.79,0,0,1-1.508-.166l-13.79-7.972c-.5-.282-.63-.68-.3-.862l9.132-5.287a1.806,1.806,0,0,1,1.508.182l13.79,7.956c.5.282.63.68.3.862Z" transform="translate(-123.385 -85.299)"/><path class="f" d="M245.529,174.711a1.657,1.657,0,0,1-1.492-.182l-13.806-7.956c-.5-.3-.63-.68-.3-.878l9.132-5.271a1.657,1.657,0,0,1,1.508.166l13.806,7.972c.5.282.63.68.3.862Z" transform="translate(-115.851 -80.956)"/><path class="f" d="M257,181.312a1.657,1.657,0,0,1-1.508-.166l-13.806-7.972c-.481-.282-.613-.663-.3-.862l9.149-5.287a1.773,1.773,0,0,1,1.492.182l13.806,7.956c.5.3.63.68.3.878Z" transform="translate(-108.312 -76.601)"/><path class="f" d="M268.459,187.939a1.774,1.774,0,0,1-1.492-.182L253.161,179.8c-.5-.3-.63-.68-.3-.878l9.149-5.271a1.657,1.657,0,0,1,1.492.166l13.806,7.972c.5.282.63.663.3.862Z" transform="translate(-100.776 -72.256)"/><path class="f" d="M303.695,208.284a1.773,1.773,0,0,1-1.492-.182l-37.591-21.7c-.5-.282-.63-.68-.315-.862l9.149-5.287a1.757,1.757,0,0,1,1.508.182l37.591,21.7c.5.282.63.68.3.862Z" transform="translate(-93.25 -67.906)"/><path class="f" d="M224.337,153.707a1.657,1.657,0,0,1-1.492-.182l-13.79-7.956c-.5-.282-.646-.68-.315-.862l9.149-5.287a1.657,1.657,0,0,1,1.492.182l13.806,7.956c.5.282.63.68.3.862Z" transform="translate(-129.78 -94.758)"/><path class="f" d="M235.809,160.329a1.774,1.774,0,0,1-1.492-.182l-13.806-7.972c-.5-.282-.63-.663-.3-.862l9.149-5.271a1.657,1.657,0,0,1,1.492.166l13.806,7.972c.481.282.63.663.3.862Z" transform="translate(-122.241 -90.408)"/><path class="f" d="M247.263,166.932a1.658,1.658,0,0,1-1.508-.182l-13.79-7.956c-.5-.282-.646-.68-.315-.862l9.149-5.287a1.774,1.774,0,0,1,1.492.182l13.806,7.956c.5.282.63.68.3.862Z" transform="translate(-114.718 -86.055)"/><path class="f" d="M258.739,173.559a1.774,1.774,0,0,1-1.492-.182l-13.806-7.956c-.5-.3-.63-.68-.3-.862l9.149-5.287a1.657,1.657,0,0,1,1.492.166l13.79,7.972c.5.282.63.68.315.862Z" transform="translate(-107.166 -81.71)"/><path class="f" d="M270.263,180.165a1.658,1.658,0,0,1-1.492-.182l-13.806-7.956c-.5-.3-.646-.68-.315-.862l9.149-5.287a1.757,1.757,0,0,1,1.492.166l13.806,7.972c.5.282.63.68.315.862Z" transform="translate(-99.597 -77.36)"/><path class="f" d="M281.669,186.772a1.657,1.657,0,0,1-1.492-.166l-13.806-7.956c-.5-.3-.63-.68-.3-.878l9.149-5.287a1.773,1.773,0,0,1,1.492.182l13.79,7.972c.5.282.63.663.315.862Z" transform="translate(-92.091 -73.012)"/><path class="f" d="M293.127,193.4a1.657,1.657,0,0,1-1.492-.182l-13.806-7.956c-.481-.282-.63-.68-.3-.862l9.149-5.287a1.657,1.657,0,0,1,1.492.182l13.806,7.956c.5.282.63.68.3.862Z" transform="translate(-84.555 -68.664)"/><path class="f" d="M229.259,147.7a1.657,1.657,0,0,1-1.508-.166l-13.79-7.972c-.5-.282-.63-.663-.3-.862l9.149-5.271a1.657,1.657,0,0,1,1.492.166l13.79,7.956c.5.3.63.68.315.878Z" transform="translate(-126.548 -98.698)"/><path class="f" d="M240.689,154.367a1.657,1.657,0,0,1-1.492-.182l-13.806-7.956c-.5-.282-.63-.68-.3-.862l9.149-5.287a1.657,1.657,0,0,1,1.492.182l13.806,7.956c.481.282.63.68.3.862Z" transform="translate(-119.033 -94.324)"/><path class="f" d="M252.159,160.972a1.657,1.657,0,0,1-1.508-.166l-13.806-7.972c-.481-.282-.613-.663-.282-.862L245.7,146.7a1.657,1.657,0,0,1,1.492.166l13.806,7.956c.5.3.63.68.315.878Z" transform="translate(-111.493 -89.974)"/><path class="f" d="M263.619,167.584a1.757,1.757,0,0,1-1.492-.166l-13.806-7.939c-.5-.282-.63-.68-.3-.862l9.149-5.287a1.657,1.657,0,0,1,1.492.182l13.79,7.956c.514.3.63.68.315.862Z" transform="translate(-103.958 -85.613)"/><path class="f" d="M275.089,174.2a1.657,1.657,0,0,1-1.492-.166l-13.806-7.972c-.5-.282-.63-.663-.3-.862l9.149-5.287a1.774,1.774,0,0,1,1.492.182l13.79,7.972c.5.282.63.663.3.845Z" transform="translate(-96.417 -81.276)"/><path class="f" d="M286.549,180.825a1.757,1.757,0,0,1-1.508-.182l-13.79-7.956c-.5-.282-.63-.68-.3-.862l9.149-5.287a1.757,1.757,0,0,1,1.492.166l13.79,7.972c.514.282.646.68.315.862Z" transform="translate(-88.883 -76.927)"/><path class="f" d="M298.024,187.432a1.657,1.657,0,0,1-1.508-.166l-13.806-7.972c-.5-.282-.63-.663-.282-.862l9.133-5.287a1.774,1.774,0,0,1,1.492.182l13.806,7.972c.5.282.63.663.3.862Z" transform="translate(-81.347 -72.578)"/><path class="f" d="M210.155,136.754a1.657,1.657,0,0,1-1.492-.182l-23.4-13.492c-.5-.3-.63-.68-.3-.878l9.149-5.287a1.774,1.774,0,0,1,1.492.182l23.4,13.508c.5.282.63.68.3.862Z" transform="translate(-145.416 -109.545)"/><path class="f" d="M320.89,191.9a1.657,1.657,0,0,1-1.508-.166l-23.4-13.508c-.481-.282-.63-.68-.3-.862l9.149-5.287a1.657,1.657,0,0,1,1.492.166l23.4,13.508c.5.282.63.68.3.862Z" transform="translate(-72.623 -73.289)"/><path class="f" d="M207.063,143.717a1.657,1.657,0,0,1-1.492-.166l-27.895-16.077c-.514-.282-.646-.663-.315-.862l9.149-5.287a1.773,1.773,0,0,1,1.492.182L215.9,137.6c.5.3.63.68.315.862Z" transform="translate(-150.412 -106.646)"/><path class="f" d="M190.16,142.8a1.657,1.657,0,0,1-1.492-.166l-18.6-10.74c-.5-.282-.63-.68-.315-.862l9.149-5.287a1.757,1.757,0,0,1,1.508.182l18.6,10.724c.5.3.63.68.3.878Z" transform="translate(-155.404 -103.742)"/><path class="f" d="M219.619,133.432a1.657,1.657,0,0,1-1.508-.182l-13.79-7.956c-.5-.282-.63-.663-.3-.862l9.149-5.287a1.774,1.774,0,0,1,1.492.182l13.79,7.956c.514.3.646.68.315.862Z" transform="translate(-132.885 -108.079)"/><path class="f" d="M231.045,140.012a1.657,1.657,0,0,1-1.508-.166l-13.806-7.972c-.5-.282-.63-.68-.3-.862l9.149-5.287a1.774,1.774,0,0,1,1.492.182l13.806,7.956c.5.3.63.68.3.878Z" transform="translate(-125.384 -103.753)"/><path class="f" d="M242.489,146.652A1.657,1.657,0,0,1,241,146.47l-13.806-7.989c-.5-.282-.63-.68-.3-.862l9.132-5.287a1.657,1.657,0,0,1,1.492.166l13.806,7.972c.5.282.63.663.3.862Z" transform="translate(-117.85 -99.422)"/><path class="f" d="M253.958,153.242a1.657,1.657,0,0,1-1.492-.166l-13.79-7.956c-.514-.3-.646-.68-.315-.878l9.149-5.271a1.657,1.657,0,0,1,1.492.166l13.806,7.956c.481.3.63.68.3.878Z" transform="translate(-110.309 -95.056)"/><path class="f" d="M265.417,159.864a1.657,1.657,0,0,1-1.492-.182l-13.79-7.956c-.5-.282-.646-.68-.315-.862l9.149-5.287a1.757,1.757,0,0,1,1.508.182l13.79,7.956c.5.282.63.68.3.862Z" transform="translate(-102.773 -90.705)"/><path class="f" d="M276.889,166.472a1.657,1.657,0,0,1-1.492-.166l-13.806-7.972c-.5-.282-.63-.663-.3-.862l9.149-5.287a1.773,1.773,0,0,1,1.492.182l13.806,7.956c.5.282.63.68.3.862Z" transform="translate(-95.234 -86.358)"/><path class="f" d="M288.363,173.1a1.806,1.806,0,0,1-1.508-.182l-13.79-7.956c-.5-.3-.646-.68-.315-.878l9.149-5.271a1.74,1.74,0,0,1,1.508.166l13.79,7.972c.5.282.63.68.3.862Z" transform="translate(-87.698 -82.011)"/><path class="f" d="M299.819,179.7a1.657,1.657,0,0,1-1.492-.166l-13.806-7.972c-.5-.282-.63-.663-.3-.862l9.132-5.287a1.807,1.807,0,0,1,1.508.182l13.806,7.956c.481.3.613.68.282.862Z" transform="translate(-80.159 -77.66)"/><path class="f" d="M307.735,179.968a2.138,2.138,0,0,0-.812-.265,1.044,1.044,0,0,0-.68,0l-9.149,5.287a.315.315,0,0,0-.166.4,1.044,1.044,0,0,0,.464.464l3.6,2.072-11.983,6.928a.3.3,0,0,0-.166.4.961.961,0,0,0,.464.464l9.3,5.37a2.138,2.138,0,0,0,.812.265,1.044,1.044,0,0,0,.68,0l21.746-12.563a.3.3,0,0,0,.149-.4.961.961,0,0,0-.464-.464Z" transform="translate(-77.02 -68.246)"/><path class="f" d="M184.765,135.834h-.133l-10.558-6.083h0l.663-.381h.149l10.541,6.083s.1.083,0,.083Z" transform="translate(-152.478 -101.299)"/></g><path class="k" d="M116.4,122.888h0a15.779,15.779,0,0,1,4.061-2.453l4.691-2.8c.232-.149.464-.133.7-.265v.149h0c6.215-3.878,16.094-3.713,28.425.348l51.828-4.492a2.3,2.3,0,0,0,.547-.166c3.58-1.956,25.972-13.027,26.983-13.259,2.668-2.155,7.74-2.5,14.5-.481l1.492.481c1.459-.713,2.47-1.177,2.635-1.227,1.807-1.459,5.221-1.657,9.8-.315,8.9,2.668,18.762,10.309,22.044,17.088,2.055,4.26,1.011,7.16-2.254,8.072a13.561,13.561,0,0,1-1.343.729c.083.149.149.3.232.431,3.033,6.3,1.492,10.591-3.315,11.934-.564.448-15.215,7.74-22.889,11.453l-.414.613A12.829,12.829,0,0,1,256.1,156.2l-.182,4.044A12.978,12.978,0,0,1,242.4,172.594h-.365a12.813,12.813,0,0,1-3.58-.68L226.3,189.9c.5,7.243-2.2,12.464-7.409,15.3h0l-6.249,3.547a16.882,16.882,0,0,1-1.508.862h0c-7.177,3.563-18.746,2.867-33.066-2.9-28.922-11.6-58.01-39.679-65.137-62.552C109.918,134.324,111.427,127.081,116.4,122.888Z" transform="translate(54.682 62.529)"/><path class="l" d="M173.062,206.383l9.2-5.2L123.041,89.7,111.77,96.413Z" transform="translate(54.935 57.397)"/><path class="l" d="M185.943,89.665c.63-.481,20.552-10.475,21.331-10.707,2.287-1.657,5.7-1.889,9.663,0,7.707,3.563,14.585,13.259,15.348,21.779.5,5.32-1.558,8.867-5.055,9.945-.63.481-20.552,10.475-21.331,10.69-2.287,1.657-5.685,1.906-9.663,0-7.707-3.563-14.585-13.259-15.348-21.779C180.407,94.223,182.446,90.676,185.943,89.665Z" transform="translate(100.329 49.46)"/><path class="m" d="M184.519,90.219c.63-.481,20.536-10.458,21.331-10.69,2.287-1.657,5.685-1.889,9.646,0,7.724,3.563,14.6,13.259,15.364,21.8.481,5.32-1.558,8.851-5.055,9.945-.63.464-20.552,10.458-21.348,10.69-2.271,1.657-5.685,1.889-9.646,0a29.536,29.536,0,0,1-15.364-21.8C178.967,94.777,181.022,91.246,184.519,90.219Z" transform="translate(99.383 49.835)"/><rect class="g" width="30.513" height="85.043" rx="8.2" transform="matrix(0.999, 0.045, -0.045, 0.999, 272.953, 146.008)"/><path class="l" d="M169.582,95.579c.928-.713,30.4-15.48,31.491-15.812,3.315-2.569,8.42-2.818,14.287-.1,11.4,5.271,21.547,19.707,22.707,32.221.713,7.873-2.3,13.11-7.475,14.619-.945.7-30.4,15.48-31.574,15.812-3.315,2.569-8.4,2.8-14.271.1-11.42-5.287-21.547-19.707-22.723-32.237C161.378,102.325,164.411,97.087,169.582,95.579Z" transform="translate(87.917 49.529)"/><path class="m" d="M228.962,86.07a39.165,39.165,0,0,1,6.282,17.005c.713,7.856-2.32,13.094-7.492,14.6-.928.713-30.381,15.48-31.491,15.829-3.315,2.552-8.42,2.8-14.271,0a35.038,35.038,0,0,1-18.48-18.746Z" transform="translate(88.95 55.011)"/><path class="i" d="M199.467,88.661,116.43,94.644,175,203.819l62-74C233.81,106.246,217.815,83.738,199.467,88.661Z" transform="translate(57.998 56.265)"/><path class="i" d="M130.68,133.77,163.5,192.178s63.6-70.772,63.231-72.5A62.866,62.866,0,0,0,215.955,95.4Z" transform="translate(67.367 61.145)"/><ellipse class="l" cx="36.447" cy="63.132" rx="36.447" ry="63.132" transform="matrix(0.888, -0.46, 0.46, 0.888, 146.28, 163.474)"/><ellipse class="m" cx="36.447" cy="63.132" rx="36.447" ry="63.132" transform="matrix(0.888, -0.46, 0.46, 0.888, 137.785, 168.335)"/><ellipse class="e" cx="33.795" cy="58.541" rx="33.795" ry="58.541" transform="matrix(0.888, -0.46, 0.46, 0.888, 145.61, 168.546)"/><path class="i" d="M176.06,124.2A82.872,82.872,0,0,0,151.6,98.443c-22.243-14.221-41.237-4.376-42.43,21.994-.348,7.558,0,16.044,6.63,33.646C125.309,124.365,151.3,118.829,176.06,124.2Z" transform="translate(53.163 58.864)"/><path class="i" d="M176.282,142.757c.514-11.486-7.591-25.839-18.116-32.071-4.972-2.983-9.729-3.563-13.259-2.072h-.149l-.481.215-13.127,6.116a8.286,8.286,0,0,0-1.508.7h0c-3.315,1.873-5.32,5.668-5.552,11.039-.53,11.486,7.574,25.856,18.1,32.071,4.972,2.95,9.563,3.547,13.094,2.171h0a8.768,8.768,0,0,0,1.127-.53l12.083-5.7a9.547,9.547,0,0,0,2.9-1.376h0C174.244,151.359,176.05,147.746,176.282,142.757Z" transform="translate(63.018 69.312)"/><path class="g" d="M152.946,101.54l-23.2,11.967c-3.514,1.889-4.972,5.7-5.171,11.072-.53,11.486,6.845,25.823,16.574,32.005,4.558,2.917,7.939,3.514,12.033,2.122h0c.365-.166.729-.348,1.077-.547,0,0,22.276-11.834,23.088-12.447A95.866,95.866,0,0,0,152.946,101.54Z" transform="translate(63.333 65.181)"/><path class="d" d="M147.748,124.519c5.287,9.381,5.652,19.193.812,21.911s-13.027-2.685-18.232-12.066-5.635-19.177-.812-21.895S142.477,115.138,147.748,124.519Z" transform="translate(64.387 71.904)"/><path class="g" d="M167.7,145.711S166.24,134.44,157.638,120.2a85.692,85.692,0,0,0-14.353-18.663l-4.044,2.088a93.446,93.446,0,0,1,23.121,45.082Z" transform="translate(72.994 65.181)"/><path class="e" d="M190.259,89.47,139.74,93.315l14.635,12.05,41.817-9.5Z" transform="translate(73.323 57.246)"/><path class="n" d="M207.783,83.318,181.446,97.191l-6.7-4.243L201.584,79.34Z" transform="translate(96.34 50.586)"/><path class="c" d="M146.635,375.33,19.013,301.657c-4.575-2.635-3.945-7.359,1.409-10.541L196.276,186.9c5.37-3.166,13.442-3.6,18.016-.961l127.622,73.673c4.591,2.652,3.961,7.376-1.409,10.558l-175.854,104.2C159.3,377.551,151.226,377.982,146.635,375.33Z" transform="translate(-8.057 119.531)"/><path class="g" d="M337.174,255.4,209.552,181.729c-4.591-2.652-12.646-2.221-18.016.961L15.7,286.894a16.325,16.325,0,0,0-1.657,1.127l-2.851-3.315v8.967a5.519,5.519,0,0,0,3,3.862l127.622,73.673c4.575,2.652,12.646,2.221,18.016-.961l175.9-104.286c2.784-1.657,4.276-3.729,4.442-5.7v-8.6S337.87,255.8,337.174,255.4Z" transform="translate(-11.19 116.758)"/><path class="d" d="M141.89,366,14.268,292.326c-4.591-2.635-3.961-7.359,1.409-10.541l175.854-104.2c5.37-3.182,13.425-3.613,18.016-.978l127.622,73.673c4.591,2.652,3.945,7.376-1.409,10.558l-175.854,104.2C154.536,368.22,146.465,368.651,141.89,366Z" transform="translate(-11.185 113.397)"/><path class="e" d="M143.457,351.865,20.79,281.043,197.075,179.26l122.683,70.822Z" transform="translate(-4.879 116.277)"/><path class="f" d="M215.138,217.87l-4.608-2.652h0c5.42-3.149,5.42-8.287,0-11.353l-24.944-14.4a21.729,21.729,0,0,0-19.657,0l-3.133-1.79a22.607,22.607,0,0,0-20.469,0h0c-5.635,3.315-5.635,8.552,0,11.818l52.309,30.2a22.608,22.608,0,0,0,20.469,0h0C220.806,226.422,220.806,221.135,215.138,217.87Z" transform="translate(72.245 120.197)"/><path class="i" d="M215.138,215.187l-4.608-2.668h0c5.42-3.133,5.42-8.287,0-11.337l-24.944-14.4a21.729,21.729,0,0,0-19.657,0l-3.133-1.807a22.607,22.607,0,0,0-20.469,0h0c-5.635,3.315-5.635,8.552,0,11.818l52.309,30.2a22.608,22.608,0,0,0,20.469,0h0C220.806,223.739,220.806,218.452,215.138,215.187Z" transform="translate(72.245 118.422)"/><path class="e" d="M191.516,212.153,153.4,189.462a2.122,2.122,0,0,1,0-3.6h0a2.1,2.1,0,0,1,2.221,0l38.121,22.674a2.122,2.122,0,0,1,0,3.6h0A2.138,2.138,0,0,1,191.516,212.153Z" transform="translate(81.646 120.412)"/><ellipse class="h" cx="25.425" cy="34.524" rx="25.425" ry="34.524" transform="matrix(0.885, -0.465, 0.465, 0.885, 333.841, 90.229)"/><path class="g" d="M231.219,62.127l-.829-.547s.149-2.619.166-2.735.613-11.4,9.945-8.834,13.259,11.6,13.259,11.6a14.5,14.5,0,0,1-1.293,12.514l-1.077-.9s2.834-7.624-1.873-10.409l-3.68-.381a14.436,14.436,0,0,1-7.674-5.238C234.6,52.663,231.931,57.618,231.219,62.127Z" transform="translate(132.92 31.054)"/><path class="g" d="M242.253,81.311c-3.447,0-7.21-2.586-9.282-6.63a20.367,20.367,0,0,1-1.657-4.028,25.442,25.442,0,0,1-.63-9.762,8.974,8.974,0,0,1,.116-1.459c.1-1.359.149-1.956.182-2.088a.448.448,0,0,1,.53-.381.481.481,0,0,1,.381.547c0,.133-.116,1.21-.182,1.989s-.1,1.392-.116,1.508a24.631,24.631,0,0,0,.613,9.414,19.89,19.89,0,0,0,1.558,3.845c2.354,4.608,6.945,7.16,10.442,5.8a6.2,6.2,0,0,0,2.122-1.276,17.95,17.95,0,0,0,3.928-8.039s.116-.348.431-1.21c.166-.5.414-1.16.431-1.26a.481.481,0,0,1,.564-.315.464.464,0,0,1,.348.547l-.481,1.343c-.166.464-.381,1.044-.4,1.127a18.348,18.348,0,0,1-4.16,8.453,6.9,6.9,0,0,1-2.453,1.492,6.381,6.381,0,0,1-2.287.381Z" transform="translate(132.974 35.87)"/><path class="g" d="M242.3,71.426a2.154,2.154,0,0,1-.414,0,.464.464,0,1,1,.249-.9s1.475.315,2.784-2.387a3.083,3.083,0,0,0,.365-2.436,1.657,1.657,0,0,0-.862-.9.459.459,0,0,1,.315-.862,2.6,2.6,0,0,1,1.409,1.392,3.928,3.928,0,0,1-.381,3.2C244.52,71.078,243.029,71.426,242.3,71.426Z" transform="translate(140.253 40.451)"/><path class="g" d="M231.66,65.991a.447.447,0,0,1-.282-.1,7.674,7.674,0,0,1-2.171-5.9c0-1.657.3-2.668,1.028-3.05a1.757,1.757,0,0,1,1.773.265.464.464,0,0,1,.083.646.447.447,0,0,1-.646.083h0c-.116-.083-.53-.315-.8-.166s-.564.431-.514,2.2a6.945,6.945,0,0,0,1.823,5.188.516.516,0,0,1-.3.829Z" transform="translate(132.13 35.775)"/><path class="g" d="M238.935,83.266a6.4,6.4,0,0,1-2.967-.928c-5.768-3.149-4.26-7.707-4.243-7.757l1.657-5.9a.464.464,0,0,1,.6-.331.481.481,0,0,1,.331.58l-1.657,5.934c0,.182-1.243,3.878,3.8,6.63,1.492.829,2.652,1.028,3.431.58a3.017,3.017,0,0,0,1.144-2.271l.812-6.282a.481.481,0,0,1,.53-.414.464.464,0,0,1,.414.53l-.8,6.249a3.945,3.945,0,0,1-1.657,3.033,2.867,2.867,0,0,1-1.392.348Z" transform="translate(133.673 43.345)"/><path class="g" d="M236.393,59.962l-3.2-1.657a.729.729,0,0,1-.3-.746h0a.332.332,0,0,1,.514-.3l3.2,1.74a.729.729,0,0,1,.315.746h0C236.857,59.962,236.625,60.177,236.393,59.962Z" transform="translate(134.557 36.037)"/><path class="g" d="M242.829,63.507l-3.2-1.74a.762.762,0,0,1-.315-.762h0a.365.365,0,0,1,.53-.3l3.2,1.74a.729.729,0,0,1,.3.762h0a.348.348,0,0,1-.514.3Z" transform="translate(138.779 38.309)"/><path class="g" d="M249.85,94.527a.464.464,0,0,1-.464-.447,18.9,18.9,0,0,0-4.376-11.287c-3.961-4.84-7.276-9.8-7.309-9.845a.467.467,0,0,1,.779-.514s3.315,4.972,7.26,9.762a20.005,20.005,0,0,1,4.575,11.851.464.464,0,0,1-.448.481Z" transform="translate(137.675 45.908)"/><path class="g" d="M222.029,75.818a.448.448,0,0,1-.2,0,.464.464,0,0,1-.2-.63,8.917,8.917,0,0,1,8.287-5.287h.282a76.49,76.49,0,0,0,9.63-.68.469.469,0,1,1,.133.928,82.421,82.421,0,0,1-9.762.68h-.282a7.923,7.923,0,0,0-7.475,4.657.448.448,0,0,1-.414.331Z" transform="translate(127.126 43.931)"/><path class="g" d="M239.057,80.8h0a8.287,8.287,0,0,1-3.862-1.21,11.47,11.47,0,0,1-3.53-2.818.447.447,0,0,1,0-.646.481.481,0,0,1,.663,0,11.022,11.022,0,0,0,3.315,2.586,7.724,7.724,0,0,0,3.447,1.11.464.464,0,0,1,0,.912Z" transform="translate(133.667 48.384)"/><path class="g" d="M238.366,66.561a1.459,1.459,0,0,1-.729-.2l-3.265-1.74a.464.464,0,0,1,.448-.812l3.2,1.757a.5.5,0,0,0,.447,0,.448.448,0,0,0,.216-.315l.481-2.387a1.293,1.293,0,0,0-.63-1.276l-5.552-3.033a.464.464,0,0,0-.431,0,.448.448,0,0,0-.215.315l-.481,2.387a1.309,1.309,0,0,0,.613,1.276l.7.381a.481.481,0,0,1,.2.63.448.448,0,0,1-.63.182l-.713-.381a2.237,2.237,0,0,1-1.077-2.271l.481-2.387a1.309,1.309,0,0,1,2.006-.9l5.552,3.033a2.188,2.188,0,0,1,1.077,2.271l-.481,2.387a1.326,1.326,0,0,1-.729.978A1.459,1.459,0,0,1,238.366,66.561Z" transform="translate(133.264 36.282)"/><path class="g" d="M244.937,70.168a1.657,1.657,0,0,1-.746-.2l-2.2-1.21a.464.464,0,0,1-.2-.63.481.481,0,0,1,.63-.182l2.221,1.21a.464.464,0,0,0,.431,0,.414.414,0,0,0,.215-.315l.481-2.387a1.293,1.293,0,0,0-.613-1.276L239.6,62.146a.464.464,0,0,0-.431,0,.414.414,0,0,0-.215.315l-.481,2.387a1.293,1.293,0,0,0,.613,1.276l1.79.978a.464.464,0,1,1-.448.812l-1.79-.978a2.2,2.2,0,0,1-1.077-2.271l.481-2.387a1.326,1.326,0,0,1,.729-.978,1.409,1.409,0,0,1,1.276,0l5.552,3.033a2.2,2.2,0,0,1,1.077,2.271l-.481,2.387a1.359,1.359,0,0,1-.729.978,1.177,1.177,0,0,1-.53.2Z" transform="translate(137.615 38.626)"/><path class="g" d="M245.672,68.755a.331.331,0,0,1-.166,0,.448.448,0,0,1-.249-.6,12.249,12.249,0,0,0,.464-5.95,4.773,4.773,0,0,0-4.127-4.094,7.955,7.955,0,0,1-1.757-.149.464.464,0,0,1-.365-.547.448.448,0,0,1,.53-.365,7.242,7.242,0,0,0,1.558.133,5.685,5.685,0,0,1,5.072,4.757,12.662,12.662,0,0,1-.53,6.464A.431.431,0,0,1,245.672,68.755Z" transform="translate(138.886 35.929)"/><path class="g" d="M231.238,60.416h0a.481.481,0,0,1-.448-.481,10.956,10.956,0,0,1,2.006-5.784,3,3,0,0,1,2.37-1.11h0a4.757,4.757,0,0,1,3.563,1.989,13.74,13.74,0,0,0,4.177,3.6,7.161,7.161,0,0,0,.878.431.464.464,0,0,1,.232.613.447.447,0,0,1-.613.232,9.955,9.955,0,0,1-.945-.464A14.3,14.3,0,0,1,238,55.593a3.9,3.9,0,0,0-2.851-1.657,2.138,2.138,0,0,0-1.657.779,9.945,9.945,0,0,0-1.79,5.221.464.464,0,0,1-.464.481Z" transform="translate(133.183 33.296)"/><path class="g" d="M252.851,74.907a.331.331,0,0,1-.182,0,.464.464,0,0,1-.249-.613c2.3-5.188,2.536-9.6.68-13.492a20.436,20.436,0,0,0-12.911-10.226,7.028,7.028,0,0,0-6.066,1.044c-3.315,2.768-3.083,10.492-3.083,10.574a.448.448,0,0,1-.448.464.464.464,0,0,1-.481-.448c0-.331-.182-8.287,3.315-11.3a7.79,7.79,0,0,1,6.862-1.243,21.116,21.116,0,0,1,13.641,10.707c1.972,4.16,1.757,8.818-.663,14.271A.431.431,0,0,1,252.851,74.907Z" transform="translate(132.735 30.87)"/><path class="g" d="M239.492,63.18a.464.464,0,0,1-.4-.215c-1.177-1.906-2.436-1.492-2.5-1.475a.459.459,0,0,1-.315-.862c.083,0,2.022-.729,3.613,1.856a.455.455,0,0,1-.4.7Z" transform="translate(136.596 38.222)"/><ellipse class="g" cx="10.806" cy="14.486" rx="10.806" ry="14.486" transform="translate(384.657 88.236) rotate(-12.85)"/><path class="e" d="M248.882,59.061l6.066,13.011c.945,2.055,3.978.265,3.033-1.757l-6.066-13.027C250.954,55.249,247.937,57.023,248.882,59.061Z" transform="translate(144.958 35.495)"/><path class="e" d="M257.418,58.685l-8.7,5.1a1.757,1.757,0,0,0,1.757,3.033l8.718-5.1a1.757,1.757,0,1,0-1.773-3.033Z" transform="translate(144.46 36.849)"/><circle class="o" cx="50.701" cy="50.701" r="50.701" transform="translate(398.63 101.153)"/><ellipse class="e" cx="29.685" cy="40.325" rx="29.685" ry="40.325" transform="matrix(0.885, -0.465, 0.465, 0.885, 396.838, 120.693)"/><path class="p" d="M274.49,91.164s-9.514-.878-13.259,4.79c9.6,22.309,34.044,31.74,44.519,24.6a17.47,17.47,0,0,0-.945-4.691,45.035,45.035,0,0,0-6.448-11.1L293.5,98.424c0,8.072-2.884,11.138-9.464,7.641-5.569-3.066-7.077-8.287-4.972-15.315Z" transform="translate(153.195 58.088)"/><path class="g" d="M284.873,104.987c-4.028,0-8.42-3.017-10.84-7.79a24.28,24.28,0,0,1-1.923-4.707,30.049,30.049,0,0,1-.746-11.4c0-.116.116-.912.232-1.889.249-2.221.447-3.8.464-3.978a.564.564,0,0,1,.63-.448.547.547,0,0,1,.448.63c0,.182-.3,2.436-.464,3.912-.116.994-.215,1.807-.232,1.923a28.79,28.79,0,0,0,.713,10.972,23.2,23.2,0,0,0,1.84,4.492c2.735,5.387,8.088,8.287,12.182,6.779a6.63,6.63,0,0,0,2.47-1.492,20.832,20.832,0,0,0,4.591-9.4l.5-1.84.729-2.619a.547.547,0,0,1,.646-.4.53.53,0,0,1,.4.646c0,.1-.3,1.11-.729,2.652-.249.928-.481,1.757-.5,1.823a21.547,21.547,0,0,1-4.856,9.945,7.989,7.989,0,0,1-2.867,1.657A7.409,7.409,0,0,1,284.873,104.987Z" transform="translate(159.701 47.58)"/><path class="g" d="M284.913,92.742a2.6,2.6,0,0,1-.481,0,.547.547,0,0,1,.3-1.044s1.657.365,3.315-2.785a3.646,3.646,0,0,0,.414-2.851,1.906,1.906,0,0,0-1.011-1.028.547.547,0,0,1,.365-1.028,3.05,3.05,0,0,1,1.657,1.657,4.607,4.607,0,0,1-.431,3.729C287.482,92.295,285.742,92.742,284.913,92.742Z" transform="translate(168.229 53.643)"/><path class="g" d="M272.514,86.4a.547.547,0,0,1-.348-.116c-.1,0-2.436-2.006-2.536-6.878,0-1.972.348-3.133,1.193-3.58a2.088,2.088,0,0,1,2.072.315.547.547,0,1,1-.646.862h0c-.133-.1-.613-.365-.928-.2s-.646.5-.613,2.586a8.121,8.121,0,0,0,2.138,6.05.547.547,0,0,1,.083.762A.53.53,0,0,1,272.514,86.4Z" transform="translate(158.717 48.182)"/><path class="g" d="M280.978,106.583a7.509,7.509,0,0,1-3.464-1.077c-6.729-3.7-4.972-9.016-4.972-9.066l1.939-6.911a.561.561,0,0,1,1.077.315L273.6,96.771c0,.215-1.442,4.525,4.425,7.74,1.757.961,3.1,1.193,4.011.68,1.243-.7,1.343-2.635,1.359-2.652l.928-7.342a.58.58,0,0,1,.63-.481.563.563,0,0,1,.481.63l-.928,7.276a4.575,4.575,0,0,1-1.906,3.547A3.315,3.315,0,0,1,280.978,106.583Z" transform="translate(160.496 57.022)"/><path class="g" d="M293.651,119.167a.53.53,0,0,1-.53-.514,21.944,21.944,0,0,0-5.088-12.63c-4.624-5.652-8.486-11.436-8.536-11.5a.53.53,0,0,1,.149-.746.564.564,0,0,1,.762.149s3.878,5.8,8.469,11.4a23.3,23.3,0,0,1,5.32,13.259.564.564,0,0,1-.5.58Z" transform="translate(165.143 60.018)"/><path class="g" d="M261.495,97.175a.58.58,0,0,1-.282,0,.547.547,0,0,1-.182-.746,10.26,10.26,0,0,1,9.232-5.453h.331a89.224,89.224,0,0,0,11.237-.8A.547.547,0,0,1,282,91.258a96.414,96.414,0,0,1-11.4.8h-.332a9.116,9.116,0,0,0-8.287,4.972A.547.547,0,0,1,261.495,97.175Z" transform="translate(153.013 57.712)"/><path class="g" d="M282.064,108.371a9.945,9.945,0,0,1-4.492-1.425c-2.9-1.657-9.182-6.3-5.088-16.143a.554.554,0,1,1,1.028.414c-3.6,8.685,1.326,12.961,4.575,14.735,1.011.564,3.663,2.005,5.652.9,1.657-.961,2.685-3.563,2.884-7.724a.547.547,0,0,1,.6-.53.564.564,0,0,1,.53.58c-.232,4.575-1.392,7.492-3.464,8.652A4.492,4.492,0,0,1,282.064,108.371Z" transform="translate(159.709 57.886)"/><path class="g" d="M280.791,105.436h0a9.945,9.945,0,0,1-4.525-1.425,14.055,14.055,0,0,1-4.127-3.315.547.547,0,0,1,.845-.7,12.812,12.812,0,0,0,3.8,3.033,9.083,9.083,0,0,0,4.011,1.293.547.547,0,1,1,0,1.077Z" transform="translate(160.285 64.037)"/><path class="g" d="M292.08,89.207h0a.514.514,0,0,1-.514-.448s-.613-2.2-7.342-6.895a17.536,17.536,0,0,1-3.646-3.481.547.547,0,1,1,.845-.68,16.706,16.706,0,0,0,3.414,3.315,30.1,30.1,0,0,1,6.978,6.1c.249-1.657.63-4.359.812-7.657a.547.547,0,1,1,1.077,0,73.028,73.028,0,0,1-1.077,9.3A.547.547,0,0,1,292.08,89.207Z" transform="translate(165.803 49.338)"/><path class="g" d="M295.509,83.637a.53.53,0,0,1-.53-.481,22.176,22.176,0,0,0-10.723-15.315,4.11,4.11,0,0,0-3.845-.215,5.155,5.155,0,0,0-2.2,5.2,33.446,33.446,0,0,0,3.2,8.9.547.547,0,0,1-.232.729.53.53,0,0,1-.729-.215,33.579,33.579,0,0,1-3.315-9.2,6.331,6.331,0,0,1,2.685-6.331,4.972,4.972,0,0,1,4.873.149c4.707,2.2,10.525,9.381,11.353,16.177a.547.547,0,0,1-.481.6Z" transform="translate(163.584 41.914)"/><path class="g" d="M271.159,81.439H270.5a.53.53,0,0,1-.431-.282.563.563,0,0,1,0-.514,19.889,19.889,0,0,0,1.89-4.972h0c.431-2.785,1.657-7.724,4.558-9.563a4.74,4.74,0,0,1,4.144-.4,11.022,11.022,0,0,1,3.2,1.773l.464.331a.536.536,0,1,1-.613.878l-.481-.331a10.375,10.375,0,0,0-2.9-1.657,3.713,3.713,0,0,0-3.315.282c-2.7,1.657-3.746,6.729-4.061,8.818h0a17.853,17.853,0,0,1-1.658,4.508c2.32,0,8.718-.663,10.376-7.077a.547.547,0,0,1,1.044.265C280.954,80.875,273.429,81.439,271.159,81.439Z" transform="translate(158.962 41.427)"/><path class="g" d="M286.925,85.879a.514.514,0,0,1-.431-.232.53.53,0,0,1,.1-.746l1.227-.912a.564.564,0,0,1,.762.116.547.547,0,0,1-.116.762l-1.227.9a.464.464,0,0,1-.315.116Z" transform="translate(169.732 53.578)"/><path class="g" d="M274.093,74.177a.547.547,0,0,1-.448-.845c3.315-4.972,6.282-5.171,6.4-5.171a.54.54,0,0,1,.066,1.077s-2.652.265-5.569,4.691A.514.514,0,0,1,274.093,74.177Z" transform="translate(161.299 43.236)"/><path class="g" d="M289.217,89.013a.547.547,0,0,1-.547-.5,28.176,28.176,0,0,0-3.713-10.69.53.53,0,0,1,.215-.729.547.547,0,0,1,.729.2,28.327,28.327,0,0,1,3.845,11.138.53.53,0,0,1-.5.58Z" transform="translate(168.749 49.068)"/><path class="q" d="M301.413,65.561c-20.867-11.37-41.436-2.254-46.027,20.337-2.2,10.956-.249,23.071,4.74,33.944a2.735,2.735,0,0,0,.613,1.343,56.353,56.353,0,0,0,20.088,23.751,46.712,46.712,0,0,0,4.061,2.486,41.433,41.433,0,0,0,7.028,3.066c7.326,2.552,14.337,2.784,19.442.514.646-.215,1.26-.431,1.873-.68a.663.663,0,0,0,.249,0h0a.68.68,0,0,0,.547-.381c8.287-3.7,14.585-11.6,16.856-22.906C335.474,104.495,322.264,76.948,301.413,65.561Z" transform="translate(148.763 38.31)"/><path class="r" d="M316.3,95.939c2.5-7.342-.348-16.724-6.365-20.933a9.845,9.845,0,0,0-8.287-1.657h0a8.7,8.7,0,0,0-1.044.365L294.218,76.1h2.967a13.044,13.044,0,0,0-2.619,4.575c-2.486,7.342.365,16.707,6.381,20.933a11.453,11.453,0,0,0,3.762,1.657l.315,1.657,4.409-1.657a5.165,5.165,0,0,0,.713-.249h.083a11.088,11.088,0,0,0,6.066-7.077Z" transform="translate(174.521 46.452)"/><ellipse class="l" cx="11.569" cy="15.497" rx="11.569" ry="15.497" transform="translate(459.421 124.446) rotate(-12.85)"/><path class="e" d="M292.1,80.56l2.818,15.1a3.182,3.182,0,0,0,4.624,1.889l8.453-5.3c3.431-2.155.265-7.608-3.182-5.453l-8.453,5.37L301,94.035,298.161,78.9C297.416,74.925,291.349,76.6,292.1,80.56Z" transform="translate(173.445 48.803)"/><ellipse class="c" cx="19.375" cy="9.63" rx="19.375" ry="9.63" transform="translate(351.597 285.453) rotate(-1.02)"/><path class="g" d="M227.124,175.819l4.21-.53c2.834-1.276,4.144-2.238,5.4-1.508l.348.2c1.26.729,1.11,2.005-.348,2.834l-6.2,4.972a4.077,4.077,0,0,1-4.558-.431s-.7-.63-.2-3.315C226.063,176.548,225.963,176.482,227.124,175.819Z" transform="translate(129.772 112.509)"/><path class="b" d="M231.785,203.368c-.348,2.917-5.685,2.917-5.685.7l2.967-67.242,17.8-4.972Z" transform="translate(130.099 85.108)"/><path class="g" d="M238.4,178.79l4.177.779c3.083-.348,4.624-.862,5.6.215l.282.3c.961,1.077.431,2.238-1.21,2.6l-7.409,2.784a4.094,4.094,0,0,1-4.21-1.823s-.464-.8.812-3.149C237.174,179.138,237.091,179.138,238.4,178.79Z" transform="translate(136.312 115.968)"/><path class="b" d="M244.53,207.091c-.928,2.354-4.972,1.84-4.972-.1,1.906-23.287-2.486-45.3-8.138-66.712l17.1-1.84C249.221,163.484,248.956,184.964,244.53,207.091Z" transform="translate(133.597 89.441)"/><path class="g" d="M251.323,134.78l5.95,32.635s-14.768,14.635-31.674,0L227.49,136.8Z" transform="translate(129.771 87.034)"/><ellipse class="b" cx="5.445" cy="9.615" rx="5.445" ry="9.615" transform="translate(363.348 163.303) rotate(-7.481)"/><path class="b" d="M245.308,113.45c-1.276,4.425-6.033,6.033-8.818,3.133s-4.028-8.818-2.751-13.259,4.558-5.668,7.359-2.785S246.568,108.958,245.308,113.45Z" transform="translate(134.791 63.498)"/><path class="b" d="M235.112,121.391l-.464-.1a3,3,0,0,1-2.271-3.564l2.022-9.05a3,3,0,0,1,3.563-2.271l.464.116a2.983,2.983,0,0,1,2.271,3.563l-.613,8.95C239.736,120.695,236.77,121.755,235.112,121.391Z" transform="translate(134.181 68.336)"/><path class="g" d="M232.75,114.508s-.564,3.083,4.807,3.315c4.293.249,3.017-7.508,7.26-8.287,4.691-.762,5.536-6.63,3.7-8.768s-7.011-3.315-10.74-1.657S226.2,102.011,232.75,114.508Z" transform="translate(132.813 63.07)"/><path class="b" d="M240.572,107.649a2.022,2.022,0,1,1-.169-1.551A2.022,2.022,0,0,1,240.572,107.649Z" transform="translate(137.009 67.492)"/><path class="m" d="M226.707,152.3c1.508-8.287-.116-14.917,0-23.685,0-15.862-.762-19.74,7.624-17.32l2.37.613a16.823,16.823,0,0,1,3.315,1.276c11.055,5.7,14.005,7.458,13.525,14.072,0,10.873-4.972,13.094-2.32,22.624C248.917,157.419,229.226,157.651,226.707,152.3Z" transform="translate(130.487 71.158)"/><path class="s" d="M237.451,110.92l-.481-1.11a3.033,3.033,0,0,0,2.486.646A3.961,3.961,0,0,1,237.451,110.92Z" transform="translate(137.246 70.618)"/><ellipse class="g" cx="3.862" cy="4.492" rx="3.862" ry="4.492" transform="translate(362.1 164.384)"/><path class="g" d="M237.586,102.953a2.271,2.271,0,0,0-4.177-1.359,9.1,9.1,0,0,0-1.044,2.751c-1.558,6.912-13.177,5.917-7.475,18.049,0,0-5.188,7.972,4.442,11.337,4.972,1.657,4.84-10.989,4.84-10.989s1.956-5.851,3.862-10.442a8.5,8.5,0,0,0,0-6.63,5.321,5.321,0,0,1-.447-2.718Z" transform="translate(128.276 64.531)"/><path class="g" d="M233.367,110.772a1.309,1.309,0,0,0-1.657,1.508,3.613,3.613,0,0,0,2.685,2.917,13.259,13.259,0,0,0,6.878,0,.381.381,0,0,0,.1-.7,33.547,33.547,0,0,0-8.005-3.729Z" transform="translate(133.771 71.215)"/><path class="e" d="M257.307,132.469l-12.6-7.309,7.409-21.679,12.613,7.293Z" transform="translate(142.334 66.457)"/><path class="m" d="M236.85,122.6s10.856,26.37,22.69,13.657,7.674-21.663,7.674-21.663l-1.657-.431s-4.807,15.961-9.945,14.387-12.1-11.436-14.552-11.9S236.85,122.6,236.85,122.6Z" transform="translate(137.167 73.478)"/><path class="b" d="M255.822,118.032h0a2.072,2.072,0,0,1-2.072-2.072v-2.138a2.072,2.072,0,0,1,2.072-2.072h0a2.088,2.088,0,0,1,2.072,2.072v2.1a2.088,2.088,0,0,1-2.072,2.1Z" transform="translate(148.277 71.894)"/><path class="m" d="M251.746,109.509l-2.155-1.243a1.226,1.226,0,0,1-.514-1.359h0a.713.713,0,0,1,1.077-.464l2.155,1.243a1.26,1.26,0,0,1,.514,1.376h0a.713.713,0,0,1-1.077.448Z" transform="translate(145.176 68.333)"/><path class="f" d="M253.369,112.553l-3.315-1.873a.978.978,0,0,1-.4-1.094h0a.547.547,0,0,1,.845-.348l3.315,1.873a.945.945,0,0,1,.4,1.077h0a.564.564,0,0,1-.845.365Z" transform="translate(145.559 70.18)"/><path class="f" d="M255.465,116.112l-5.967-3.447a.978.978,0,0,1-.414-1.077h0a.564.564,0,0,1,.845-.365l5.967,3.447a.978.978,0,0,1,.414,1.077h0a.564.564,0,0,1-.845.365Z" transform="translate(145.187 71.493)"/><path class="f" d="M252.163,116.528l-3.315-1.873a.978.978,0,0,1-.414-1.077h0a.564.564,0,0,1,.845-.365l3.315,1.873a1.011,1.011,0,0,1,.4,1.094h0a.547.547,0,0,1-.829.348Z" transform="translate(144.76 72.801)"/><path class="m" d="M249.473,117.206l-2.238-1.276a.961.961,0,0,1-.4-1.094h0a.547.547,0,0,1,.845-.348l2.221,1.276a.994.994,0,0,1,.414,1.094h0a.564.564,0,0,1-.845.348Z" transform="translate(143.704 73.631)"/><ellipse class="h" cx="25.425" cy="34.524" rx="25.425" ry="34.524" transform="matrix(0.885, -0.465, 0.465, 0.885, 474.718, 169.102)"/><path class="g" d="M312.306,118.16A35.106,35.106,0,0,1,310.98,132.4,33.149,33.149,0,0,0,334.8,144.646s1.807-10.359,3.8-11.2l.166-1.061-3.68-3.481-3.8,6.63s-2.337,3.447-7.458-.3-5.867-4.972-5.768-7.425-.2-8.6-.2-8.6Z" transform="translate(185.902 76.108)"/><path class="g" d="M322.463,127.3h0a.448.448,0,0,1-.381-.514l.995-7.21a.464.464,0,0,1,.514-.4.448.448,0,0,1,.4.514l-.995,7.226A.464.464,0,0,1,322.463,127.3Z" transform="translate(193.198 76.777)"/><path class="g" d="M317.733,124.54h-.116a.464.464,0,0,1-.331-.564l1.823-6.762a.464.464,0,1,1,.9.232l-1.823,6.762a.464.464,0,0,1-.448.331Z" transform="translate(190.038 75.231)"/><path class="g" d="M317.4,114.861a.464.464,0,0,1-.3-.1,7.757,7.757,0,0,1-2.171-5.9c0-1.657.3-2.685,1.028-3.05a1.79,1.79,0,0,1,1.773.249.467.467,0,1,1-.564.746c-.116,0-.53-.315-.8-.182s-.564.431-.514,2.221a6.862,6.862,0,0,0,1.823,5.188.447.447,0,0,1,0,.646.431.431,0,0,1-.282.182Z" transform="translate(188.486 67.904)"/><path class="g" d="M336.132,140.919a.464.464,0,0,1-.464-.448,12.9,12.9,0,0,0-4.79-9.6c-6.63-5.751-8.171-9.066-8.287-9.2a.464.464,0,1,1,.829-.4h0s1.657,3.315,8.005,8.9a13.674,13.674,0,0,1,5.1,10.26.448.448,0,0,1-.448.481Z" transform="translate(193.485 77.945)"/><path class="g" d="M307.365,123.815h-.133a.464.464,0,0,1-.315-.58c1.442-4.492,4.409-6.215,8.818-5.1,7.028,1.757,9.481.746,9.5.746a.464.464,0,1,1,.381.829c-.1,0-2.668,1.177-10.094-.68-3.978-.994-6.414.431-7.707,4.492A.481.481,0,0,1,307.365,123.815Z" transform="translate(183.219 75.873)"/><path class="g" d="M311.281,132.228h-.133a.464.464,0,0,1-.365-.547l1.193-5.884a22.741,22.741,0,0,0,0-7.359.464.464,0,0,1,.365-.547.5.5,0,0,1,.547.381,23,23,0,0,1,0,7.707l-1.193,5.884a.464.464,0,0,1-.414.365Z" transform="translate(185.767 75.929)"/><path class="g" d="M325.541,139.419h-.083a.447.447,0,0,1-.365-.53l1.193-5.9a15.562,15.562,0,0,1,2.851-6.232.465.465,0,1,1,.713.6,14.618,14.618,0,0,0-2.652,5.818l-1.193,5.9A.48.48,0,0,1,325.541,139.419Z" transform="translate(195.175 81.65)"/><path class="g" d="M326.056,137.278a12.2,12.2,0,0,1-5.221-1.989c-4.309-2.354-6.182-5.453-5.735-9.447a28.707,28.707,0,0,0-.249-6.779.47.47,0,0,1,.928-.149,30.656,30.656,0,0,1,.232,7.028c-.4,3.6,1.326,6.381,5.271,8.536,2.519,1.376,4.16,2.188,5.5,1.773a4.028,4.028,0,0,0,2.2-2.2c1.856-3.464,3.133-5.6,3.149-5.619a.464.464,0,0,1,.63-.166.5.5,0,0,1,.166.646s-1.293,2.138-3.133,5.569a4.972,4.972,0,0,1-2.751,2.669A3.314,3.314,0,0,1,326.056,137.278Z" transform="translate(188.444 76.349)"/><path class="g" d="M334.171,144.734a.481.481,0,0,1-.464-.381,47.153,47.153,0,0,1,0-14.32,14.432,14.432,0,0,1-1.16,1.442,6.63,6.63,0,0,1-2.453,1.492c-3.928,1.525-9.033-1.21-11.6-6.249a21.448,21.448,0,0,1-1.657-4.028,29.3,29.3,0,0,1-.365-11.237,7.657,7.657,0,0,1,4.773-7.574c2.586-1.392,2.055-4.972,2.039-4.972a.481.481,0,0,1,.348-.53.464.464,0,0,1,.547.282,24.53,24.53,0,0,0,3.845,6.331l.961,1.11c3.315,3.779,8.735,10.077,6.779,18.016a49.724,49.724,0,0,0-1.193,20.121.464.464,0,0,1-.365.547Zm-9.945-43.905a4.972,4.972,0,0,1-2.519,3.862,6.729,6.729,0,0,0-4.276,6.812,28.508,28.508,0,0,0,.348,10.889,21.184,21.184,0,0,0,1.657,3.845c2.337,4.608,6.928,7.16,10.425,5.8a5.884,5.884,0,0,0,2.122-1.276,19.008,19.008,0,0,0,2.171-2.983c.232-1.276.514-2.619.845-4.011,1.84-7.475-3.431-13.558-6.63-17.188l-.978-1.127A26.934,26.934,0,0,1,324.226,100.829Z" transform="translate(189.263 63.092)"/><path class="g" d="M330.443,138.8a.464.464,0,0,1-.447-.365c-.133-.58-3.133-14.3-.1-23.2a.456.456,0,1,1,.862.3c-2.934,8.569.1,22.491.133,22.624a.464.464,0,0,1-.348.564Z" transform="translate(197.45 73.98)"/><path class="g" d="M336.513,124.207h-.1a.464.464,0,0,1-.348-.564c2.668-11.072-1.326-20.022-6.63-23.2-5.7-3.315-8.121-1.326-8.155-1.293a.464.464,0,0,1-.613-.7c.116-.1,2.9-2.5,9.232,1.193,5.635,3.315,9.945,12.613,7.11,24.132a.464.464,0,0,1-.5.431Z" transform="translate(192.175 62.585)"/><path class="g" d="M316.184,111.419h0a.464.464,0,0,1-.464-.464c0-13.11,5.237-13.492,5.8-13.475a3.994,3.994,0,0,1,2.934,1.657.447.447,0,0,1-.1.646.481.481,0,0,1-.646-.1h0a3.083,3.083,0,0,0-2.188-1.21h0c-.2,0-4.823.149-4.873,12.547A.448.448,0,0,1,316.184,111.419Z" transform="translate(189.019 62.512)"/><path class="g" d="M313.734,124.3a.448.448,0,0,1-.282-.1.464.464,0,0,1,0-.646c3.033-3.912,4.226-12.53,4.226-12.613a.468.468,0,0,1,.928.116c0,.365-1.243,8.95-4.425,13.061a.447.447,0,0,1-.447.182Z" transform="translate(187.441 71.096)"/><path class="g" d="M329.826,114.814a.464.464,0,0,1-.431-.3,20.8,20.8,0,0,0-4.21-6.514.447.447,0,0,1,0-.646.464.464,0,0,1,.663,0,21.148,21.148,0,0,1,4.409,6.845.447.447,0,0,1-.282.6Z" transform="translate(195.15 68.913)"/><path class="g" d="M326.516,111.762a.464.464,0,0,1-.3-.1c-.348-.315-.729-.613-1.111-.928a12.58,12.58,0,0,1-4.309-11.32.462.462,0,1,1,.912.149s-.978,6.514,3.961,10.442l1.144.945a.464.464,0,0,1,0,.663.448.448,0,0,1-.3.149Z" transform="translate(192.278 63.528)"/><path class="g" d="M309.078,125.591h-.116a.464.464,0,0,1-.348-.547c.53-2.188,2.552-3.447,4.326-4.541a13.805,13.805,0,0,0,2.47-1.807c1.757-1.84,3.895-9.646,3.928-9.729a.462.462,0,0,1,.9.232c-.1.331-2.238,8.138-4.16,10.144a13.539,13.539,0,0,1-2.652,1.939c-1.657,1.061-3.464,2.171-3.895,3.978a.481.481,0,0,1-.447.331Z" transform="translate(184.34 69.837)"/><path class="g" d="M324.763,133.226h-.083a15.331,15.331,0,0,1-8.818-4.823.481.481,0,0,1,0-.663.5.5,0,0,1,.663,0,14.636,14.636,0,0,0,8.287,4.492.513.513,0,0,1-.05.994Z" transform="translate(189.025 82.323)"/><ellipse class="g" cx="10.806" cy="14.486" rx="10.806" ry="14.486" transform="translate(527.952 168.972) rotate(-12.85)"/><path class="e" d="M335.341,107.771l6.066,13.011c.945,2.055,3.978.282,3.033-1.757L338.375,106C337.43,103.959,334.4,105.733,335.341,107.771Z" transform="translate(201.8 67.519)"/><path class="e" d="M343.917,107.385l-8.7,5.1a1.757,1.757,0,1,0,1.773,3.033l8.7-5.1a1.757,1.757,0,1,0-1.773-3.033Z" transform="translate(201.263 68.866)"/><path class="t" d="M187.965,93.717c.713,4.508-1.11,30.58-1.657,36.845a2.536,2.536,0,0,1-1.028,1.873v3.315h.166L194,144.434c1.525.912,1.657,2.271.331,3.017l-.365.215a5.9,5.9,0,0,1-5.221-.282l-8.967-5.254c-1.525-.912-1.74-1.276-1.442-3.762l.166-1.657a1.773,1.773,0,0,1,.63-1.21v-3.315a5.3,5.3,0,0,1-.663-1.409c-1.459-4.972-1.16-20.552-3.9-27.58.365,5.254-2.171,28.342-2.834,34.276a2.5,2.5,0,0,1-1.061,1.79l-.6,4.807.149.1,7.442,9.563c1.409,1.094,1.392,2.453,0,3.033l-.414.166a5.818,5.818,0,0,1-5.121-.928l-8.287-6.464c-1.392-1.094-1.575-1.475-.961-3.912l.365-1.657a1.757,1.757,0,0,1,.8-1.11l.365-4.044a4.475,4.475,0,0,1-.68-1.442c-1.442-5.271-.249-23.005-3.961-28.176a12.4,12.4,0,0,0-1.442-1.657l28.176-16.16A5.221,5.221,0,0,1,187.965,93.717Z" transform="translate(85.545 58.502)"/><path class="t" d="M163.012,108.966s-14.917-8.088-11.1-17.552,19.061,12.978,19.061,12.978Z" transform="translate(80.913 56.993)"/><path class="g" d="M177.951,101.277c-1.309,0-27.4,9.414-27.381-12.2s33.314,3.066,33.314,3.066Z" transform="translate(80.443 51.157)"/><path class="g" d="M191.528,124.957l-8.635-8.7a10.823,10.823,0,0,0-5.536-.8,1.657,1.657,0,0,0-1.492,1.558l-.149,1.657c-.3,2.5-.083,2.867,1.442,3.762l9.05,5.387a5.751,5.751,0,0,0,5.2.282l.381-.215C193.2,127.211,193.052,125.852,191.528,124.957Z" transform="translate(96.899 74.283)"/><path class="i" d="M176.19,119.4c0,2.569,6.232,2.569,6.232,0V111.11H176.19Z" transform="translate(97.287 71.473)"/><path class="g" d="M181.315,131.125l-7.409-9.679a10.707,10.707,0,0,0-5.42-1.475,1.657,1.657,0,0,0-1.657,1.359l-.365,1.657c-.613,2.436-.448,2.818.961,3.912l8.287,6.464a5.8,5.8,0,0,0,5.138.928l.4-.166C182.69,133.578,182.707,132.219,181.315,131.125Z" transform="translate(90.67 77.298)"/><path class="i" d="M167,123.861c-.315,2.536,5.867,3.315,6.182.779l1.044-8.287-6.182-.762Z" transform="translate(91.24 74.418)"/><path class="g" d="M173.757,81s19.293,9.945,20.1,14.917c.7,4.508,1.475,31.226,1.028,37.508a2.536,2.536,0,0,1-1.409,2.088c-1.906.912-5.354,1.906-6.514-1.989-1.657-5.486-1.061-24.248-4.972-29.618s-23.2-12.945-23.2-12.945Z" transform="translate(85.847 51.678)"/><path class="g" d="M165.241,86.43s21.547,10.757,22.226,15.646c.547,4.276-2.122,28.607-2.8,34.723a2.569,2.569,0,0,1-1.657,2.072c-1.956.779-5.353,1.508-6.348-2.155-1.442-5.254-.249-23.005-3.978-28.176-2.005-2.834-7.193-6.033-16.044-10.21-4.044-1.906-6.945-9.945-2.022-10.492Z" transform="translate(81.401 55.248)"/><path class="b" d="M173.591,63l4.11,15.779c.348,1.873.994,4.608,1.459,7.823a18.779,18.779,0,0,1-3.779,14.154A84.528,84.528,0,0,0,172.464,89.4a122.29,122.29,0,0,1-4.624-14.154C167.84,74.751,173.591,63,173.591,63Z" transform="translate(91.797 39.844)"/><path class="f" d="M168.093,56.48l9.679,16.574a12.381,12.381,0,0,1-7.807,9.381L166.9,61.966Z" transform="translate(91.179 35.557)"/><path class="u" d="M176.2,65.3s-1.558,4.591-10.243,7.574" transform="translate(90.561 41.356)"/><path class="f" d="M183.155,97.759c-1.492-8.171-1.177-13.259.182-24.464,0-15.646-4.757-21.464-14.619-17.867L164.642,56.5c-11.884,6.414-17.917,6.083-15.8,18.679l2.088,27.58C150.935,116.968,183.9,114.465,183.155,97.759Z" transform="translate(79.034 34.19)"/><path class="g" d="M165.244,61.1a8.519,8.519,0,0,1-2.337,1.657c-.8.149-9.249-6.63-6.182-14.337,1.939-4.856,11.1-1.044,11.1-1.044Z" transform="translate(84.051 28.636)"/><path class="b" d="M161.368,65.023h.464a2.95,2.95,0,0,0,3.4-2.42l1.525-9a2.95,2.95,0,0,0-2.4-3.315l-.481-.083a2.967,2.967,0,0,0-3.4,2.42l-2.735,8.436C157.473,62.653,159.843,64.807,161.368,65.023Z" transform="translate(85.142 31.407)"/><path class="s" d="M165.081,57.44a8.055,8.055,0,0,1-6.381-3.63s2.436,5.652,5.95,6.149Z" transform="translate(85.788 33.802)"/><ellipse class="b" cx="9.182" cy="5.204" rx="9.182" ry="5.204" transform="matrix(0.201, -0.98, 0.98, 0.201, 246.233, 89.998)"/><path class="b" d="M158.257,57.49c.895,4.309,5.287,6.166,8.155,3.613s4.442-8.121,3.547-12.414-3.945-5.718-6.8-3.166S157.345,53.2,158.257,57.49Z" transform="translate(85.386 27.52)"/><path class="g" d="M165.926,49.112s-.431,8.138-7.061,8.851c0,0-6.447-5.32.1-12.116,5.751-6,12.282.414,12.282.414Z" transform="translate(84.032 26.881)"/><path class="v" d="M169.6,51.411a7.707,7.707,0,0,0-6.066-3.646l2.784-2.685S169.812,45.047,169.6,51.411Z" transform="translate(88.964 28.063)"/><path class="g" d="M161.1,53.542c1.79-1.657,4.972-1.044,9.331,1.541,4.21.978,5.635-3.8,5.635-3.8,1.11-2.486-.414-3.961-2.9-5.072L166.7,43.3a7.326,7.326,0,0,0-9.016,3.315l-.249.4C156.311,49.531,158.565,52.432,161.1,53.542Z" transform="translate(84.763 26.578)"/><path class="b" d="M157.467,53.743a1.923,1.923,0,1,0,.269-1.454A1.923,1.923,0,0,0,157.467,53.743Z" transform="translate(84.949 32.228)"/><path class="e" d="M166.533,56.125s3.315,4.558-1.343,6.514c-7.293,3.116-9.563-5.155-8.42-5.635l2.3-1.193a3.116,3.116,0,0,0,.729,4.226c1.657,1.459,4.807,1.757,6.133-.5Z" transform="translate(84.336 35.117)"/><path class="f" d="M157.009,65.8V92.584l-4.939-2.9Z" transform="translate(81.429 41.685)"/><path class="f" d="M158.27,92.374l2.271-.812.282-.265.166-.315,17.221-8.95a.945.945,0,0,1,.762,0l6.63,3.862v-.116l1.243.5v.514h0a.3.3,0,0,1-.149.133l-17.9,9.315h0c-.381,1.376-.994,2.6-2.171,1.889l-7.276-4.293a1.657,1.657,0,0,1-.912-1.558Z" transform="translate(85.505 52.303)"/><path class="i" d="M168,97.965l20.635-10.69c.232-.133.232-.348,0-.5l-8.751-5.138a1.027,1.027,0,0,0-.878,0L158.349,92.247c-.232.133-.232.348,0,.5l8.751,5.138a1.077,1.077,0,0,0,.9.083Z" transform="translate(85.443 52.033)"/><path class="f" d="M164.687,88.861l4.972-2.6v-.116L167.538,84.9a.249.249,0,0,0-.215,0l-4.972,2.586V87.6l2.122,1.243A.2.2,0,0,0,164.687,88.861Z" transform="translate(88.188 54.225)"/><path class="e" d="M166.548,88.848a2.42,2.42,0,0,1,1.028-1.293L188.045,77.08a.481.481,0,0,1,.431,0h.1l.564.63h-.58l-3.066,11.337a2.3,2.3,0,0,1-1.044,1.193l-19.359,9.945-.663.63-.083.166a3.556,3.556,0,0,1-1.193-.53Z" transform="translate(88.714 49.067)"/><path class="h" d="M164.218,101.222s21.364-11.287,21.547-11.784l3.1-11.453c.133-.5-.116-.7-.547-.481L167.848,88a2.321,2.321,0,0,0-1.044,1.293l-3.1,11.453C163.572,101.239,163.82,101.454,164.218,101.222Z" transform="translate(89.055 49.323)"/><path class="e" d="M171.011,85.949c-.166.6.4.729,1.26.3a3.911,3.911,0,0,0,1.856-1.906c.166-.6-.4-.746-1.26-.3a3.845,3.845,0,0,0-1.856,1.906Z" transform="translate(93.863 53.507)"/><path class="b" d="M158.557,65.8l-2.7,24c-.116,1.293,19.624,7.608,19.624,7.608l-1.657,6.961L153.635,99.28c-5.337-2.238-5.2-6.315-5.138-9.663l.381-20.8Z" transform="translate(79.069 41.685)"/><path class="f" d="M160.853,72.748,159.2,90.532c-.5,1.475-13.79-1.558-13.259-3.762,0-.381,1.459-21.7,7.425-26.519C158.151,56.256,162.03,64.543,160.853,72.748Z" transform="translate(77.387 37.356)"/><path class="u" d="M158.8,76.69s-5.5,1.425-12.315-3.58" transform="translate(77.761 46.49)"/><ellipse class="c" cx="23.37" cy="35.718" rx="23.37" ry="35.718" transform="translate(412.734 276.014) rotate(-19.93)"/><path class="g" d="M319.843,228.017l-4.641,9.994L293.44,207.034l4.641-9.994Z" transform="translate(174.371 127.966)"/><path class="g" d="M309.936,206.69c4.624-.779,7.061,2.155,5.42,6.63a16.326,16.326,0,0,1-11.353,9.4c-4.624.779-7.061-2.155-5.42-6.63a16.293,16.293,0,0,1,11.353-9.4Z" transform="translate(177.416 134.228)"/><path class="g" d="M325.063,257.049l-26.4-36.43,16.326-12.829,26.585,36.646Z" transform="translate(177.803 135.034)"/><path class="g" d="M326.027,228.88c4.624-.779,7.061,2.155,5.42,6.63a16.292,16.292,0,0,1-11.353,9.4c-4.624.779-7.061-2.155-5.42-6.63A16.342,16.342,0,0,1,326.027,228.88Z" transform="translate(187.994 148.817)"/><path class="g" d="M335.573,271.4l-26.4-36.43L325.5,222.14l26.585,36.646Z" transform="translate(184.712 144.468)"/><path class="g" d="M336.536,243.23c4.624-.779,7.061,2.155,5.42,6.63a16.293,16.293,0,0,1-11.353,9.4c-4.624.779-7.061-2.155-5.42-6.63a16.342,16.342,0,0,1,11.353-9.4Z" transform="translate(194.903 158.251)"/><path class="e" d="M285.092,173.908l-7.425,21.547c-.381,1.11-1.657,1.127-2.751,0h0a4.359,4.359,0,0,1-1.359-3.978l7.425-21.547c.381-1.11,1.657-1.11,2.751,0h0a4.359,4.359,0,0,1,1.359,3.978Z" transform="translate(161.255 109.596)"/><path class="e" d="M289.6,179.466l-7.425,21.547c-.381,1.11-1.657,1.11-2.735,0h0a4.326,4.326,0,0,1-1.359-3.978l7.425-21.547c.381-1.094,1.657-1.11,2.735,0h0a4.342,4.342,0,0,1,1.359,3.978Z" transform="translate(164.226 113.254)"/><path class="g" d="M297.61,163.121c-16.425-7.276-30.265,2.221-30.911,21.215s12.132,40.292,28.558,47.585,30.265-2.221,30.911-21.215S314.036,170.413,297.61,163.121Zm24.083,45.6c-.547,16.143-12.3,24.2-26.254,18.016s-24.862-24.281-24.265-40.408,12.315-24.215,26.27-18.016S322.257,192.59,321.693,208.717Z" transform="translate(156.775 104.058)"/><path class="w" d="M325.1,200.985a8.132,8.132,0,0,0-.182-1.227v-.215l-.1-.58a3.384,3.384,0,0,0-.133-.713,3.315,3.315,0,0,0-.083-.4,2.658,2.658,0,0,0-.133-.63l-.1-.5-.149-.58-.149-.63a.435.435,0,0,0-.083-.315,4.166,4.166,0,0,1-.215-.829l-.149-.547v-.149c-.133-.5-.3-.978-.447-1.475h0v-.133l-.448-1.309v-.2l-.182-.5c-.083-.232-.166-.464-.265-.7a4.17,4.17,0,0,1-.166-.431l-.215-.547-.149-.381-.348-.779c0-.149-.116-.282-.166-.431a.331.331,0,0,1,0-.133c-.2-.464-.414-.912-.63-1.359h0l-.2-.381-.5-1.028v-.166l-.447-.829-.348-.68-.083-.116c-.4-.713-.812-1.425-1.226-2.122a.68.68,0,0,0-.116-.182c-.1-.182-.215-.348-.331-.53s-.348-.58-.547-.862-.332-.5-.5-.746l-.564-.829-.182-.265-.464-.646c-.116-.149-.215-.3-.332-.431-.331-.464-.68-.912-1.028-1.359h0c-.414-.514-.812-1.011-1.226-1.492h0L311.6,171.6l-.182-.215h0l-1.144-1.21h0l-.348-.348-.729-.729-.149-.133-.5-.464-.547-.514-.215-.182-.547-.481-.481-.414-.282-.215-.6-.5-.414-.331-.332-.249-.613-.448-.365-.282-.414-.282-.6-.414-.3-.215-.514-.315-.564-.365-.232-.133c-.215-.149-.447-.265-.68-.4l-.481-.282h-.116c-.414-.232-.845-.464-1.26-.663h-.1l-1.144-.564-.829-.447-.945-.4-.348-.133-.5-.2-.381-.133-.6-.2-.431-.149h-.166l-1.193-.331h0a11.76,11.76,0,0,0-1.193-.3h-.6l-.613-.116h-.3l-.53-.083H284.4l-.762.083h-.215l-.845.133h-.1l-.63.133-.4.1h-.3c-.348.083-.713.2-1.061.315h0l-.282.1-.862.331-.414.182-.547.232h-.133l-.812.431a2.834,2.834,0,0,0-.381.215c-.4.232-.779.464-1.16.729l-6.116,4.26,1.144-.729.4-.215c.265-.149.53-.3.812-.431l.68-.315.4-.182.878-.315a1.406,1.406,0,0,1,.282-.1,10.544,10.544,0,0,1,1.094-.331h.3l1.011-.215h.116l1.044-.166.779-.083h3.895l.845.1h.53l.912.166.431.083a5.954,5.954,0,0,1,1.359.315h0c.464.116.912.249,1.376.4l.431.149.978.348.481.182,1.309.547,1.442.68h.1l1.392.729.464.282.928.547.547.348.829.547.6.414c.265.166.514.365.779.547l.6.448.762.6.6.481.746.63.564.481.762.7.5.481.862.845.365.348,1.193,1.276.182.2.978,1.111c.414.5.829.978,1.227,1.475h0l1.044,1.359.315.431.663.928.564.829.5.746.547.845.431.713c.431.7.845,1.409,1.243,2.122l.431.8c.149.282.3.564.431.845s.4.779.6,1.177a4.232,4.232,0,0,1,.182.4c.249.514.5,1.028.713,1.558a1.135,1.135,0,0,0,.182.414l.5,1.177a1.555,1.555,0,0,0,.215.53c.083.182.282.762.431,1.144a4.045,4.045,0,0,1,.166.481c.182.514.365,1.011.53,1.525a.316.316,0,0,0,0,.116c.182.547.348,1.094.5,1.657a2.121,2.121,0,0,0,.149.53c.05.182.215.762.315,1.144l.149.63.249,1.077a2.847,2.847,0,0,0,.133.63c.05.215.149.746.215,1.11l.1.58c.083.481.149.978.215,1.459a.843.843,0,0,1,0,.215c0,.547.133,1.11.182,1.657v.481a5.707,5.707,0,0,0,.083,1.177,1.282,1.282,0,0,1,0,.58v3.331a9.1,9.1,0,0,1-.1,1.657v.464a4.2,4.2,0,0,1-.116,1.094c-.116.365,0,.431-.083.63a6.229,6.229,0,0,0-.133.928c-.05.3-.083.448-.133.663s-.1.564-.166.829-.1.5-.166.746-.116.481-.182.729l-.249.845-.2.663-.348.978c-.083.215-.149.414-.232.613s0,.215-.116.315l-.448.994-.083.2c-.2.414-.4.812-.613,1.193h0c-.215.381-.448.762-.68,1.127l-.133.215-.547.812-.232.315c-.182.232-.348.464-.547.7l-.2.265c-.265.3-.514.6-.779.878l-.116.116c-.232.249-.481.481-.713.713l-.282.249-.63.547-.265.215-.912.7,6.149-4.392c.315-.215.613-.448.912-.68l.282-.232c.215-.166.414-.348.63-.547l.265-.232c.249-.232.481-.464.713-.713a.767.767,0,0,1,.116-.116c.265-.282.53-.58.779-.878s.149-.182.215-.265l.53-.7.232-.315.547-.812.149-.215h0c.215-.348.431-.713.63-1.077h0c.2-.365.4-.746.58-1.127v-.083a.614.614,0,0,0,.083-.182,11.024,11.024,0,0,0,.447-1.011,2.228,2.228,0,0,0,.116-.3l.1-.215a1.25,1.25,0,0,1,.133-.4,10.08,10.08,0,0,0,.348-.994l.1-.265a.514.514,0,0,1,.116-.381,3.552,3.552,0,0,0,.232-.845l.1-.348a3.321,3.321,0,0,0,.083-.4,18.421,18.421,0,0,0,.265-1.111q0-.224,0-.448c0-.149.083-.448.116-.68a2.937,2.937,0,0,1,0-.331c0-.182,0-.381,0-.58a1.7,1.7,0,0,1,.083-.63,1.277,1.277,0,0,0,0-.249,3.1,3.1,0,0,1,.083-.862v-.564a8.713,8.713,0,0,1,.083-1.459V204.6a2.954,2.954,0,0,0,0-.381c0-.265,0-.547,0-.812v-.464a.563.563,0,0,1,0-.166,11.483,11.483,0,0,0-.166-1.475h0S325.1,201.068,325.1,200.985Z" transform="translate(158.553 102.806)"/><path class="d" d="M295.472,162.922c-7.989-3.547-15.746-3.315-21.828.414-6.63,4.127-10.376,11.867-10.724,21.828-.663,19.409,12.464,41.237,29.254,48.7a26.171,26.171,0,0,0,14.088,2.354,19.209,19.209,0,0,0,7.757-2.768c6.63-4.127,10.376-11.867,10.724-21.828C325.4,192.209,312.278,170.364,295.472,162.922Zm22.442,46.624c-.265,7.724-3.133,13.674-8.088,16.79-4.541,2.834-10.409,2.917-16.574.2-13.475-6-24.049-23.7-23.552-39.3.265-7.724,3.149-13.674,8.088-16.79a14.5,14.5,0,0,1,5.735-2.039,20.2,20.2,0,0,1,10.806,1.84C307.819,176.314,318.46,193.883,317.913,209.546Z" transform="translate(154.29 103.875)"/><path class="f" d="M308.059,218.546l-5.884,16.69c-.829,1.293-12.878-4.807-11.851-6.8.182-.348,6.63-20.5,13.492-23.751C309.335,202.038,311.076,210.955,308.059,218.546Z" transform="translate(172.282 132.681)"/><path class="b" d="M308.951,212.443h-.481a2.917,2.917,0,0,1-2.718-3.083l.564-9.033a2.934,2.934,0,0,1,3.1-2.735h.464a2.934,2.934,0,0,1,2.735,3.1l.729,8.751C313.244,211.05,310.542,212.542,308.951,212.443Z" transform="translate(182.462 128.326)"/><ellipse class="b" cx="5.155" cy="9.099" rx="5.155" ry="9.099" transform="matrix(0.999, -0.04, 0.04, 0.999, 489.012, 315.016)"/><path class="v" d="M310.416,195.482s1.508,7.923-4.691,10.193c0,0-7.458-3.6-2.784-11.685,4.11-7.127,11.917-2.519,11.917-2.519Z" transform="translate(179.605 123.342)"/><path class="v" d="M314.96,196.249a7.624,7.624,0,0,0-6.63-2.072l2.039-3.315S313.65,190.084,314.96,196.249Z" transform="translate(184.16 123.884)"/><path class="m" d="M307.083,200.735c1.326-2.088,4.575-2.188,9.348-.746,4.293,0,4.508-4.972,4.508-4.972.5-2.652-1.326-3.7-3.978-4.177l-6.911-1.26a7.276,7.276,0,0,0-7.889,5.353l-.149.448C301.53,198.017,304.431,200.254,307.083,200.735Z" transform="translate(179.971 123.028)"/><path class="c" d="M302.247,288.446c7.094,3.779,19.127,3.895,26.917.282s8.287-9.613,1.26-13.392-19.127-3.895-26.9-.265S295.153,284.683,302.247,288.446Z" transform="translate(176.901 177.526)"/><path class="g" d="M324.9,279.881l-7.591,6.348c-1.923,1.293-3.182.4-4.79,0a1.657,1.657,0,0,1-1.227-1.558v-1.657c-.083-2.287,2.039-3.646,3.5-4.342l7.757-4.276C324.07,273.8,328.827,276.3,324.9,279.881Z" transform="translate(186.105 178.764)"/><path class="g" d="M305.524,272.8l2.122,9.663c.713,5.072-7.376,5.9-7.79.414L299.69,272.4C299.74,270.78,304.165,267.664,305.524,272.8Z" transform="translate(178.48 175.915)"/><path class="i" d="M317.422,281.454c0,2.354-5.685,2.4-5.7,0V273.83h5.7Z" transform="translate(186.389 178.451)"/><path class="i" d="M306.1,278.641c0,2.354-5.718,2.354-5.718,0V271H306.1Z" transform="translate(178.933 176.59)"/><path class="g" d="M309.43,304.48c-2.238,1.657-5.95,1.558-7.177-.3-1.459-27.944-6.05-46.624-5.768-70.507l17.751-5.254C311.07,257.094,310.722,282.287,309.43,304.48Z" transform="translate(176.365 148.597)"/><path class="g" d="M323.11,305.471c-1.807,2.519-5.9,2.536-7.094.713L304.05,230.87h20.618Z" transform="translate(181.346 150.207)"/><path class="f" d="M296.055,248.182a94.159,94.159,0,0,0,.646-28.475c0-15.48,2.121-15.514,12.514-16.143l2.42-.149a17.3,17.3,0,0,1,8.6,1.658c9.182,4.458,13.624,5.5,11.751,16.574l-2.055,27.331C329.933,263.016,295.309,264.723,296.055,248.182Z" transform="translate(176.082 132.133)"/><path class="d" d="M313.05,217.22l5.072,21.1.613,2.055.746-10.16Z" transform="translate(187.263 141.233)"/><path class="m" d="M305.256,206.809c1.89,3.928,6.63,4.674,8.7,1.541s4.972-9.365,3.182-13.259-12.945-3.713-15.083-.58S303.383,202.815,305.256,206.809Z" transform="translate(179.593 124.761)"/><path class="b" d="M318,226.681a13.823,13.823,0,0,0,12.6,10.458s3.8-1.193,1.26-5.238-6.083-9.762-6.083-9.762Z" transform="translate(190.518 144.468)"/><path class="f" d="M313.1,220.836l5.884,16.69c.829,1.293,12.878-4.807,11.851-6.8-.182-.348-6.63-20.5-13.492-23.751C311.745,204.328,310,213.228,313.1,220.836Z" transform="translate(186.298 134.187)"/><line class="x" x1="80.949" y2="16.806" transform="translate(94.971 196.688)"/><line class="x" x1="89.319" y2="63.314" transform="translate(109.954 228.395)"/><line class="x" x1="58.673" y2="26.635" transform="translate(126.363 213.826)"/><path class="h" d="M175.481,239.273,157.15,228.7l18.215-10.508L193.7,228.764Z" transform="translate(84.769 141.871)"/><path class="h" d="M158.011,249.4,139.68,238.825,157.9,228.3l18.315,10.574Z" transform="translate(73.284 148.518)"/><path class="h" d="M140.881,259.369,122.55,248.778l18.215-10.508L159.1,248.844Z" transform="translate(62.022 155.072)"/><path class="h" d="M122.721,270.029,104.39,259.455l18.215-10.525L140.936,259.5Z" transform="translate(50.083 162.081)"/><path class="h" d="M105.231,281.749,86.9,271.158l18.215-10.508,18.331,10.574Z" transform="translate(38.584 169.786)"/><path class="f" d="M124.206,193.17l-8.536,4.989L179.5,235.02l8.586-4.956Z" transform="translate(57.499 125.422)"/><path class="f" d="M98.27,208.329l64.623,37.309,8.586-4.956L106.806,203.34Z" transform="translate(46.059 132.108)"/><path class="f" d="M80.78,218.549l63.894,36.894,8.586-4.956L89.316,213.56Z" transform="translate(34.561 138.827)"/><path class="f" d="M61.9,229.589l67.159,38.767,8.586-4.956L70.436,224.6Z" transform="translate(22.149 146.085)"/><path class="f" d="M43.12,240.559l69.3,40.01L121,275.614,51.656,235.57Z" transform="translate(9.802 153.297)"/><ellipse class="c" cx="18.878" cy="9.381" rx="18.878" ry="9.381" transform="translate(55.368 398.474) rotate(-1.02)"/><path class="g" d="M48.172,243.1l4.425-.564c2.967-1.342,4.342-2.337,5.668-1.575l.365.215c1.326.762,1.16,2.088-.365,2.967l-6.5,5.171a4.309,4.309,0,0,1-4.79-.464s-.729-.646-.215-3.414C47.061,243.866,46.962,243.8,48.172,243.1Z" transform="translate(12.076 156.67)"/><path class="g" d="M60.456,248.45l4.392.812c3.215-.365,4.84-.9,5.867.232l.3.315c1.011,1.127.448,2.354-1.276,2.718l-7.773,2.934a4.26,4.26,0,0,1-4.409-1.906s-.5-.845.845-3.315C59.163,248.831,59.081,248.748,60.456,248.45Z" transform="translate(19.233 161.765)"/><path class="i" d="M63.247,251.953c0,2.2-5.387,2.2-5.387,0V244.76h5.387Z" transform="translate(19.492 159.339)"/><path class="g" d="M67.891,275.774c-1.757,2.5-5.619,2.519-6.713.713L51.83,201.62H71.272Z" transform="translate(15.528 130.977)"/><path class="i" d="M52.181,245.264c-.116,2.006-5.5,2.006-5.37,0l.4-6.514H52.6Z" transform="translate(12.227 155.388)"/><path class="g" d="M53.543,266.8c-2.155,2.221-6.381,1.276-7.193-.331L49.2,201.58l13.541,2.006Z" transform="translate(11.925 130.951)"/><ellipse class="y" cx="5.726" cy="10.095" rx="5.726" ry="10.095" transform="translate(67.73 268.919) rotate(-7.481)"/><path class="y" d="M67.253,177.625c-1.326,4.657-6.315,6.331-9.248,3.315s-4.226-9.265-2.884-13.922,4.79-5.95,7.724-2.917S68.529,172.967,67.253,177.625Z" transform="translate(17.343 105.233)"/><path class="b" d="M56.6,185.98l-.5-.116a3.149,3.149,0,0,1-2.387-3.746l2.171-9.5a3.133,3.133,0,0,1,3.746-2.37l.5.1A3.149,3.149,0,0,1,62.52,174.1l-.7,9.431C61.393,185.2,58.277,186.344,56.6,185.98Z" transform="translate(16.722 110.304)"/><path class="g" d="M52.318,178.724s.514,4.392,6.729,3.514c4.475-.63,3.166-7.906,7.641-8.635,4.972-.8,5.8-6.862,3.862-9.2s-7.342-3.547-11.271-1.807S49.335,164.271,52.318,178.724Z" transform="translate(15.322 104.78)"/><path class="y" d="M62.352,171.556a2.138,2.138,0,1,1-.717-2.268A2.138,2.138,0,0,1,62.352,171.556Z" transform="translate(19.691 109.413)"/><path class="l" d="M47.737,218.429c1.657-8.718-.116-15.6,0-24.862,0-16.574-.8-20.734,8.005-18.232l2.486.663a16.887,16.887,0,0,1,3.431,1.326c11.6,5.983,14.718,7.823,14.2,14.768,0,11.436-1.657,24.248-1.873,29.834C71.621,229.915,50.389,224.081,47.737,218.429Z" transform="translate(12.825 113.256)"/><path class="s" d="M59.024,174.98l-.514-1.16a3.315,3.315,0,0,0,2.619.68A4.044,4.044,0,0,1,59.024,174.98Z" transform="translate(19.92 112.701)"/><path class="b" d="M82.1,194.3l-1.475-1.757A3.215,3.215,0,0,1,81,188.02h0a3.215,3.215,0,0,1,4.525.381l1.492,1.757a3.315,3.315,0,0,1-.4,4.525h0A3.215,3.215,0,0,1,82.1,194.3Z" transform="translate(33.959 121.539)"/><path class="i" d="M89.34,221.841l14.154,11.171-.978-16.972Z" transform="translate(40.189 140.458)"/><path class="g" d="M95.37,225.312l4.16,3.315-.348-5.867C98.851,225.511,97.525,226.274,95.37,225.312Z" transform="translate(44.153 144.876)"/><circle class="h" cx="7.591" cy="7.591" r="7.591" transform="translate(127.201 364.424) rotate(-87.36)"/><path class="h" d="M116.08,238.615,76.649,174.34,65.13,184.2l33.447,54.115Z" transform="translate(24.272 113.043)"/><path class="g" d="M110.435,240.679a7.393,7.393,0,0,1-1.077-1.541h0L74.552,181.79l-8.072,1.094,36.911,59.668h0a7.393,7.393,0,0,0,1.077,1.541,7.591,7.591,0,0,0,9.3,1.525Z" transform="translate(25.16 117.94)"/><path class="i" d="M78.72,177.662h0L76.35,173.9l-2.005,1.74a9.447,9.447,0,0,0-8.536,7.425l-.878.762,1.127,2.138h0a4.392,4.392,0,0,0,.63,1.028c1.989,2.4,6.215,2.171,9.447-.5S80.328,180.1,78.72,177.662Z" transform="translate(24.141 112.753)"/><path class="l" d="M77.813,175.762l-.149-.166h0l-2.619-3.746-3.066,2.5a9.945,9.945,0,0,0-6.1,4.972l-2.569,2.1,2.453,3.464a3.5,3.5,0,0,0,.348.514c1.989,2.387,6.215,2.171,9.447-.514S79.8,178.148,77.813,175.762Z" transform="translate(23.075 111.406)"/><ellipse class="l" cx="7.591" cy="5.635" rx="7.591" ry="5.635" transform="matrix(0.77, -0.638, 0.638, 0.77, 82.958, 288.785)"/><path class="b" d="M59.07,182.411s2.337,12.514,16.79,27.812c3.978,4.193,23.95,1.657,23.95,1.657v-3.912s-14.917,1.657-18.712-3.414C76.887,198.82,70.838,177.273,59.07,182.411Z" transform="translate(20.288 117.833)"/><path class="l" d="M61.932,192.411l7.16,15.282c.978,1.077,11.237-6.431,9.945-8.138-.215-.3-9.282-18.049-16.193-20.022C57.258,177.941,57.888,185.814,61.932,192.411Z" transform="translate(20.095 116.32)"/><path class="b" d="M87.5,203.551H85.2a3.215,3.215,0,0,1-3.2-3.232h0a3.2,3.2,0,0,1,3.215-3.2h2.3a3.315,3.315,0,0,1,3.2,3.232h0A3.315,3.315,0,0,1,87.5,203.551Z" transform="translate(35.363 128.019)"/><path class="z" d="M166.088,222.48l-.978,5.95,17.27-2.884" transform="translate(90.002 144.691)"/><path class="z" d="M148.478,232.87l-.978,5.95,17.27-2.884" transform="translate(78.425 151.522)"/><path class="z" d="M130.868,243.26l-.978,5.95,17.27-2.884" transform="translate(66.847 158.353)"/><path class="z" d="M113.258,253.65l-.978,5.95,17.27-2.884" transform="translate(55.27 165.184)"/><path class="z" d="M95.648,264.04l-.978,5.95,17.27-2.884" transform="translate(43.693 172.014)"/></g></g></g></svg>