<?xml version="1.0" encoding="utf-8"?>
<!-- Generator: Adobe Illustrator 22.0.1, SVG Export Plug-In . SVG Version: 6.00 Build 0)  -->
<svg version="1.1" id="Layer_1" xmlns="http://www.w3.org/2000/svg" xmlns:xlink="http://www.w3.org/1999/xlink" x="0px" y="0px"
	 width="666.5px" height="295px" viewBox="0 0 666.5 295" style="enable-background:new 0 0 666.5 295;" xml:space="preserve">
<style type="text/css">
	.st0{fill:#999999;}
	.st1{clip-path:url(#SVGID_2_);fill:#FFFFFF;}
	.st2{clip-path:url(#SVGID_2_);fill:#99A4AE;}
	.st3{clip-path:url(#SVGID_2_);fill:#999999;}
	.st4{clip-path:url(#SVGID_2_);fill:#333333;}
	.st5{clip-path:url(#SVGID_2_);fill:#CCCCCC;}
	.st6{clip-path:url(#SVGID_2_);fill:#A2DFFF;}
	.st7{clip-path:url(#SVGID_2_);fill:#6EBDFF;}
	.st8{clip-path:url(#SVGID_2_);fill:#E0F4FC;}
	.st9{clip-path:url(#SVGID_2_);fill:#0868AF;}
	.st10{clip-path:url(#SVGID_2_);fill:#9B58B5;}
	.st11{clip-path:url(#SVGID_2_);fill:#666666;}
	.st12{clip-path:url(#SVGID_2_);fill:#C5EDF9;}
	.st13{clip-path:url(#SVGID_2_);fill:#27AE61;}
	.st14{clip-path:url(#SVGID_2_);fill:#3598DB;}
	.st15{clip-path:url(#SVGID_2_);fill:#FFF871;}
	.st16{clip-path:url(#SVGID_2_);fill:#FFFDA4;}
	.st17{clip-path:url(#SVGID_2_);fill:#1977CC;}
	.st18{clip-path:url(#SVGID_2_);fill:#FFB527;}
	.st19{clip-path:url(#SVGID_2_);fill:#47485A;}
</style>
<g>
	<polygon class="st0" points="323.5,156.1 319.7,156.1 312.2,156.1 306.6,168.8 319.7,168.8 323.5,168.8 336.6,168.8 331,156.1 	"/>
	<g>
		<defs>
			<rect id="SVGID_1_" x="-0.1" y="0.2" width="656" height="296.8"/>
		</defs>
		<clipPath id="SVGID_2_">
			<use xlink:href="#SVGID_1_"  style="overflow:visible;"/>
		</clipPath>
		<path class="st1" d="M48.7,27.7c-12.2,0-22.2,10-22.2,22.2c0,12.2,10,22.2,22.2,22.2s22.2-10,22.2-22.2
			C70.9,37.6,61,27.7,48.7,27.7"/>
		<path class="st1" d="M328.1,28.1c-12.2,0-22.2,10-22.2,22.2c0,12.2,10,22.2,22.2,22.2c12.2,0,22.2-10,22.2-22.2
			C350.3,38,340.3,28.1,328.1,28.1"/>
		<path class="st1" d="M585.2,27.7c-12.2,0-22.2,10-22.2,22.2c0,12.2,10,22.2,22.2,22.2c12.2,0,22.2-10,22.2-22.2
			C607.4,37.6,597.4,27.7,585.2,27.7"/>
		<path class="st2" d="M332.6,155.4c-0.3-0.6-0.9-1-1.6-1h-7.5h-3.8h-7.5c-0.7,0-1.3,0.4-1.6,1l-5.6,12.7c-0.2,0.5-0.2,1.1,0.1,1.6
			c0.3,0.5,0.8,0.8,1.4,0.8h13.1h3.8h13.1c0.6,0,1.1-0.3,1.4-0.8c0.3-0.5,0.4-1.1,0.1-1.6L332.6,155.4z M323.5,168.8h-3.8h-13.1
			l5.6-12.7h7.5h3.8h7.5l5.6,12.7H323.5z"/>
		<path class="st3" d="M337,167.4h-30.8c-0.9,0-1.6,0.7-1.6,1.6v2.7h34V169C338.6,168.1,337.9,167.4,337,167.4"/>
		<path class="st4" d="M337,166.5h-30.8c-1.3,0-2.4,1.1-2.4,2.4v2.7c0,0.5,0.4,0.9,0.9,0.9h34c0.5,0,0.9-0.4,0.9-0.9V169
			C339.4,167.6,338.3,166.5,337,166.5 M337.7,170.9h-32.3V169c0-0.4,0.3-0.7,0.7-0.7H337c0.4,0,0.7,0.3,0.7,0.7V170.9z"/>
		<path class="st3" d="M353.7,109h-65.1c-1.3,0-2.4,1.1-2.4,2.4v4.8v35.4v4.8c0,1.3,1.1,2.4,2.4,2.4h65.1c1.3,0,2.4-1.1,2.4-2.4
			v-4.8v-35.4v-4.8C356.1,110.1,355.1,109,353.7,109"/>
		<path class="st4" d="M353.7,107.3h-65.1c-2.3,0-4.1,1.8-4.1,4.1v4.8v35.4v4.8c0,2.3,1.8,4.1,4.1,4.1h65.1c2.3,0,4.1-1.8,4.1-4.1
			v-4.8v-35.4v-4.8C357.8,109.1,356,107.3,353.7,107.3 M356.1,116.2v35.4v4.8c0,1.3-1.1,2.4-2.4,2.4h-65.1c-1.3,0-2.4-1.1-2.4-2.4
			v-4.8v-35.4v-4.8c0-1.3,1.1-2.4,2.4-2.4h65.1c1.3,0,2.4,1.1,2.4,2.4V116.2z"/>
		<rect x="291.5" y="112.9" class="st4" width="61.5" height="40.4"/>
		<path class="st4" d="M353,111.2h-61.5c-0.9,0-1.7,0.8-1.7,1.7v40.4c0,0.9,0.8,1.7,1.7,1.7H353c0.9,0,1.7-0.8,1.7-1.7v-40.4
			C354.7,112,354,111.2,353,111.2 M353,153.3h-61.5v-40.4H353V153.3z"/>
		<rect x="291.5" y="112.9" class="st5" width="61.5" height="5.2"/>
		<path class="st4" d="M353,111.2h-61.5c-0.9,0-1.7,0.8-1.7,1.7v5.2c0,0.9,0.8,1.7,1.7,1.7H353c0.9,0,1.7-0.8,1.7-1.7v-5.2
			C354.7,112,354,111.2,353,111.2 M353,118.1h-61.5v-5.2H353V118.1z"/>
		<path class="st4" d="M342.1,114.5c-0.6,0-1,0.5-1,1s0.5,1,1,1c0.6,0,1-0.5,1-1S342.6,114.5,342.1,114.5"/>
		<path class="st4" d="M347.2,114.5c-0.6,0-1,0.5-1,1s0.5,1,1,1c0.6,0,1-0.5,1-1S347.8,114.5,347.2,114.5"/>
		<path class="st4" d="M336.9,114.5c-0.6,0-1,0.5-1,1s0.5,1,1,1c0.6,0,1-0.5,1-1S337.5,114.5,336.9,114.5"/>
		<path class="st1" d="M338.9,123h-33.3c-0.5,0-0.9,0.4-0.9,0.9c0,0.5,0.4,0.9,0.9,0.9h33.3c0.5,0,0.9-0.4,0.9-0.9
			C339.8,123.4,339.4,123,338.9,123"/>
		<path class="st1" d="M308.6,127.9h-3c-0.5,0-0.9,0.4-0.9,0.9c0,0.5,0.4,0.9,0.9,0.9h3c0.5,0,0.9-0.4,0.9-0.9
			C309.4,128.3,309.1,127.9,308.6,127.9"/>
		<path class="st1" d="M338.9,127.9h-27.6c-0.5,0-0.9,0.4-0.9,0.9c0,0.5,0.4,0.9,0.9,0.9h27.6c0.5,0,0.9-0.4,0.9-0.9
			C339.8,128.3,339.4,127.9,338.9,127.9"/>
		<path class="st1" d="M308.6,132.9h-3c-0.5,0-0.9,0.4-0.9,0.9c0,0.5,0.4,0.9,0.9,0.9h3c0.5,0,0.9-0.4,0.9-0.9
			C309.4,133.3,309.1,132.9,308.6,132.9"/>
		<path class="st1" d="M338.9,132.9h-27.7c-0.5,0-0.9,0.4-0.9,0.9c0,0.5,0.4,0.9,0.9,0.9h27.7c0.5,0,0.9-0.4,0.9-0.9
			C339.8,133.3,339.4,132.9,338.9,132.9"/>
		<path class="st1" d="M308.6,137.9h-3c-0.5,0-0.9,0.4-0.9,0.9c0,0.5,0.4,0.9,0.9,0.9h3c0.5,0,0.9-0.4,0.9-0.9
			C309.4,138.3,309.1,137.9,308.6,137.9"/>
		<path class="st1" d="M338.9,137.9h-27.1c-0.5,0-0.9,0.4-0.9,0.9c0,0.5,0.4,0.9,0.9,0.9h27.1c0.5,0,0.9-0.4,0.9-0.9
			C339.8,138.3,339.4,137.9,338.9,137.9"/>
		<path class="st6" d="M315.7,147.8H310c-0.5,0-0.9,0.4-0.9,0.9c0,0.5,0.4,0.9,0.9,0.9h5.7c0.5,0,0.9-0.4,0.9-0.9
			C316.5,148.2,316.2,147.8,315.7,147.8"/>
		<path class="st7" d="M306.7,147.8h-1.1c-0.5,0-0.9,0.4-0.9,0.9c0,0.5,0.4,0.9,0.9,0.9h1.1c0.5,0,0.9-0.4,0.9-0.9
			C307.6,148.2,307.2,147.8,306.7,147.8"/>
		<path class="st8" d="M318.5,142.9h-3.9c-0.5,0-0.9,0.4-0.9,0.9c0,0.5,0.4,0.9,0.9,0.9h3.9c0.5,0,0.9-0.4,0.9-0.9
			C319.4,143.3,319,142.9,318.5,142.9"/>
		<path class="st7" d="M312.5,142.9h-0.8c-0.5,0-0.9,0.4-0.9,0.9c0,0.5,0.4,0.9,0.9,0.9h0.8c0.5,0,0.9-0.4,0.9-0.9
			C313.3,143.3,312.9,142.9,312.5,142.9"/>
		<path class="st8" d="M308.7,142.9h-3.1c-0.5,0-0.9,0.4-0.9,0.9c0,0.5,0.4,0.9,0.9,0.9h3.1c0.5,0,0.9-0.4,0.9-0.9
			C309.5,143.3,309.2,142.9,308.7,142.9"/>
		<path class="st1" d="M302.1,130.3c-0.3-0.3-0.9-0.3-1.2,0l-4.9,4.9c-0.3,0.3-0.3,0.9,0,1.2l4.9,4.9c0.2,0.2,0.4,0.2,0.6,0.2
			c0.2,0,0.4-0.1,0.6-0.2c0.3-0.3,0.3-0.9,0-1.2l-4.3-4.3l4.3-4.3C302.4,131.2,302.4,130.7,302.1,130.3"/>
		<path class="st1" d="M343.6,130.3c-0.3-0.3-0.9-0.3-1.2,0c-0.3,0.3-0.3,0.9,0,1.2l4.3,4.3l-4.3,4.3c-0.3,0.3-0.3,0.9,0,1.2
			c0.2,0.2,0.4,0.2,0.6,0.2c0.2,0,0.4-0.1,0.6-0.2l4.9-4.9c0.3-0.3,0.3-0.9,0-1.2L343.6,130.3z"/>
		<path class="st4" d="M217.2,179.6c-0.5,0-0.9,0.4-0.9,0.9v87.9c0,0.5,0.4,0.9,0.9,0.9c0.5,0,0.9-0.4,0.9-0.9v-87.9
			C218,179.9,217.6,179.6,217.2,179.6"/>
		<path class="st4" d="M228.9,179.6c-0.5,0-0.9,0.4-0.9,0.9v87.9c0,0.5,0.4,0.9,0.9,0.9c0.5,0,0.9-0.4,0.9-0.9v-87.9
			C229.8,179.9,229.4,179.6,228.9,179.6"/>
		<path class="st4" d="M417.3,179.6c-0.5,0-0.9,0.4-0.9,0.9v87.9c0,0.5,0.4,0.9,0.9,0.9c0.5,0,0.9-0.4,0.9-0.9v-87.9
			C418.1,179.9,417.8,179.6,417.3,179.6"/>
		<path class="st4" d="M429,179.6c-0.5,0-0.9,0.4-0.9,0.9v87.9c0,0.5,0.4,0.9,0.9,0.9c0.5,0,0.9-0.4,0.9-0.9v-87.9
			C429.9,179.9,429.5,179.6,429,179.6"/>
		<rect x="210.5" y="171.9" class="st1" width="233.8" height="8.5"/>
		<path class="st4" d="M444.2,171H210.5c-0.5,0-0.9,0.4-0.9,0.9v8.5c0,0.5,0.4,0.9,0.9,0.9h233.8c0.5,0,0.9-0.4,0.9-0.9v-8.5
			C445.1,171.4,444.7,171,444.2,171 M443.4,179.6H211.3v-6.8h232.1V179.6z"/>
		<path class="st9" d="M445.7,267.5H233.3c-0.5,0-0.9,0.4-0.9,0.9s0.4,0.9,0.9,0.9h212.4c0.5,0,0.9-0.4,0.9-0.9
			S446.2,267.5,445.7,267.5"/>
		<path class="st5" d="M218.6,278.1h-10.1c-0.5,0-0.9,0.4-0.9,0.9c0,0.5,0.4,0.9,0.9,0.9h10.1c0.5,0,0.9-0.4,0.9-0.9
			C219.4,278.5,219.1,278.1,218.6,278.1"/>
		<path class="st5" d="M337.4,278.1h-94.7c-0.5,0-0.9,0.4-0.9,0.9c0,0.5,0.4,0.9,0.9,0.9h94.7c0.5,0,0.9-0.4,0.9-0.9
			C338.2,278.5,337.9,278.1,337.4,278.1"/>
		<path class="st5" d="M441.1,288.8h-25.2c-0.5,0-0.9,0.4-0.9,0.9c0,0.5,0.4,0.9,0.9,0.9h25.2c0.5,0,0.9-0.4,0.9-0.9
			C442,289.1,441.6,288.8,441.1,288.8"/>
		<path class="st5" d="M401.2,288.8h-99c-0.5,0-0.9,0.4-0.9,0.9c0,0.5,0.4,0.9,0.9,0.9h99c0.5,0,0.9-0.4,0.9-0.9
			C402,289.1,401.6,288.8,401.2,288.8"/>
		<path class="st5" d="M290.3,288.8h-12.9c-0.5,0-0.9,0.4-0.9,0.9c0,0.5,0.4,0.9,0.9,0.9h12.9c0.5,0,0.9-0.4,0.9-0.9
			C291.1,289.1,290.7,288.8,290.3,288.8"/>
		<path class="st5" d="M645.8,278.1H536.6c-0.5,0-0.9,0.4-0.9,0.9c0,0.5,0.4,0.9,0.9,0.9h109.2c0.5,0,0.9-0.4,0.9-0.9
			C646.6,278.5,646.2,278.1,645.8,278.1"/>
		<path class="st5" d="M633.9,288.8h-25.2c-0.5,0-0.9,0.4-0.9,0.9c0,0.5,0.4,0.9,0.9,0.9h25.2c0.5,0,0.9-0.4,0.9-0.9
			C634.8,289.1,634.4,288.8,633.9,288.8"/>
		<path class="st5" d="M594,288.8h-99c-0.5,0-0.9,0.4-0.9,0.9c0,0.5,0.4,0.9,0.9,0.9h99c0.5,0,0.9-0.4,0.9-0.9
			C594.8,289.1,594.4,288.8,594,288.8"/>
		<path class="st5" d="M347.2,278.1h-35.2c-0.5,0-0.9,0.4-0.9,0.9c0,0.5,0.4,0.9,0.9,0.9h35.2c0.5,0,0.9-0.4,0.9-0.9
			C348,278.5,347.6,278.1,347.2,278.1"/>
		<path class="st5" d="M299.6,278.1h-12.9c-0.5,0-0.9,0.4-0.9,0.9c0,0.5,0.4,0.9,0.9,0.9h12.9c0.5,0,0.9-0.4,0.9-0.9
			C300.4,278.5,300,278.1,299.6,278.1"/>
		<path class="st5" d="M273.4,278.1h-45.5c-0.5,0-0.9,0.4-0.9,0.9c0,0.5,0.4,0.9,0.9,0.9h45.5c0.5,0,0.9-0.4,0.9-0.9
			C274.2,278.5,273.8,278.1,273.4,278.1"/>
		<path class="st5" d="M293.4,288.8h-39.5c-0.5,0-0.9,0.4-0.9,0.9c0,0.5,0.4,0.9,0.9,0.9h39.5c0.5,0,0.9-0.4,0.9-0.9
			C294.2,289.1,293.8,288.8,293.4,288.8"/>
		<path class="st5" d="M239.1,288.8h-18.8c-0.5,0-0.9,0.4-0.9,0.9c0,0.5,0.4,0.9,0.9,0.9h18.8c0.5,0,0.9-0.4,0.9-0.9
			C239.9,289.1,239.6,288.8,239.1,288.8"/>
		<path class="st1" d="M335.3,123.4c-0.3-1-1.5-1.4-2.3-0.9l-17.4,11.1l1.7,4.7l4.4-2l4-2.2C326.5,133.8,335.8,124.8,335.3,123.4"/>
		<path class="st4" d="M334.6,121.6c-0.7-0.3-1.5-0.2-2.1,0.2L315.1,133c-0.3,0.2-0.5,0.6-0.3,1l1.7,4.7c0.1,0.2,0.3,0.4,0.5,0.5
			c0.1,0,0.2,0.1,0.3,0.1c0.1,0,0.2,0,0.4-0.1l4.4-2c0,0,0,0,0.1,0l4-2.2l0,0c1.1-0.6,4.6-4.2,5.5-5.1c0.9-1,2.2-2.4,3.2-3.6
			c1.2-1.5,1.5-2.3,1.3-3C335.8,122.4,335.3,121.8,334.6,121.6 M325.3,133.3C325.3,133.3,325.3,133.3,325.3,133.3
			C325.3,133.3,325.3,133.3,325.3,133.3 M330.2,128.8c-2.3,2.4-4.4,4.3-4.9,4.6c0,0,0,0-0.1,0l-3.9,2.2l-3.5,1.6l-1.2-3.2l16.8-10.8
			c0.2-0.1,0.4-0.1,0.6-0.1c0.2,0.1,0.3,0.2,0.4,0.4C334.3,124,333.2,125.6,330.2,128.8 M334.5,123.7
			C334.5,123.7,334.5,123.7,334.5,123.7C334.5,123.7,334.5,123.7,334.5,123.7"/>
		<path class="st1" d="M327,127c-0.5-0.8-1.5-1-2.2-0.5l-8.2,5.1c-1.1,0.7-6.1,6.2-6.1,6.2l-0.6,3.6l4.3,2.3l7.4-7.4l-0.3-3.9
			l5.2-3.2C327.3,128.7,327.5,127.7,327,127"/>
		<path class="st4" d="M326.2,125.4c-0.6-0.2-1.3,0-1.9,0.3l-8.2,5.1c-1.2,0.7-5.4,5.5-6.3,6.4c-0.1,0.1-0.2,0.3-0.2,0.4l-0.6,3.6
			c-0.1,0.4,0.1,0.7,0.4,0.9l4.3,2.3c0.1,0.1,0.3,0.1,0.4,0.1c0.2,0,0.4-0.1,0.6-0.2l7.4-7.4c0.3-0.3,0.3-0.9,0-1.2
			c-0.3-0.3-0.9-0.3-1.2,0l-7,6.9l-3.2-1.7l0.5-2.8c1.9-2.1,5-5.5,5.7-5.9l8.2-5.1c0.2-0.1,0.4-0.1,0.6-0.1c0.2,0,0.4,0.2,0.5,0.3
			c0.2,0.4,0.1,0.8-0.2,1l-5.2,3.2c-0.4,0.2-0.5,0.8-0.3,1.2c0.2,0.4,0.8,0.5,1.2,0.3l5.2-3.2c1.2-0.7,1.5-2.2,0.8-3.4
			C327.4,126,326.9,125.6,326.2,125.4"/>
		<polygon class="st1" points="256.9,119.6 270.2,119.6 270.2,106.7 256.9,100.4 		"/>
		<path class="st4" d="M270.5,105.9l-13.3-6.3c-0.3-0.1-0.6-0.1-0.8,0c-0.2,0.2-0.4,0.4-0.4,0.7v19.3c0,0.5,0.4,0.9,0.9,0.9h13.3
			c0.5,0,0.9-0.4,0.9-0.9v-12.9C271,106.4,270.8,106.1,270.5,105.9 M269.3,118.8h-11.6v-17.1l11.6,5.5V118.8z"/>
		<path class="st7" d="M265.3,89.7h-1.1c-0.6,0-1.1,0.5-1.1,1.1c0,0.6,0.5,1.1,1.1,1.1h1.1c0.6,0,1.1-0.5,1.1-1.1
			C266.4,90.2,265.9,89.7,265.3,89.7"/>
		<path class="st7" d="M275.4,89.7h-1.1c-0.6,0-1.1,0.5-1.1,1.1c0,0.6,0.5,1.1,1.1,1.1h1.1c0.6,0,1.1-0.5,1.1-1.1
			C276.5,90.2,276,89.7,275.4,89.7"/>
		<path class="st7" d="M269.2,87.7h-5.4c-0.6,0-1.1,0.5-1.1,1.1c0,0.6,0.5,1.1,1.1,1.1h5.4c0.6,0,1.1-0.5,1.1-1.1
			C270.3,88.2,269.8,87.7,269.2,87.7"/>
		<path class="st1" d="M278.5,91.1v-6.1c0-4.8-3.7-8.6-8.6-8.6c-7.7,0-10.2,16.7-10.2,16.7l4.7,19.3c7.6,0,13.8-5.9,14.2-13.4
			l0.7-0.1c1.1-0.2,1.7-1.3,1.3-2.3L278.5,91.1z"/>
		<path class="st4" d="M281.3,96.3l-1.9-5.3v-5.9c0-5.3-4.2-9.5-9.5-9.5c-2,0-3.9,1-5.5,2.9c-1.2,1.5-2.3,3.5-3.3,6
			c-1.6,4.2-2.2,8.4-2.3,8.5c0,0.1,0,0.2,0,0.3l4.7,19.3c0.1,0.4,0.4,0.7,0.8,0.7c7.8,0,14.2-5.9,15-13.6l0,0
			c0.8-0.1,1.4-0.6,1.8-1.3C281.5,97.8,281.6,97,281.3,96.3L281.3,96.3z M279.7,97.7c-0.1,0.2-0.4,0.4-0.6,0.4l-0.7,0.1
			c-0.4,0.1-0.7,0.4-0.7,0.8c-0.4,6.9-5.9,12.3-12.6,12.6l-4.5-18.5c0.1-0.8,0.8-4.4,2.2-8c1.4-3.5,3.7-7.8,7.2-7.8
			c4.4,0,7.8,3.4,7.8,7.8v6.1c0,0.1,0,0.2,0.1,0.3l2,5.5v0C279.8,97.2,279.8,97.4,279.7,97.7"/>
		<path class="st10" d="M274.8,117.7h-17.6c-7.2,0-15,3.8-16,12.3L230,191.4h38.1l4.9-33.5c0,0,11.4-10.9,9.8-28.6
			C282.3,123.2,280,117.7,274.8,117.7"/>
		<path class="st4" d="M281.3,120.8c-1.6-2.6-3.8-3.9-6.5-3.9h-17.6c-4,0-7.8,1.1-10.8,3.1c-3.4,2.3-5.5,5.8-6,9.9l-11.2,61.3
			c0,0.2,0,0.5,0.2,0.7c0.2,0.2,0.4,0.3,0.7,0.3h38.1c0.4,0,0.8-0.3,0.8-0.7l4.9-33.2c0.7-0.7,3.2-3.4,5.4-7.7
			c1.6-2.9,2.8-6,3.5-9.2c1-4,1.3-8.1,0.9-12.2C283.4,125.8,282.6,122.9,281.3,120.8 M281.1,141c-0.7,3-1.9,6-3.4,8.8
			c-2.6,4.8-5.3,7.5-5.4,7.5c-0.1,0.1-0.2,0.3-0.3,0.5l-4.8,32.7H231l11-60.3c0,0,0,0,0-0.1c1-8,8.3-11.6,15.1-11.6h17.6
			c1.9,0,6.3,1.1,7.2,10.8C282.3,133.3,282.1,137.2,281.1,141"/>
		<path class="st10" d="M287.4,126c-1.7-5.8-5.8-8.7-12.6-8.3l0.7,22.2l8.1,19.9c0,0,4.2,11.8,12.1,11.9c5.8,0.1,8.2-3.7,10.9-10.2
			l-4-0.1L287.4,126z"/>
		<path class="st4" d="M306.7,160.6l-3.5-0.1l-15-34.9c-1.9-6.3-6.4-9.3-13.4-8.8c-0.5,0-0.8,0.4-0.8,0.9c0,0.5,0.4,0.8,0.9,0.8
			c6.2-0.4,10,2.1,11.7,7.7c0,0,0,0.1,0,0.1l15.3,35.4c0.1,0.3,0.4,0.5,0.8,0.5l2.8,0.1c-2.6,5.9-4.8,8.6-9.6,8.5
			c-7.2-0.2-11.3-11.3-11.3-11.4c0,0,0,0,0,0l-8.1-19.9c-0.2-0.4-0.7-0.6-1.1-0.5c-0.4,0.2-0.6,0.7-0.5,1.1l8.1,19.8
			c0.1,0.3,1.2,3.2,3.2,6.1c2.8,4.1,6.2,6.3,9.7,6.4c0.1,0,0.2,0,0.3,0c2.9,0,5.1-0.9,6.9-2.9c1.9-2,3.3-4.9,4.5-7.8
			c0.1-0.3,0.1-0.6-0.1-0.8C307.2,160.8,307,160.7,306.7,160.6"/>
		<path class="st10" d="M298.2,152.4l-2.4,19.3c7.6,0.7,12-8.4,12-8.4l12.6-22.6l-8.7-8.7L298.2,152.4z"/>
		<path class="st4" d="M312.3,131.5c-0.2-0.2-0.4-0.3-0.7-0.2c-0.3,0-0.5,0.2-0.6,0.4l-13.5,20.3c-0.3,0.4-0.2,0.9,0.2,1.2
			c0.4,0.3,0.9,0.2,1.2-0.2l12.9-19.4l7.5,7.5l-12.2,22c0,0,0,0,0,0c0,0-1.1,2.2-3.1,4.3c-2.5,2.7-5.3,3.9-8.1,3.6
			c-0.5,0-0.9,0.3-0.9,0.8c0,0.5,0.3,0.9,0.8,0.9c0.3,0,0.6,0,0.9,0c3,0,6-1.4,8.6-4.2c2-2.2,3.2-4.4,3.3-4.7l12.5-22.6
			c0.2-0.3,0.1-0.7-0.1-1L312.3,131.5z"/>
		<path class="st10" d="M292,263.7l-15.8-11.2l-9.8-0.3l0,6.4h0v9.7h3.8l0.4-5.1c1.6,0.7,3.7,1.6,6.1,2.3c4.8,1.5,5.6,2.7,15.6,2.7
			C294.6,268.4,294,264.9,292,263.7"/>
		<path class="st4" d="M292.5,263l-15.8-11.1c-0.1-0.1-0.3-0.1-0.5-0.2l-9.8-0.3c-0.2,0-0.5,0.1-0.6,0.2c-0.2,0.2-0.3,0.4-0.3,0.6
			l0,16.2c0,0.5,0.4,0.9,0.9,0.9h3.8c0.4,0,0.8-0.3,0.8-0.8l0.3-3.9c1.7,0.7,3.4,1.3,5.1,1.9c0.9,0.3,1.7,0.6,2.5,0.9
			c3,1.1,5.2,1.9,13.4,1.9c1.2,0,2-0.6,2.3-1.7C294.9,265.9,294,263.9,292.5,263 M292.9,267.1c-0.1,0.3-0.2,0.4-0.7,0.4
			c-7.9,0-9.9-0.7-12.8-1.8c-0.7-0.3-1.6-0.6-2.5-0.9c-2-0.7-4.1-1.4-6-2.3c-0.1,0-0.2-0.1-0.3-0.1c-0.2,0-0.3,0-0.4,0.1
			c-0.2,0.1-0.4,0.4-0.4,0.7l-0.3,4.3h-2.1l0-14.4l8.7,0.3l15.6,11c0,0,0,0,0.1,0C292.6,265,293.1,266.3,292.9,267.1"/>
		<path class="st1" d="M285.5,259.3l-9.3-6.7l8.7-46c0.9-5.4-1-12.4-9.5-12.4l-42.1-3.7c0,10.2,8.3,19.3,18.5,19.3h17l-2.3,42.6
			l0,3.2c0,0,11.9,6.2,18,6.2C286.8,261.6,287.6,260.5,285.5,259.3"/>
		<path class="st4" d="M286,258.6l-8.9-6.4l8.6-45.5c0,0,0,0,0,0c0.3-1.8,0.3-3.6-0.1-5.3c-0.4-1.9-1.1-3.6-2.2-4.9
			c-1.9-2.2-4.5-3.3-8-3.3l-42.1-3.7c-0.2,0-0.5,0.1-0.6,0.2c-0.2,0.2-0.3,0.4-0.3,0.6c0,2.6,0.5,5.2,1.5,7.6c1,2.4,2.4,4.5,4.1,6.4
			c3.7,3.9,8.6,6.1,13.7,6.1h16.1l-2.3,41.7c0,0,0,0,0,0l0,3.2c0,0.3,0.2,0.6,0.5,0.8c0.5,0.3,12.1,6.3,18.4,6.3
			c1.7,0,2.9-0.5,3.1-1.5C287.6,260.5,287.6,259.5,286,258.6 M284.4,260.7c-5.2,0-15-4.8-17.2-5.9l0-2.6l2.3-42.6
			c0-0.2-0.1-0.5-0.2-0.6c-0.2-0.2-0.4-0.3-0.6-0.3h-17c-4.7,0-9.1-2-12.5-5.5c-3.1-3.3-4.9-7.6-5.2-11.9l41.2,3.6c0,0,0,0,0.1,0
			c3,0,5.2,0.9,6.8,2.7c1.7,2,2.5,5.3,1.9,8.8l-8.7,46c-0.1,0.3,0.1,0.7,0.3,0.8l9.3,6.7c0,0,0.1,0,0.1,0c0.4,0.2,0.6,0.4,0.7,0.5
			C285.6,260.6,285.2,260.7,284.4,260.7 M285.9,260.6L285.9,260.6L285.9,260.6z"/>
		<path class="st10" d="M312.7,263.7l-15.8-11.2l-9.8-0.3l0,6.4v9.7h3.2l0.9-5.1c1.6,0.7,3.7,1.6,6.1,2.3c4.8,1.5,5.6,2.7,15.6,2.7
			C315.3,268.4,314.7,264.9,312.7,263.7"/>
		<path class="st4" d="M313.1,263l-15.8-11.1c-0.1-0.1-0.3-0.1-0.5-0.2l-9.8-0.3c-0.2,0-0.5,0.1-0.6,0.2c-0.2,0.2-0.3,0.4-0.3,0.6
			l0,16.2c0,0.5,0.4,0.9,0.9,0.9h3.2c0.4,0,0.8-0.3,0.8-0.7l0.7-4c1.7,0.7,3.5,1.4,5.2,1.9c0.9,0.3,1.7,0.6,2.5,0.9
			c3,1.1,5.2,1.9,13.4,1.9c1.2,0,2-0.6,2.3-1.7C315.6,265.9,314.7,263.9,313.1,263 M313.5,267.1c-0.1,0.3-0.2,0.4-0.7,0.4
			c-7.9,0-9.9-0.7-12.8-1.8c-0.7-0.3-1.6-0.6-2.5-0.9c-2-0.7-4.1-1.4-6-2.3c-0.1,0-0.2-0.1-0.3-0.1c-0.1,0-0.3,0-0.4,0.1
			c-0.2,0.1-0.4,0.3-0.4,0.6l-0.8,4.4h-1.7l0-14.4l8.7,0.3l15.6,11c0,0,0,0,0.1,0C313.2,265,313.7,266.3,313.5,267.1"/>
		<path class="st1" d="M306.2,259.3l-9.3-6.7l8.7-46c0.9-5.4-1-12.4-9.5-12.4l-63.6-3.7c0,10.2,8.3,19.3,18.5,19.3h38.5l-2.3,42.6
			l0,3.2c0,0,11.9,6.2,18,6.2C307.4,261.6,308.3,260.5,306.2,259.3"/>
		<path class="st4" d="M306.7,258.6l-8.9-6.4l8.6-45.5c0,0,0,0,0,0c0.3-1.8,0.3-3.6-0.1-5.3c-0.4-1.9-1.1-3.6-2.2-4.9
			c-1.9-2.2-4.6-3.3-8-3.3l-63.6-3.7c-0.2,0-0.5,0.1-0.6,0.2c-0.2,0.2-0.3,0.4-0.3,0.6c0,2.6,0.5,5.2,1.5,7.6c1,2.4,2.4,4.5,4.1,6.4
			c3.7,3.9,8.6,6.1,13.7,6.1h37.6l-2.3,41.7c0,0,0,0,0,0l0,3.2c0,0.3,0.2,0.6,0.5,0.8c0.5,0.3,12.1,6.3,18.4,6.3
			c1.7,0,2.9-0.5,3.1-1.5C308.3,260.5,308.3,259.5,306.7,258.6 M305.1,260.7c-5.2,0-15-4.8-17.2-5.9l0-2.6l2.3-42.6
			c0-0.2-0.1-0.5-0.2-0.6c-0.2-0.2-0.4-0.3-0.6-0.3h-38.5c-4.7,0-9.1-2-12.5-5.5c-3.1-3.3-4.9-7.6-5.2-12l62.7,3.6c0,0,0,0,0,0
			c3,0,5.2,0.9,6.8,2.7c1.7,2,2.5,5.3,1.9,8.8l-8.7,46c-0.1,0.3,0.1,0.7,0.3,0.8l9.3,6.7c0,0,0.1,0,0.1,0c0.4,0.2,0.6,0.4,0.7,0.5
			C306.3,260.6,305.8,260.7,305.1,260.7 M306.5,260.6L306.5,260.6L306.5,260.6z"/>
		<path class="st3" d="M257.8,189l2.5,20.7h29.2l6.5-15.6C296.1,194.1,258.5,188.8,257.8,189"/>
		<path class="st4" d="M296.2,193.2c-0.1,0-9.5-1.3-18.9-2.6c-5.5-0.7-9.9-1.3-13.1-1.7c-6.2-0.8-6.4-0.7-6.7-0.6
			c-0.4,0.1-0.6,0.5-0.5,0.9l2.5,20.7c0.1,0.4,0.4,0.7,0.8,0.7h29.2c0.3,0,0.7-0.2,0.8-0.5l6.5-15.6c0.1-0.2,0.1-0.5,0-0.7
			C296.7,193.4,296.4,193.3,296.2,193.2 M257.9,189.9 M289,208.9h-27.9l-2.3-18.9c4.3,0.4,22.9,3,36.1,4.8L289,208.9z"/>
		<path class="st11" d="M271.4,73.9c-9.8-1.9-21.6,0-26.2,15.4c-3.5,11.7-0.7,23.7-0.7,23.7l32-0.3c0,0-5.5-17.1-1.6-24.5
			c2.4-4.6,3.6-4.2,3.6-4.2S281.2,75.8,271.4,73.9"/>
		<path class="st4" d="M271.6,73.1c-5.9-1.1-11.2-0.7-15.6,1.3c-5.5,2.5-9.4,7.5-11.6,14.7c-1.8,6.2-1.9,12.4-1.7,16.5
			c0.3,4.5,0.9,7.5,1,7.6c0.1,0.4,0.4,0.7,0.8,0.7h0l32-0.3c0.3,0,0.5-0.1,0.7-0.4c0.2-0.2,0.2-0.5,0.1-0.8
			c-0.1-0.2-5.3-16.8-1.7-23.9c1.6-3.1,2.6-3.6,2.7-3.7c0.2,0,0.3,0,0.5-0.1c0.2-0.1,0.4-0.3,0.4-0.5c0.1-0.1,1.2-3.7-0.6-6.9
			C277.3,75.2,274.9,73.7,271.6,73.1 M277.8,83.3c-0.2,0.1-0.5,0.2-0.7,0.4c-0.9,0.7-1.9,2.1-2.9,4.1c-1.7,3.3-1.9,8.5-0.7,15.6
			c0.6,3.7,1.5,6.9,1.9,8.5l-30.2,0.2c-0.2-1.1-0.6-3.5-0.8-6.7c-0.2-4-0.1-10,1.6-15.9c2-6.8,5.6-11.3,10.7-13.7
			c2.5-1.2,5.5-1.7,8.7-1.7c1.9,0,3.8,0.2,5.8,0.6c2.9,0.6,4.9,1.7,5.9,3.5C278.3,80.2,278,82.3,277.8,83.3 M278.2,84.8
			C278.2,84.8,278.2,84.8,278.2,84.8C278.2,84.8,278.2,84.8,278.2,84.8 M278.2,84.8C278.2,84.8,278.2,84.8,278.2,84.8
			C278.2,84.8,278.2,84.8,278.2,84.8 M278.2,84.8C278.2,84.8,278.2,84.8,278.2,84.8C278.2,84.8,278.2,84.8,278.2,84.8 M278.2,84.8
			C278.2,84.8,278.2,84.8,278.2,84.8C278.2,84.8,278.2,84.8,278.2,84.8"/>
		<path class="st1" d="M272.2,96.5c0.7,1.9,2.1,2.4,3.6,1.8l-1.5-6.3C272.3,92.7,271.5,94.6,272.2,96.5"/>
		<path class="st4" d="M275.5,97.6c-0.6,0.2-1.1,0.2-1.5,0c-0.6-0.3-0.9-0.9-1.1-1.4c-0.3-0.8-0.3-1.5,0.1-2.1
			c0.3-0.6,0.8-1,1.5-1.2c0.4-0.1,0.7-0.6,0.6-1.1c-0.1-0.4-0.6-0.7-1.1-0.6c-1.1,0.3-2,1.1-2.5,2.1c-0.5,1-0.6,2.3-0.1,3.5
			c0.4,1.1,1.1,1.9,2,2.3c0.4,0.2,0.9,0.3,1.3,0.3c0.5,0,1-0.1,1.5-0.3c0.4-0.2,0.7-0.7,0.5-1.1C276.4,97.6,275.9,97.4,275.5,97.6"
			/>
		<polygon class="st1" points="236.2,268.4 239.2,268.4 241.3,220.4 236.2,220.4 		"/>
		<path class="st4" d="M241.3,219.5h-5.1c-0.5,0-0.9,0.4-0.9,0.9v48c0,0.5,0.4,0.9,0.9,0.9h3.1c0.5,0,0.8-0.4,0.8-0.8l2-48
			c0-0.2-0.1-0.5-0.2-0.6C241.7,219.6,241.5,219.5,241.3,219.5 M238.4,267.5H237v-46.3h3.4L238.4,267.5z"/>
		<polygon class="st1" points="270.1,268.4 273.2,268.4 273.2,220.4 268.1,220.4 		"/>
		<path class="st4" d="M273.2,219.5h-5.1c-0.2,0-0.5,0.1-0.6,0.3c-0.2,0.2-0.2,0.4-0.2,0.6l2,48c0,0.5,0.4,0.8,0.8,0.8h3.1
			c0.5,0,0.9-0.4,0.9-0.9v-48C274,219.9,273.6,219.5,273.2,219.5 M272.3,267.5h-1.4l-2-46.3h3.4V267.5z"/>
		<path class="st1" d="M275.3,209.7h-42.5c-2.1,0-3.8,1.7-3.8,3.8v3.1c0,2.1,1.7,3.8,3.8,3.8h42.5c2.1,0,3.8-1.7,3.8-3.8v-3.1
			C279.1,211.4,277.4,209.7,275.3,209.7"/>
		<path class="st4" d="M275.3,208.9h-42.5c-2.5,0-4.6,2.1-4.6,4.6v3.1c0,2.5,2.1,4.6,4.6,4.6h42.5c2.5,0,4.6-2.1,4.6-4.6v-3.1
			C280,210.9,277.9,208.9,275.3,208.9 M278.3,216.6c0,1.6-1.3,2.9-2.9,2.9h-42.5c-1.6,0-2.9-1.3-2.9-2.9v-3.1c0-1.6,1.3-2.9,2.9-2.9
			h42.5c1.6,0,2.9,1.3,2.9,2.9V216.6z"/>
		<path class="st6" d="M254.8,157.5h-29.9c-1.9,0-3.4,1.7-3.2,3.6l7.3,55.5l40.1-3.1L258,160.3C257.8,158.7,256.4,157.5,254.8,157.5
			"/>
		<path class="st9" d="M258.8,160.1c-0.3-2-2-3.5-4-3.5h-29.9c-1.2,0-2.3,0.5-3,1.4c-0.8,0.9-1.1,2-1,3.2l7.3,55.5
			c0.1,0.4,0.4,0.7,0.8,0.7c0,0,0.1,0,0.1,0c0.5-0.1,0.8-0.5,0.7-1l-7.3-55.5c-0.1-0.7,0.1-1.3,0.6-1.9c0.4-0.5,1.1-0.8,1.8-0.8
			h29.9c1.2,0,2.2,0.9,2.3,2c0,0,0,0,0,0.1l11.2,53.2c0.1,0.5,0.5,0.8,1,0.7c0.5-0.1,0.8-0.5,0.7-1L258.8,160.1z"/>
		<polygon class="st1" points="385.8,119.6 399.1,119.6 399.1,101.7 385.8,108.1 		"/>
		<path class="st4" d="M399.5,101c-0.2-0.2-0.6-0.2-0.8,0l-13.3,6.3c-0.3,0.1-0.5,0.4-0.5,0.8v11.6c0,0.5,0.4,0.9,0.9,0.9h13.3
			c0.5,0,0.9-0.4,0.9-0.9v-17.9C399.9,101.4,399.8,101.2,399.5,101 M398.2,118.8h-11.6v-10.2l11.6-5.5V118.8z"/>
		<path class="st7" d="M391.8,69.8C391.9,69.8,391.9,69.8,391.8,69.8c0.2,0,0.2,0,0.3,0H391.8z"/>
		<path class="st11" d="M392.5,69.8c-0.2,0-0.4,0-0.6,0c-9.7,0.1-6.1,4.1-6.6,14.5c-0.1,1.4-1.3,4.7-0.9,6l0.4,15.8l14.3,3.3
			c2,0,6.8-0.1,8.9-4.9l2.5-9.6c1.1-4,1.6-8.3,0.1-12.2C407.7,75.2,401.3,70.1,392.5,69.8"/>
		<path class="st4" d="M404.2,72.9c-3.3-2.4-7.3-3.8-11.7-3.9c-0.1,0-0.2,0-0.3,0c0,0-0.1,0-0.1,0h-0.3c0,0,0,0-0.1,0
			c-3.4,0-5.3,0.6-6.4,1.7c-1.4,1.5-1.3,3.8-1.1,6.9c0.1,1.8,0.3,4.1,0.1,6.7c0,0.4-0.2,1.2-0.4,2c-0.4,1.6-0.8,3.2-0.5,4.2
			l0.4,15.7c0,0.4,0.3,0.7,0.7,0.8l14.3,3.3c0.1,0,0.1,0,0.2,0c1.8,0,7.3,0,9.7-5.4c0,0,0-0.1,0-0.1l2.5-9.6
			c1.4-4.9,1.4-9.2,0.1-12.7C409.9,78.5,407.4,75.2,404.2,72.9 M409.7,94.7C409.7,94.7,409.7,94.7,409.7,94.7l-2.5,9.5
			c-1.9,4.2-6.3,4.3-8,4.3l-13.6-3.1l-0.3-15.2c0-0.1,0-0.2-0.1-0.3c-0.2-0.6,0.2-2.3,0.5-3.4c0.2-0.9,0.4-1.7,0.4-2.3
			c0.1-2.7,0-5-0.1-6.9c-0.2-2.8-0.3-4.7,0.6-5.6c0.8-0.8,2.5-1.2,5.3-1.2c0.2,0,0.3,0,0.5,0c8.1,0.3,14.4,4.8,17.3,12.4
			C411,86.3,411,90.2,409.7,94.7"/>
		<path class="st7" d="M391.8,91h-1.1c-0.6,0-1.1,0.5-1.1,1.1c0,0.6,0.5,1.1,1.1,1.1h1.1c0.6,0,1.1-0.5,1.1-1.1
			C392.9,91.5,392.4,91,391.8,91"/>
		<path class="st7" d="M381.7,91h-1.1c-0.6,0-1.1,0.5-1.1,1.1c0,0.6,0.5,1.1,1.1,1.1h1.1c0.6,0,1.1-0.5,1.1-1.1
			C382.8,91.5,382.3,91,381.7,91"/>
		<path class="st7" d="M392.1,89h-5.4c-0.6,0-1.1,0.5-1.1,1.1c0,0.6,0.5,1.1,1.1,1.1h5.4c0.6,0,1.1-0.5,1.1-1.1
			C393.2,89.5,392.7,89,392.1,89"/>
		<path class="st1" d="M386,77.8c-4.8,0-8.6,3.9-8.6,8.6v0v13.2c0,7.8,6.4,14.2,14.2,14.2l3.4-4.5c1.3-2.1,1.9-7.1,1.9-9.7l-0.7-5.2
			l8.6-16.7H386z"/>
		<path class="st4" d="M404.8,77H386c-5.2,0-9.5,4.3-9.5,9.5v13.2c0,8.3,6.7,15,15,15c0.5,0,0.9-0.4,0.9-0.9c0-0.5-0.4-0.9-0.9-0.9
			c-7.4,0-13.3-6-13.3-13.3V86.4c0-4.3,3.5-7.8,7.8-7.8h17.4l-7.9,15.5c-0.1,0.2-0.1,0.3-0.1,0.5l0.7,5.1c0,2.7-0.6,7.4-1.8,9.2
			c-0.2,0.4-0.1,0.9,0.3,1.2c0.4,0.2,0.9,0.1,1.2-0.3c1.5-2.5,2-7.9,2-10.1c0,0,0-0.1,0-0.1l-0.6-4.9l8.5-16.5
			c0.1-0.3,0.1-0.6,0-0.8C405.4,77.1,405.1,77,404.8,77"/>
		<path class="st11" d="M393.7,69.8H377c-1.2,0-2.1,1-2.1,2.1c0.1,3.6,1.3,10.6,8,10.6h8.9c2.3,0,5.6,6.8,4.4,12l2.2,0.2l12.1-11.9
			C409.1,75.5,400.7,69.8,393.7,69.8"/>
		<path class="st4" d="M404.7,72.9c-3.4-2.5-7.4-3.9-11-3.9H377c-0.8,0-1.5,0.3-2.1,0.9c-0.6,0.6-0.8,1.3-0.8,2.1
			c0.3,7.3,3.5,11.4,8.8,11.4h8.9c0.2,0,0.7,0.3,1.3,1c1.7,2.1,3.1,6.5,2.3,9.9c-0.1,0.5,0.2,0.9,0.6,1c0.1,0,0.1,0,0.2,0
			c0.4,0,0.7-0.3,0.8-0.7c0.9-3.9-0.6-8.9-2.6-11.4c-0.9-1.1-1.8-1.6-2.6-1.6h-8.9c-2.6,0-4.5-1.1-5.7-3.5c-1.1-2.1-1.4-4.6-1.4-6.3
			c0-0.3,0.1-0.6,0.3-0.9c0.2-0.2,0.5-0.4,0.9-0.4h16.7c3.3,0,6.9,1.3,10,3.6c3.2,2.4,5.4,5.5,6.1,8.7c0.1,0.5,0.5,0.8,1,0.7
			c0.5-0.1,0.8-0.5,0.7-1C410.7,79,408.3,75.5,404.7,72.9"/>
		<path class="st1" d="M375.4,98c-0.4,1,0.3,2.1,1.3,2.3l2.4,0.4l-0.9-10.6L375.4,98z"/>
		<path class="st4" d="M374.8,99.9c0.4,0.7,1,1.1,1.8,1.3l2.4,0.4c0.1,0,0.1,0,0.2,0c0.4,0,0.8-0.3,0.8-0.7c0.1-0.5-0.2-0.9-0.7-1
			l-2.4-0.4c-0.3,0-0.5-0.2-0.6-0.4c-0.1-0.2-0.2-0.5-0.1-0.8l2.8-7.8c0.2-0.4-0.1-0.9-0.5-1.1c-0.4-0.2-0.9,0.1-1.1,0.5"/>
		<path class="st1" d="M395,94.4l1,6.4c1.7,0,3.1-1.2,3.1-3.2C399.2,95.2,397.1,94.2,395,94.4"/>
		<path class="st4" d="M399.1,94.5c-0.9-0.9-2.4-1.3-3.9-1.2c-0.5,0-0.8,0.5-0.8,0.9c0,0.5,0.5,0.8,0.9,0.8c1-0.1,2,0.2,2.5,0.7
			c0.4,0.4,0.6,0.9,0.6,1.6c0,1.7-1.3,2.3-2.3,2.4c-0.5,0-0.8,0.4-0.8,0.9c0,0.5,0.4,0.8,0.8,0.8c0,0,0,0,0,0c2.3-0.1,3.9-1.7,4-4
			C400.3,96.3,399.9,95.3,399.1,94.5"/>
		<path class="st7" d="M397.1,184.6c-0.4,0-0.8,0.3-0.8,0.8v81.9c0,0.4,0.3,0.8,0.8,0.8c0.4,0,0.8-0.3,0.8-0.8v-81.9
			C397.8,185,397.5,184.6,397.1,184.6"/>
		<path class="st12" d="M369.6,137.7c0.9-1.5,2-5,3.4-8.6C372.7,128.5,368.8,139.2,369.6,137.7"/>
		<path class="st13" d="M405.9,117.7h-24.8c-3.1,0-5.9,5.9-8,11.4c0,0,0,0.1,0,0.2l-2.3,62.1H419v-62
			C419,122.9,413.1,117.7,405.9,117.7"/>
		<path class="st4" d="M405.9,116.8h-24.8c-3.6,0-6.4,5.8-8.7,11.7c-0.3,0.3-0.6,0.8-0.8,1.3c-0.3,0.6-0.7,1.6-1.1,2.6
			c-0.8,2-1.5,4.1-1.7,4.9c0,0.1,0,0.2-0.1,0.3c-0.1,0.5,0.2,0.9,0.5,1c0.2,0.1,0.8,0.2,1.2-0.5c0.5-0.9,1-2.3,1.7-4l-2.1,57.2
			c0,0.2,0.1,0.5,0.2,0.6c0.2,0.2,0.4,0.3,0.6,0.3H419c0.5,0,0.9-0.4,0.9-0.9v-62C419.8,122.5,413.6,116.8,405.9,116.8 M418.1,190.5
			h-46.5l2.3-61.2c0,0,0,0,0,0c0,0,0-0.1,0-0.1c0.8-2.1,1.7-4.2,2.7-6.1c1.1-2.1,2.8-4.6,4.4-4.6h24.8c6.8,0,12.3,4.9,12.3,10.9
			V190.5z"/>
		<path class="st11" d="M337.7,264.1c-2,1.2-1.2,4.3,1.1,4.3h34.5v-11.8h-14.6L337.7,264.1z"/>
		<path class="st4" d="M373.4,255.7h-14.6c-0.1,0-0.2,0-0.3,0l-21.1,7.5c0,0-0.1,0-0.1,0.1c-1.3,0.7-1.8,2.1-1.5,3.5
			c0.4,1.4,1.6,2.3,3,2.3h34.5c0.5,0,0.9-0.4,0.9-0.9v-11.8C374.2,256.1,373.8,255.7,373.4,255.7 M372.5,267.5h-33.7
			c-0.8,0-1.2-0.5-1.4-1.1c-0.1-0.5,0-1.2,0.6-1.6l20.8-7.5h13.6V267.5z"/>
		<path class="st3" d="M364.8,197c-1.2,1.7-2.2,4.1-2.9,6.7l-3.1,52.8h14.6l4.6-46.8h5l19.1-18.3h-26.5
			C370.9,191.4,367.3,193.4,364.8,197"/>
		<path class="st4" d="M402,190.5h-26.5c-4.8,0-8.6,2-11.5,6c-1.2,1.7-2.2,4.1-3,7c0,0.1,0,0.1,0,0.2l-3.1,52.8
			c0,0.2,0.1,0.5,0.2,0.6c0.2,0.2,0.4,0.3,0.6,0.3h14.6c0.4,0,0.8-0.3,0.8-0.8l4.5-46.1h4.2c0.5,0,0.9-0.4,0.9-0.9
			c0-0.5-0.4-0.9-0.9-0.9h-5c-0.4,0-0.8,0.3-0.8,0.8l-4.5,46.1h-12.9l3-51.9c0.7-2.6,1.6-4.8,2.7-6.3c2.5-3.5,5.9-5.3,10.1-5.3H402
			c0.5,0,0.9-0.4,0.9-0.9C402.9,190.9,402.5,190.5,402,190.5"/>
		<path class="st1" d="M423.1,209.7h-51.4c-2.1,0-3.8,1.7-3.8,3.8v3.1c0,2.1,1.7,3.8,3.8,3.8h51.4c2.1,0,3.8-1.7,3.8-3.8v-3.1
			C426.9,211.4,425.2,209.7,423.1,209.7"/>
		<path class="st4" d="M423.1,208.9h-51.4c-2.5,0-4.6,2.1-4.6,4.6v3.1c0,2.5,2.1,4.6,4.6,4.6h51.4c2.5,0,4.6-2.1,4.6-4.6v-3.1
			C427.7,210.9,425.6,208.9,423.1,208.9 M426,216.6c0,1.6-1.3,2.9-2.9,2.9h-51.4c-1.6,0-2.9-1.3-2.9-2.9v-3.1c0-1.6,1.3-2.9,2.9-2.9
			h51.4c1.6,0,2.9,1.3,2.9,2.9V216.6z"/>
		<rect x="391.5" y="220.4" class="st5" width="11.8" height="7.2"/>
		<path class="st4" d="M403.3,219.5h-11.8c-0.5,0-0.9,0.4-0.9,0.9v7.2c0,0.5,0.4,0.9,0.9,0.9h11.8c0.5,0,0.9-0.4,0.9-0.9v-7.2
			C404.2,219.9,403.8,219.5,403.3,219.5 M402.5,226.7h-10.1v-5.5h10.1V226.7z"/>
		<rect x="391.5" y="247.4" class="st5" width="11.8" height="7.2"/>
		<path class="st4" d="M403.3,246.6h-11.8c-0.5,0-0.9,0.4-0.9,0.9v7.2c0,0.5,0.4,0.9,0.9,0.9h11.8c0.5,0,0.9-0.4,0.9-0.9v-7.2
			C404.2,246.9,403.8,246.6,403.3,246.6 M402.5,253.7h-10.1v-5.5h10.1V253.7z"/>
		<rect x="393" y="227.6" class="st5" width="8.8" height="19.7"/>
		<path class="st4" d="M401.8,226.7H393c-0.5,0-0.9,0.4-0.9,0.9v19.7c0,0.5,0.4,0.9,0.9,0.9h8.8c0.5,0,0.9-0.4,0.9-0.9v-19.7
			C402.6,227.1,402.2,226.7,401.8,226.7 M400.9,246.4h-7.1v-18h7.1V246.4z"/>
		<path class="st3" d="M419.9,260c-2.3,0-4.2,1.9-4.2,4.2c0,2.3,1.9,4.2,4.2,4.2s4.2-1.9,4.2-4.2C424.1,261.9,422.2,260,419.9,260"
			/>
		<path class="st4" d="M420,259.1c-2.8,0-5,2.3-5,5c0,2.8,2.3,5,5,5c2.8,0,5-2.3,5-5C425,261.4,422.8,259.1,420,259.1 M420,267.5
			c-1.8,0-3.3-1.5-3.3-3.3c0-1.8,1.5-3.3,3.3-3.3c1.8,0,3.3,1.5,3.3,3.3C423.3,266,421.8,267.5,420,267.5"/>
		<path class="st3" d="M374.8,260c-2.3,0-4.2,1.9-4.2,4.2c0,2.3,1.9,4.2,4.2,4.2c2.3,0,4.2-1.9,4.2-4.2
			C378.9,261.9,377.1,260,374.8,260"/>
		<path class="st4" d="M374.8,259.1c-2.8,0-5,2.3-5,5c0,2.8,2.3,5,5,5c2.8,0,5-2.3,5-5C379.8,261.4,377.5,259.1,374.8,259.1
			 M374.8,267.5c-1.8,0-3.3-1.5-3.3-3.3c0-1.8,1.5-3.3,3.3-3.3c1.8,0,3.3,1.5,3.3,3.3C378.1,266,376.6,267.5,374.8,267.5"/>
		<path class="st3" d="M397.4,260c-2.3,0-4.2,1.9-4.2,4.2c0,2.3,1.9,4.2,4.2,4.2c2.3,0,4.2-1.9,4.2-4.2
			C401.6,261.9,399.7,260,397.4,260"/>
		<path class="st4" d="M397.4,259.1c-2.8,0-5,2.3-5,5c0,2.8,2.3,5,5,5s5-2.3,5-5C402.4,261.4,400.2,259.1,397.4,259.1 M397.4,267.5
			c-1.8,0-3.3-1.5-3.3-3.3c0-1.8,1.5-3.3,3.3-3.3c1.8,0,3.3,1.5,3.3,3.3C400.7,266,399.2,267.5,397.4,267.5"/>
		<path class="st5" d="M419.7,254.6h-16h-28.7c-2.6,0-4.7,2.1-4.7,4.7h33.4h20.7C424.4,256.7,422.3,254.6,419.7,254.6"/>
		<path class="st4" d="M419.7,253.7h-44.7c-3.1,0-5.6,2.5-5.6,5.6c0,0.5,0.4,0.9,0.9,0.9h54.1c0.5,0,0.9-0.4,0.9-0.9
			C425.3,256.2,422.8,253.7,419.7,253.7 M371.3,258.4c0.4-1.7,1.9-3,3.8-3h44.7c1.8,0,3.4,1.3,3.8,3H371.3z"/>
		<path class="st11" d="M314.6,264.1c-2,1.2-1.2,4.3,1.1,4.3h34.5v-11.8h-14.6L314.6,264.1z"/>
		<path class="st4" d="M350.2,255.7h-14.6c-0.1,0-0.2,0-0.3,0l-21.1,7.5c0,0-0.1,0-0.1,0.1c-1.3,0.7-1.8,2.1-1.5,3.5
			c0.4,1.4,1.6,2.3,3,2.3h34.5c0.5,0,0.9-0.4,0.9-0.9v-11.8C351.1,256.1,350.7,255.7,350.2,255.7 M349.4,267.5h-33.7
			c-0.8,0-1.2-0.5-1.4-1.1c-0.1-0.5,0-1.2,0.6-1.6l20.8-7.5h13.6V267.5z"/>
		<path class="st3" d="M341.6,197c-1.2,1.7-2.2,4.1-2.9,6.7l-3.1,52.8h14.6l4.6-46.8h45.8c10.1,0,18.3-8.2,18.3-18.3h-66.6
			C347.8,191.4,344.2,193.4,341.6,197"/>
		<path class="st4" d="M419,190.5h-66.6c-4.8,0-8.6,2-11.5,6c-1.2,1.7-2.2,4.1-3,7c0,0.1,0,0.1,0,0.2l-3.1,52.8
			c0,0.2,0.1,0.5,0.2,0.6c0.2,0.2,0.4,0.3,0.6,0.3h14.6c0.4,0,0.8-0.3,0.8-0.8l4.5-46.1h45.1c5.1,0,9.9-2,13.6-5.6
			c3.6-3.6,5.6-8.4,5.6-13.6C419.8,190.9,419.4,190.5,419,190.5 M400.6,208.9h-45.8c-0.4,0-0.8,0.3-0.8,0.8l-4.5,46.1h-12.9l3-51.9
			c0.7-2.6,1.6-4.8,2.7-6.3c2.5-3.5,5.9-5.3,10.1-5.3h65.7C417.7,201.5,410,208.9,400.6,208.9"/>
		<path class="st3" d="M348.6,168h-30.9c-0.7,0-1.4,0.6-1.4,1.4v2.3H350v-2.3C350,168.7,349.4,168,348.6,168"/>
		<path class="st4" d="M348.6,167.2h-30.9c-1.2,0-2.2,1-2.2,2.2v2.3c0,0.5,0.4,0.9,0.9,0.9H350c0.5,0,0.9-0.4,0.9-0.9v-2.3
			C350.9,168.2,349.9,167.2,348.6,167.2 M349.2,170.9h-31.9v-1.5c0-0.3,0.2-0.5,0.5-0.5h30.9c0.3,0,0.5,0.2,0.5,0.5V170.9z"/>
		<path class="st1" d="M322,167C322,167,322,167,322,167c0.3-0.1,0.6-0.2,1-0.3L322,167z"/>
		<path class="st1" d="M330.8,160.7c0,0-11.2,4.5-11.5,4.6c-1.3,0.6-0.4,2.7,1.4,2.1c0.2-0.1,0.7-0.2,1.4-0.4c0,0,0,0,0,0l1-0.3
			c3.2-0.9,8.2-2.2,8.2-2.2l-8.2,2.2c-0.4,0.1-0.7,0.2-1,0.3c0,0.1-0.2,1.3,0.9,1.9c1.9,1,9.4-1.2,9.4-1.2s2.7,1.9,5.4,2.2
			c2.7,0.3,5.5-1.9,5.5-1.9l-2.6-4.5L330.8,160.7z"/>
		<path class="st4" d="M341.3,163.1c-0.1-0.2-0.3-0.3-0.5-0.4l-9.8-2.8c-0.2-0.1-0.4,0-0.5,0c-1.1,0.5-11.2,4.5-11.5,4.6
			c-1,0.4-1.4,1.5-1,2.5c0.4,1,1.5,1.7,3,1.2c0.1,0,0.2-0.1,0.3-0.1c0.2,0.6,0.5,1.2,1.3,1.5c1.3,0.7,4.1,0.3,6-0.1
			c1.6-0.3,3-0.7,3.7-0.9c0.8,0.6,3.1,1.9,5.5,2.1c0.2,0,0.4,0,0.6,0c2.8,0,5.4-2.1,5.5-2.2c0.3-0.3,0.4-0.7,0.2-1.1L341.3,163.1z
			 M337.8,169.1c-2.5-0.3-5-2-5-2.1c-0.1-0.1-0.3-0.2-0.5-0.2c-0.1,0-0.2,0-0.2,0c0,0-1.9,0.5-3.9,0.9c-3.6,0.7-4.7,0.4-4.9,0.3
			c-0.2-0.1-0.4-0.3-0.4-0.5c0.1,0,0.2-0.1,0.3-0.1l8.2-2.2c0.5-0.1,0.7-0.6,0.6-1s-0.6-0.7-1-0.6c-0.3,0.1-5.1,1.3-8.2,2.2l-1,0.3
			c0,0-0.1,0-0.1,0c-0.6,0.2-1.1,0.3-1.3,0.4c-0.6,0.2-0.8-0.1-0.8-0.2c-0.1-0.2,0-0.3,0.1-0.3c0.3-0.1,6.8-2.7,11.2-4.5l9.2,2.6
			l2,3.5C341.1,168.4,339.4,169.3,337.8,169.1"/>
		<path class="st13" d="M368.5,126l-15.3,35.4l-5.1,2c2.7,6.5,12,8.4,12,8.4c7.3,0,12.1-11.9,12.1-11.9l11-23.5l-2.2-18.6
			C374.3,117.3,370.3,120.2,368.5,126"/>
		<path class="st4" d="M383.6,135.5c-0.4-0.2-0.9,0-1.1,0.4l-11,23.5c0,0,0,0,0,0c0,0.1-4.7,11.3-11.2,11.4c-0.9-0.2-8.2-2-10.9-7.1
			l4.3-1.6c0.2-0.1,0.4-0.2,0.5-0.5l15.3-35.4c0,0,0-0.1,0-0.1c1.7-5.6,5.5-8.1,11.7-7.7c0.5,0,0.9-0.3,0.9-0.8
			c0-0.5-0.3-0.9-0.8-0.9c-7-0.4-11.5,2.5-13.4,8.8l-15.1,35l-4.8,1.8c-0.2,0.1-0.4,0.2-0.5,0.5c-0.1,0.2-0.1,0.5,0,0.7
			c1.2,2.9,3.8,5.3,7.4,7.1c2.7,1.3,5.1,1.8,5.2,1.8c0.1,0,0.1,0,0.2,0c7.7,0,12.6-11.7,12.9-12.4l11-23.5
			C384.2,136.2,384.1,135.7,383.6,135.5"/>
		<polygon class="st13" points="333.9,159.5 335.1,171.6 360.2,171.7 355.7,157.8 		"/>
		<path class="st4" d="M360.2,170.9l-24.3-0.1l-1-10.4l21-1.7c0.5,0,0.8-0.4,0.8-0.9c0-0.5-0.4-0.8-0.9-0.8l-21.8,1.8
			c-0.2,0-0.4,0.1-0.6,0.3c-0.1,0.2-0.2,0.4-0.2,0.6l1.2,12c0,0.4,0.4,0.8,0.8,0.8l25.1,0.1h0c0.5,0,0.8-0.4,0.9-0.8
			C361,171.2,360.6,170.9,360.2,170.9"/>
		<path class="st6" d="M431,157.5h-29.9c-1.6,0-3,1.2-3.2,2.8l-11.2,53.2l40.1,3.1l7.3-55.5C434.4,159.2,432.9,157.5,431,157.5"/>
		<path class="st2" d="M431,156.6h-29.9c-2,0-3.7,1.5-4,3.5l-11.2,53.2c-0.1,0.5,0.2,0.9,0.7,1c0.5,0.1,0.9-0.2,1-0.7l11.2-53.2
			c0,0,0,0,0-0.1c0.2-1.2,1.2-2,2.3-2H431c0.7,0,1.3,0.3,1.8,0.8c0.4,0.5,0.7,1.2,0.6,1.9l-7.3,55.5c-0.1,0.5,0.3,0.9,0.7,1
			c0,0,0.1,0,0.1,0c0.4,0,0.8-0.3,0.8-0.7l7.3-55.5c0.2-1.2-0.2-2.3-1-3.2C433.3,157.1,432.2,156.6,431,156.6"/>
		<path class="st1" d="M255,157.5h-29.9c-1.9,0-3.4,1.7-3.2,3.6l7.3,55.5l40.1-3.1l-11.2-53.2C258,158.7,256.6,157.5,255,157.5"/>
		<path class="st4" d="M259,160.1c-0.3-2-2-3.5-4-3.5h-29.9c-1.2,0-2.3,0.5-3,1.4c-0.8,0.9-1.1,2-1,3.2l7.3,55.5
			c0.1,0.4,0.4,0.7,0.8,0.7c0,0,0.1,0,0.1,0c0.5-0.1,0.8-0.5,0.7-1l-7.3-55.5c-0.1-0.7,0.1-1.3,0.6-1.9c0.4-0.5,1.1-0.8,1.8-0.8H255
			c1.2,0,2.2,0.9,2.3,2c0,0,0,0,0,0.1l11.2,53.2c0.1,0.5,0.5,0.8,1,0.7c0.5-0.1,0.8-0.5,0.7-1L259,160.1z"/>
		<path class="st1" d="M431.2,157.5h-29.9c-1.6,0-3,1.2-3.2,2.8l-11.2,53.2l40.1,3.1l7.3-55.5C434.6,159.2,433.1,157.5,431.2,157.5"
			/>
		<path class="st4" d="M430.2,156.6h-29.9c-2,0-3.7,1.5-4,3.5l-11.2,53.2c-0.1,0.5,0.2,0.9,0.7,1c0.5,0.1,0.9-0.2,1-0.7l11.2-53.2
			c0,0,0,0,0-0.1c0.2-1.2,1.2-2,2.3-2h29.9c0.7,0,1.3,0.3,1.8,0.8c0.4,0.5,0.7,1.2,0.6,1.9l-7.3,55.5c-0.1,0.5,0.3,0.9,0.7,1
			c0,0,0.1,0,0.1,0c0.4,0,0.8-0.3,0.8-0.7l7.3-55.5c0.2-1.2-0.2-2.3-1-3.2C432.5,157.1,431.4,156.6,430.2,156.6"/>
		<path class="st4" d="M328.1,34.9c-0.7,0-1.2,0.6-1.2,1.2v2.1c0,0.7,0.6,1.2,1.2,1.2c0.7,0,1.2-0.6,1.2-1.2v-2.1
			C329.3,35.5,328.8,34.9,328.1,34.9"/>
		<path class="st4" d="M328.1,61.1c-0.7,0-1.2,0.6-1.2,1.2v2.1c0,0.7,0.6,1.2,1.2,1.2c0.7,0,1.2-0.6,1.2-1.2v-2.1
			C329.3,61.6,328.8,61.1,328.1,61.1"/>
		<path class="st4" d="M342.2,49h-2.1c-0.7,0-1.2,0.6-1.2,1.2c0,0.7,0.6,1.2,1.2,1.2h2.1c0.7,0,1.2-0.6,1.2-1.2
			C343.5,49.6,342.9,49,342.2,49"/>
		<path class="st4" d="M316.1,49H314c-0.7,0-1.2,0.6-1.2,1.2c0,0.7,0.6,1.2,1.2,1.2h2.1c0.7,0,1.2-0.6,1.2-1.2
			C317.3,49.6,316.8,49,316.1,49"/>
		<path class="st4" d="M322.1,37.4c-0.3-0.6-1.1-0.8-1.7-0.5c-0.6,0.3-0.8,1.1-0.5,1.7l1.1,1.8c0.2,0.4,0.6,0.6,1.1,0.6
			c0.2,0,0.4-0.1,0.6-0.2c0.6-0.3,0.8-1.1,0.5-1.7L322.1,37.4z"/>
		<path class="st4" d="M335.2,60.1c-0.3-0.6-1.1-0.8-1.7-0.5c-0.6,0.3-0.8,1.1-0.5,1.7l1.1,1.8c0.2,0.4,0.6,0.6,1.1,0.6
			c0.2,0,0.4-0.1,0.6-0.2c0.6-0.3,0.8-1.1,0.5-1.7L335.2,60.1z"/>
		<path class="st4" d="M339.7,42.1l-1.8,1.1c-0.6,0.3-0.8,1.1-0.5,1.7c0.2,0.4,0.6,0.6,1.1,0.6c0.2,0,0.4-0.1,0.6-0.2l1.8-1.1
			c0.6-0.3,0.8-1.1,0.5-1.7C341.1,42,340.3,41.8,339.7,42.1"/>
		<path class="st4" d="M317.1,55.2l-1.8,1.1c-0.6,0.3-0.8,1.1-0.5,1.7c0.2,0.4,0.6,0.6,1.1,0.6c0.2,0,0.4-0.1,0.6-0.2l1.8-1.1
			c0.6-0.3,0.8-1.1,0.5-1.7C318.4,55.1,317.7,54.9,317.1,55.2"/>
		<path class="st4" d="M318.3,43.2l-1.8-1.1c-0.6-0.3-1.3-0.1-1.7,0.5c-0.3,0.6-0.1,1.3,0.5,1.7l1.8,1.1c0.2,0.1,0.4,0.2,0.6,0.2
			c0.4,0,0.8-0.2,1.1-0.6C319.1,44.3,318.9,43.5,318.3,43.2"/>
		<path class="st4" d="M340.9,56.3l-1.8-1.1c-0.6-0.3-1.3-0.1-1.7,0.5c-0.3,0.6-0.1,1.3,0.5,1.7l1.8,1.1c0.2,0.1,0.4,0.2,0.6,0.2
			c0.4,0,0.8-0.2,1.1-0.6C341.7,57.4,341.5,56.6,340.9,56.3"/>
		<path class="st4" d="M335.8,37c-0.6-0.3-1.3-0.1-1.7,0.5l-1.1,1.8c-0.3,0.6-0.1,1.3,0.5,1.7c0.2,0.1,0.4,0.2,0.6,0.2
			c0.4,0,0.8-0.2,1.1-0.6l1.1-1.8C336.6,38.1,336.4,37.3,335.8,37"/>
		<path class="st4" d="M322.7,59.6c-0.6-0.3-1.3-0.1-1.7,0.5l-1.1,1.8c-0.3,0.6-0.1,1.3,0.5,1.7c0.2,0.1,0.4,0.2,0.6,0.2
			c0.4,0,0.8-0.2,1.1-0.6l1.1-1.8C323.5,60.7,323.3,59.9,322.7,59.6"/>
		<path class="st4" d="M332.4,44.1l-3.4,3c-0.5,0.5-0.6,1.2-0.1,1.7c0.2,0.3,0.6,0.4,0.9,0.4c0.3,0,0.6-0.1,0.8-0.3l3.4-3
			c0.5-0.5,0.6-1.2,0.1-1.7C333.7,43.7,332.9,43.7,332.4,44.1"/>
		<path class="st4" d="M330.6,51.7c-0.5-0.5-1.3-0.4-1.7,0.1c-0.5,0.5-0.4,1.3,0.1,1.7l5.6,5.3c0.2,0.2,0.5,0.3,0.8,0.3
			c0.3,0,0.7-0.1,0.9-0.4c0.5-0.5,0.4-1.3-0.1-1.7L330.6,51.7z"/>
		<path class="st4" d="M328.1,46.3c-2.2,0-4,1.8-4,4c0,2.2,1.8,4,4,4c2.2,0,4-1.8,4-4C332,48.1,330.3,46.3,328.1,46.3 M328.1,51.8
			c-0.8,0-1.5-0.7-1.5-1.5c0-0.8,0.7-1.5,1.5-1.5c0.8,0,1.5,0.7,1.5,1.5C329.6,51.1,328.9,51.8,328.1,51.8"/>
		<path class="st4" d="M328.1,28.1c-12.2,0-22.2,10-22.2,22.2c0,12.2,10,22.2,22.2,22.2c12.2,0,22.2-10,22.2-22.2
			C350.3,38,340.3,28.1,328.1,28.1 M328.1,70c-10.9,0-19.7-8.8-19.7-19.7c0-10.9,8.8-19.7,19.7-19.7c10.9,0,19.7,8.8,19.7,19.7
			C347.8,61.1,339,70,328.1,70"/>
		<path class="st4" d="M167,179.2c0.6,0,1,0.4,1,1v88.3c0,0.6-0.4,0.3-1,0.3c-0.6,0-1,0.2-1-0.3v-88.3
			C166,179.6,166.4,179.2,167,179.2"/>
		<path class="st14" d="M17.3,263.4l15.9-11.2l14.4-49.9c0.7-2.6,1.7-5,2.9-6.8c2.6-3.6,6.2-5.7,10.9-5.7H121
			c0,10.3-8.3,15.6-18.6,15.6H63.8L43,251.8l0,6.4l-0.8,8.3h-3.3l0-3.6c-1.7,0.7-3.7,1.6-6.1,2.4c-4.8,1.6-5.6,2.8-15.7,2.8
			C14.7,268,15.3,264.5,17.3,263.4"/>
		<path class="st4" d="M14.6,267.2c0.3,1.1,1.2,1.8,2.5,1.8c8.3,0,10.5-0.8,13.5-1.9c0.7-0.3,1.5-0.6,2.5-0.9
			c1.6-0.5,3.3-1.1,4.9-1.8l0,2.1c0,0.5,0.5,1,1,1h3.3c0.5,0,0.9-0.4,1-0.9l0.8-8.3c0,0,0-0.1,0-0.1l0-6.2l20.4-45.7h38
			c5.5,0,10.2-1.4,13.7-4.2c3.8-3,5.8-7.3,5.8-12.4c0-0.6-0.4-1-1-1H61.3c-4.9,0-8.8,2.1-11.7,6.1c-1.2,1.7-2.3,4.2-3.1,7.1
			l-14.3,49.6l-15.5,11C15.1,263.5,14.2,265.6,14.6,267.2 M17.8,264.2C17.8,264.2,17.9,264.2,17.8,264.2L33.7,253
			c0.2-0.1,0.3-0.3,0.4-0.5l14.4-49.9c0,0,0,0,0,0c0.7-2.7,1.7-4.9,2.8-6.5c2.5-3.5,5.9-5.3,10.1-5.3h58.6c-0.2,4.1-2,7.5-5,9.9
			c-3.1,2.4-7.5,3.8-12.5,3.8H63.8c-0.4,0-0.8,0.2-0.9,0.6l-20.8,46.5c-0.1,0.1-0.1,0.3-0.1,0.4l0,6.4l-0.7,7.3h-1.4l0-2.6
			c0-0.3-0.2-0.7-0.5-0.8c-0.2-0.1-0.4-0.2-0.5-0.2c-0.1,0-0.3,0-0.4,0.1c-2,0.9-4,1.7-6,2.3c-1,0.3-1.8,0.6-2.5,0.9
			c-3,1.1-4.9,1.8-12.8,1.8c-0.4,0-0.5-0.1-0.5-0.3C16.4,266,16.9,264.8,17.8,264.2"/>
		<path class="st1" d="M23.8,258.9l9.4-6.8l14.4-49.9c0.7-2.6,1.7-5,2.9-6.8c2.6-3.6,6.2-5.7,10.9-5.7H121
			c0,10.3-8.3,15.6-18.6,15.6H63.8L43,251.8l0,3.2c0,0-11.9,6.2-18.1,6.2C22.6,261.3,21.7,260.1,23.8,258.9"/>
		<path class="st4" d="M21.7,260.6c0.3,1,1.5,1.6,3.3,1.6c6.4,0,18.1-6.1,18.6-6.4c0.3-0.2,0.5-0.5,0.5-0.9l0-3l20.4-45.7h38
			c5.5,0,10.2-1.4,13.7-4.2c3.8-3,5.8-7.3,5.8-12.4c0-0.6-0.4-1-1-1H61.3c-4.9,0-8.8,2.1-11.7,6.1c-1.2,1.7-2.3,4.2-3.1,7.1
			l-14.3,49.6l-9.1,6.5C21.5,259.1,21.5,260.1,21.7,260.6 M23.8,260.1c0.1-0.1,0.2-0.2,0.5-0.3c0,0,0.1,0,0.1-0.1l9.4-6.8
			c0.2-0.1,0.3-0.3,0.4-0.5l14.4-49.9c0,0,0,0,0,0c0.7-2.7,1.7-4.9,2.8-6.5c2.5-3.5,5.9-5.3,10.1-5.3h58.6c-0.2,4.1-2,7.5-5,9.9
			c-3.1,2.4-7.5,3.8-12.5,3.8H63.8c-0.4,0-0.8,0.2-0.9,0.6l-20.8,46.5c-0.1,0.1-0.1,0.3-0.1,0.4l0,2.6c-2.4,1.2-11.9,5.9-17.1,5.9
			C24.4,260.2,24,260.2,23.8,260.1 M23.6,260.4L23.6,260.4L23.6,260.4z"/>
		<path class="st5" d="M121,189.7c0,10.3-8.3,15.6-18.6,15.6H63.8l-4.9,10.9l2.4-26.5H121z"/>
		<path class="st4" d="M62.9,205c0.2-0.4,0.5-0.6,0.9-0.6h38.6c5,0,9.4-1.3,12.5-3.8c3.1-2.4,4.8-5.8,5-9.9H61.3c-0.6,0-1-0.4-1-1
			c0-0.6,0.4-1,1-1H121c0.6,0,1,0.4,1,1c0,5.2-2,9.5-5.8,12.4c-3.5,2.7-8.3,4.2-13.7,4.2h-38l-4.6,10.3c-0.2,0.4-0.5,0.6-0.9,0.6
			c-0.1,0-0.3,0-0.4-0.1c-0.5-0.2-0.7-0.8-0.5-1.3L62.9,205z"/>
		<path class="st5" d="M19.2,278.1h2.2c0.4,0,0.8,0.3,0.8,0.8c0,0.4-0.3,0.8-0.8,0.8h-2.2c-0.4,0-0.8-0.3-0.8-0.8
			C18.4,278.4,18.8,278.1,19.2,278.1"/>
		<path class="st5" d="M29.7,278.1h8.7c0.4,0,0.8,0.3,0.8,0.8c0,0.4-0.3,0.8-0.8,0.8h-8.7c-0.4,0-0.8-0.3-0.8-0.8
			C28.9,278.4,29.3,278.1,29.7,278.1"/>
		<path class="st5" d="M47.3,278.1h57.7c0.4,0,0.8,0.3,0.8,0.8c0,0.4-0.3,0.8-0.8,0.8H47.3c-0.4,0-0.8-0.3-0.8-0.8
			C46.6,278.4,46.9,278.1,47.3,278.1"/>
		<path class="st5" d="M113.4,278.1h37.5c0.4,0,0.8,0.3,0.8,0.8c0,0.4-0.3,0.8-0.8,0.8h-37.5c-0.4,0-0.8-0.3-0.8-0.8
			C112.7,278.4,113,278.1,113.4,278.1"/>
		<path class="st5" d="M46.3,288.7h28.2c0.4,0,0.8,0.4,0.8,0.8c0,0.4-0.4,0.8-0.8,0.8H46.3c-0.4,0-0.8-0.4-0.8-0.8
			C45.5,289.1,45.9,288.7,46.3,288.7"/>
		<path class="st5" d="M85,288.7h70.6c0.4,0,0.8,0.4,0.8,0.8c0,0.4-0.4,0.8-0.8,0.8H85c-0.4,0-0.8-0.4-0.8-0.8
			C84.2,289.1,84.6,288.7,85,288.7"/>
		<path class="st5" d="M164.2,288.7h9.2c0.4,0,0.8,0.4,0.8,0.8c0,0.4-0.4,0.8-0.8,0.8h-9.2c-0.4,0-0.8-0.4-0.8-0.8
			C163.4,289.1,163.7,288.7,164.2,288.7"/>
		<path class="st14" d="M90.4,124.5c3.2-4.5,8.4-7.2,14-7.2h6.9l-38.5,53.9c-6.6,0-10.4-7.4-6.6-12.8L90.4,124.5z"/>
		<path class="st4" d="M63.6,162.6c-0.1,1.6,0.3,3.2,1,4.7c0.7,1.4,1.9,2.7,3.2,3.5c1.4,0.9,3.1,1.4,4.9,1.4c0.3,0,0.6-0.2,0.8-0.4
			l38.5-53.9c0.2-0.3,0.2-0.7,0.1-1c-0.2-0.3-0.5-0.5-0.9-0.5h-6.9c-5.9,0-11.4,2.8-14.8,7.6l-24.2,33.9
			C64.3,159.3,63.7,160.9,63.6,162.6 M66.9,159l24.2-33.9c3-4.2,7.9-6.8,13.1-6.8h4.9l-37.1,51.9c-2.5-0.2-4.6-1.6-5.8-3.8
			C65.2,164,65.4,161.2,66.9,159"/>
		<path class="st11" d="M116.7,73.9L116.7,73.9c10.2,0,18.5,8.3,18.5,18.5v29h-37v-29C98.1,82.2,106.4,73.9,116.7,73.9"/>
		<path class="st4" d="M97.1,92.4v29c0,0.6,0.4,1,1,1h37c0.6,0,1-0.4,1-1v-29c0-10.8-8.8-19.5-19.5-19.5
			C105.9,72.9,97.1,81.6,97.1,92.4 M99.1,92.4c0-9.7,7.9-17.5,17.5-17.5c9.7,0,17.5,7.9,17.5,17.5v28h-35V92.4z"/>
		<path class="st4" d="M20.9,178.8c0.6,0,1,0.4,1,1V268c0,0.6-0.4,1-1,1c-0.6,0-1-0.4-1-1v-88.3C19.9,179.2,20.4,178.8,20.9,178.8"
			/>
		<path class="st14" d="M104.4,117.3h24.4c5,0,9,4,9,9v63.9H95.4v-63.9C95.4,121.3,99.4,117.3,104.4,117.3"/>
		<path class="st4" d="M94.4,126.3v63.9c0,0.6,0.4,1,1,1h42.4c0.6,0,1-0.4,1-1v-63.9c0-5.5-4.5-10-10-10h-24.4
			C98.9,116.3,94.4,120.8,94.4,126.3 M96.4,126.3c0-4.4,3.6-8,8-8h24.4c4.4,0,8,3.6,8,8v62.9H96.4V126.3z"/>
		<rect x="111.2" y="107.7" class="st1" width="11" height="9.6"/>
		<path class="st4" d="M110.2,107.7v9.6c0,0.6,0.4,1,1,1h11c0.6,0,1-0.4,1-1v-9.6c0-0.6-0.4-1-1-1h-11
			C110.6,106.7,110.2,107.2,110.2,107.7 M112.2,108.7h9v7.6h-9V108.7z"/>
		<path class="st14" d="M142.9,124.6l24.2,34.4c3.8,5.4,0,13-6.6,13h0l-28.5-40.5l-10-14.2h6.9C134.5,117.3,139.7,120,142.9,124.6"
			/>
		<path class="st4" d="M122,116.3h6.9c5.9,0,11.4,2.9,14.8,7.7l24.2,34.4c1,1.4,1.6,3.1,1.7,4.9c0.1,1.6-0.3,3.3-1,4.7
			c-0.7,1.5-1.9,2.7-3.2,3.6c-1.4,0.9-3.1,1.4-4.9,1.4c-0.3,0-0.6-0.2-0.8-0.4l-28.5-40.5c-0.3-0.5-0.2-1.1,0.2-1.4
			c0.5-0.3,1.1-0.2,1.4,0.2l28.2,40c2.5-0.2,4.6-1.6,5.8-3.9c1.2-2.4,1-5.2-0.5-7.5l-24.2-34.4c-3-4.3-7.9-6.9-13.1-6.9H122
			c-0.6,0-1-0.5-1-1S121.5,116.3,122,116.3"/>
		<rect x="95.4" y="157.3" class="st14" width="42.4" height="32.8"/>
		<path class="st4" d="M95.4,156.3c0.6,0,1,0.4,1,1v31.8h40.4v-31.8c0-0.6,0.4-1,1-1c0.6,0,1,0.4,1,1v32.8c0,0.6-0.4,1-1,1H95.4
			c-0.6,0-1-0.4-1-1v-32.8C94.4,156.8,94.8,156.3,95.4,156.3"/>
		<path class="st1" d="M102.4,171.3L102.4,171.3H89.1v-9.8h3.5C98,161.4,102.4,165.8,102.4,171.3"/>
		<path class="st4" d="M88.1,161.4v9.8c0,0.6,0.4,1,1,1h13.3c0.6,0,1-0.4,1-1c0-6-4.9-10.8-10.8-10.8h-3.5
			C88.5,160.4,88.1,160.9,88.1,161.4 M90.1,162.4h2.5c4.5,0,8.3,3.4,8.8,7.8H90.1V162.4z"/>
		<polygon class="st14" points="89.1,158.4 89.1,171.2 68.9,171.2 79.2,158.5 		"/>
		<path class="st4" d="M68.9,170.2h19.2v-10.8l-8.8,0.1h0c-0.6,0-1-0.4-1-1c0-0.6,0.4-1,1-1l9.8-0.1h0c0.3,0,0.5,0.1,0.7,0.3
			c0.2,0.2,0.3,0.4,0.3,0.7v12.8c0,0.6-0.4,1-1,1H68.9c-0.6,0-1-0.4-1-1C67.9,170.7,68.3,170.2,68.9,170.2"/>
		<path class="st5" d="M85.9,205.9h52c2.1,0,3.8,1.7,3.8,3.8v3.2c0,2.1-1.7,3.8-3.8,3.8h-52c-2.1,0-3.8-1.7-3.8-3.8v-3.2
			C82.1,207.6,83.8,205.9,85.9,205.9"/>
		<path class="st4" d="M81.1,209.7v3.2c0,2.7,2.2,4.8,4.8,4.8h52c2.7,0,4.8-2.2,4.8-4.8v-3.2c0-2.7-2.2-4.8-4.8-4.8h-52
			C83.3,204.9,81.1,207.1,81.1,209.7 M83.1,209.7c0-1.5,1.3-2.8,2.8-2.8h52c1.5,0,2.8,1.3,2.8,2.8v3.2c0,1.5-1.3,2.8-2.8,2.8h-52
			c-1.5,0-2.8-1.3-2.8-2.8V209.7z"/>
		<rect x="105.9" y="216.7" class="st5" width="12" height="10"/>
		<path class="st4" d="M104.9,216.7v10c0,0.6,0.4,1,1,1h12c0.6,0,1-0.4,1-1v-10c0-0.6-0.4-1-1-1h-12
			C105.4,215.7,104.9,216.2,104.9,216.7 M107,217.7h10v8h-10V217.7z"/>
		<rect x="105.9" y="246.8" class="st5" width="12" height="7.3"/>
		<path class="st4" d="M104.9,246.8v7.3c0,0.6,0.4,1,1,1h12c0.6,0,1-0.4,1-1v-7.3c0-0.6-0.4-1-1-1h-12
			C105.4,245.8,104.9,246.3,104.9,246.8 M107,247.8h10v5.3h-10V247.8z"/>
		<rect x="107.5" y="226.7" class="st5" width="8.9" height="20"/>
		<path class="st4" d="M106.5,226.7v20c0,0.6,0.4,1,1,1h8.9c0.6,0,1-0.4,1-1v-20c0-0.6-0.4-1-1-1h-8.9
			C106.9,225.7,106.5,226.2,106.5,226.7 M108.5,227.7h6.9v18h-6.9V227.7z"/>
		<path class="st3" d="M134.8,259.6c2.3,0,4.2,1.9,4.2,4.2c0,2.3-1.9,4.2-4.2,4.2s-4.2-1.9-4.2-4.2
			C130.6,261.5,132.5,259.6,134.8,259.6"/>
		<path class="st4" d="M129.6,263.8c0,2.9,2.3,5.2,5.2,5.2c2.9,0,5.2-2.3,5.2-5.2s-2.3-5.2-5.2-5.2
			C132,258.6,129.6,260.9,129.6,263.8 M131.6,263.8c0-1.8,1.4-3.2,3.2-3.2s3.2,1.4,3.2,3.2c0,1.8-1.4,3.2-3.2,3.2
			S131.6,265.6,131.6,263.8"/>
		<path class="st3" d="M89,259.6c2.3,0,4.2,1.9,4.2,4.2c0,2.3-1.9,4.2-4.2,4.2s-4.2-1.9-4.2-4.2C84.8,261.5,86.7,259.6,89,259.6"/>
		<path class="st4" d="M83.8,263.8c0,2.9,2.3,5.2,5.2,5.2s5.2-2.3,5.2-5.2s-2.3-5.2-5.2-5.2S83.8,260.9,83.8,263.8 M85.8,263.8
			c0-1.8,1.4-3.2,3.2-3.2c1.8,0,3.2,1.4,3.2,3.2c0,1.8-1.4,3.2-3.2,3.2C87.3,267,85.8,265.6,85.8,263.8"/>
		<path class="st3" d="M111.9,259.6c2.3,0,4.2,1.9,4.2,4.2c0,2.3-1.9,4.2-4.2,4.2c-2.3,0-4.2-1.9-4.2-4.2
			C107.7,261.5,109.6,259.6,111.9,259.6"/>
		<path class="st4" d="M106.7,263.8c0,2.9,2.3,5.2,5.2,5.2c2.9,0,5.2-2.3,5.2-5.2s-2.3-5.2-5.2-5.2
			C109.1,258.6,106.7,260.9,106.7,263.8 M108.7,263.8c0-1.8,1.4-3.2,3.2-3.2c1.8,0,3.2,1.4,3.2,3.2c0,1.8-1.4,3.2-3.2,3.2
			C110.2,267,108.7,265.6,108.7,263.8"/>
		<path class="st5" d="M89.3,254.1h29h16.2c2.6,0,4.8,2.1,4.8,4.8h-20.9H84.6C84.6,256.2,86.7,254.1,89.3,254.1"/>
		<path class="st4" d="M83.6,258.9c0,0.6,0.4,1,1,1h54.8c0.6,0,1-0.4,1-1c0-3.2-2.6-5.8-5.8-5.8H89.3
			C86.1,253.1,83.6,255.7,83.6,258.9 M85.7,257.9c0.4-1.6,1.9-2.8,3.6-2.8h45.2c1.7,0,3.2,1.2,3.6,2.8H85.7z"/>
		<path class="st15" d="M111.2,92.7c0.2-0.5,0.7-0.8,1.3-0.6c0.5,0.2,0.8,0.7,0.6,1.3l-2.9,9c-0.2,0.5,0,1,0.2,1.3
			c0.1,0.1,0.1,0.2,0.2,0.2h1.6c0.6,0,1,0.4,1,1c0,0.6-0.4,1-1,1h-1.6c-0.7,0-1.4-0.4-1.8-1c-0.6-0.8-0.8-2-0.4-3.1L111.2,92.7z"/>
		<path class="st4" d="M156.8,178.8c0.6,0,1,0.4,1,1V268c0,0.6-0.4,1-1,1c-0.6,0-1-0.4-1-1v-88.3
			C155.8,179.2,156.3,178.8,156.8,178.8"/>
		<path class="st4" d="M9.1,178.8c0.6,0,1,0.4,1,1V268c0,0.6-0.4,1-1,1c-0.6,0-1-0.4-1-1v-88.3C8.1,179.2,8.6,178.8,9.1,178.8"/>
		<path class="st16" d="M34.1,263.4L50,252.2l14.4-49.9c0.7-2.6,1.7-5,2.9-6.8c2.6-3.6,6.2-5.7,10.9-5.7h59.6
			c0,10.3-8.3,15.6-18.6,15.6H80.6l-20.8,46.5l0,6.4v9.8h-3.3l-0.9-5.1c-1.7,0.7-3.7,1.6-6.1,2.4c-4.8,1.6-5.6,2.8-15.7,2.8
			C31.5,268,32,264.5,34.1,263.4"/>
		<path class="st17" d="M31.4,267.2c0.3,1.1,1.2,1.8,2.5,1.8c8.3,0,10.5-0.8,13.5-1.9c0.7-0.3,1.5-0.6,2.5-0.9
			c1.7-0.5,3.4-1.2,5.1-1.9l0.7,3.9c0.1,0.5,0.5,0.8,1,0.8h3.3c0.6,0,1-0.4,1-1l0-16l20.4-45.7h38c5.5,0,10.2-1.4,13.7-4.2
			c3.8-3,5.8-7.3,5.8-12.4c0-0.6-0.4-1-1-1H78.1c-4.9,0-8.8,2.1-11.7,6.1c-1.2,1.7-2.3,4.2-3.1,7.1l-14.3,49.6l-15.5,11
			C31.9,263.5,31,265.6,31.4,267.2 M34.6,264.2C34.6,264.2,34.7,264.2,34.6,264.2L50.5,253c0.2-0.1,0.3-0.3,0.4-0.5l14.4-49.9
			c0,0,0,0,0,0c0.7-2.7,1.7-4.9,2.8-6.5c2.5-3.5,5.9-5.3,10.1-5.3h58.6c-0.2,4.1-2,7.5-5,9.9c-3.1,2.4-7.5,3.8-12.5,3.8H80.6
			c-0.4,0-0.8,0.2-0.9,0.6l-20.8,46.5c-0.1,0.1-0.1,0.3-0.1,0.4l0,15.2h-1.4l-0.7-4.3c-0.1-0.3-0.2-0.6-0.5-0.7
			c-0.1-0.1-0.3-0.1-0.5-0.1c-0.1,0-0.3,0-0.4,0.1c-2,0.9-4,1.7-6,2.3c-1,0.3-1.8,0.6-2.5,0.9c-3,1.1-4.9,1.8-12.8,1.8
			c-0.4,0-0.5-0.1-0.5-0.3C33.2,266,33.7,264.8,34.6,264.2"/>
		<path class="st1" d="M40.6,258.9l9.4-6.8l14.4-49.9c0.7-2.6,1.7-5,2.9-6.8c2.6-3.6,6.2-5.7,10.9-5.7h59.6
			c0,10.3-8.3,15.6-18.6,15.6H80.6l-20.8,46.5l0,3.2c0,0-11.9,6.2-18.1,6.2C39.4,261.3,38.5,260.1,40.6,258.9"/>
		<path class="st17" d="M38.5,260.6c0.3,1,1.5,1.6,3.3,1.6c6.4,0,18.1-6.1,18.6-6.4c0.3-0.2,0.5-0.5,0.5-0.9l0-3l20.4-45.7h38
			c5.5,0,10.2-1.4,13.7-4.2c3.8-3,5.8-7.3,5.8-12.4c0-0.6-0.4-1-1-1H78.1c-4.9,0-8.8,2.1-11.7,6.1c-1.2,1.7-2.3,4.2-3.1,7.1
			l-14.3,49.6l-9.1,6.5C38.3,259.1,38.3,260.1,38.5,260.6 M40.6,260.1c0.1-0.1,0.2-0.2,0.5-0.3c0,0,0.1,0,0.1-0.1l9.4-6.8
			c0.2-0.1,0.3-0.3,0.4-0.5l14.4-49.9c0,0,0,0,0,0c0.7-2.7,1.7-4.9,2.8-6.5c2.5-3.5,5.9-5.3,10.1-5.3h58.6c-0.2,4.1-2,7.5-5,9.9
			c-3.1,2.4-7.5,3.8-12.5,3.8H80.6c-0.4,0-0.8,0.2-0.9,0.6l-20.8,46.5c-0.1,0.1-0.1,0.3-0.1,0.4l0,2.6c-2.4,1.2-11.9,5.9-17.1,5.9
			C41.2,260.2,40.8,260.2,40.6,260.1 M40.4,260.4L40.4,260.4L40.4,260.4z"/>
		<path class="st14" d="M34.1,263.4L50,252.2l14.4-49.9c0.7-2.6,1.7-5,2.9-6.8c2.6-3.6,6.2-5.7,10.9-5.7h59.6
			c0,10.3-8.3,15.6-18.6,15.6H80.6l-20.8,46.5l0,6.4v9.8h-3.3l-0.9-5.1c-1.7,0.7-3.7,1.6-6.1,2.4c-4.8,1.6-5.6,2.8-15.7,2.8
			C31.5,268,32,264.5,34.1,263.4"/>
		<path class="st4" d="M31.4,267.2c0.3,1.1,1.2,1.8,2.5,1.8c8.3,0,10.5-0.8,13.5-1.9c0.7-0.3,1.5-0.6,2.5-0.9
			c1.7-0.5,3.4-1.2,5.1-1.9l0.7,3.9c0.1,0.5,0.5,0.8,1,0.8h3.3c0.6,0,1-0.4,1-1l0-16l20.4-45.7h38c5.5,0,10.2-1.4,13.7-4.2
			c3.8-3,5.8-7.3,5.8-12.4c0-0.6-0.4-1-1-1H78.1c-4.9,0-8.8,2.1-11.7,6.1c-1.2,1.7-2.3,4.2-3.1,7.1l-14.3,49.6l-15.5,11
			C31.9,263.5,31,265.6,31.4,267.2 M34.6,264.2C34.6,264.2,34.7,264.2,34.6,264.2L50.5,253c0.2-0.1,0.3-0.3,0.4-0.5l14.4-49.9
			c0,0,0,0,0,0c0.7-2.7,1.7-4.9,2.8-6.5c2.5-3.5,5.9-5.3,10.1-5.3h58.6c-0.2,4.1-2,7.5-5,9.9c-3.1,2.4-7.5,3.8-12.5,3.8H80.6
			c-0.4,0-0.8,0.2-0.9,0.6l-20.8,46.5c-0.1,0.1-0.1,0.3-0.1,0.4l0,15.2h-1.4l-0.7-4.3c-0.1-0.3-0.2-0.6-0.5-0.7
			c-0.1-0.1-0.3-0.1-0.5-0.1c-0.1,0-0.3,0-0.4,0.1c-2,0.9-4,1.7-6,2.3c-1,0.3-1.8,0.6-2.5,0.9c-3,1.1-4.9,1.8-12.8,1.8
			c-0.4,0-0.5-0.1-0.5-0.3C33.2,266,33.7,264.8,34.6,264.2"/>
		<path class="st1" d="M40.6,258.9l9.4-6.8l14.4-49.9c0.7-2.6,1.7-5,2.9-6.8c2.6-3.6,6.2-5.7,10.9-5.7h59.6
			c0,10.3-8.3,15.6-18.6,15.6H80.6l-20.8,46.5l0,3.2c0,0-11.9,6.2-18.1,6.2C39.4,261.3,38.5,260.1,40.6,258.9"/>
		<path class="st4" d="M38.5,260.6c0.3,1,1.5,1.6,3.3,1.6c6.4,0,18.1-6.1,18.6-6.4c0.3-0.2,0.5-0.5,0.5-0.9l0-3l20.4-45.7h38
			c5.5,0,10.2-1.4,13.7-4.2c3.8-3,5.8-7.3,5.8-12.4c0-0.6-0.4-1-1-1H78.1c-4.9,0-8.8,2.1-11.7,6.1c-1.2,1.7-2.3,4.2-3.1,7.1
			l-14.3,49.6l-9.1,6.5C38.3,259.1,38.3,260.1,38.5,260.6 M40.6,260.1c0.1-0.1,0.2-0.2,0.5-0.3c0,0,0.1,0,0.1-0.1l9.4-6.8
			c0.2-0.1,0.3-0.3,0.4-0.5l14.4-49.9c0,0,0,0,0,0c0.7-2.7,1.7-4.9,2.8-6.5c2.5-3.5,5.9-5.3,10.1-5.3h58.6c-0.2,4.1-2,7.5-5,9.9
			c-3.1,2.4-7.5,3.8-12.5,3.8H80.6c-0.4,0-0.8,0.2-0.9,0.6l-20.8,46.5c-0.1,0.1-0.1,0.3-0.1,0.4l0,2.6c-2.4,1.2-11.9,5.9-17.1,5.9
			C41.2,260.2,40.8,260.2,40.6,260.1 M40.4,260.4L40.4,260.4L40.4,260.4z"/>
		<path class="st3" d="M19.7,107.7h57.6c3,0,5.5,2.4,5.5,5.5v35.4c0,3-2.4,5.5-5.5,5.5H19.7c-3,0-5.5-2.5-5.5-5.5v-35.4
			C14.2,110.2,16.6,107.7,19.7,107.7"/>
		<path class="st4" d="M13.2,113.2v35.4c0,3.6,2.9,6.5,6.5,6.5h57.6c3.6,0,6.5-2.9,6.5-6.5v-35.4c0-3.6-2.9-6.5-6.5-6.5H19.7
			C16.1,106.7,13.2,109.6,13.2,113.2 M15.2,113.2c0-2.5,2-4.5,4.5-4.5h57.6c2.5,0,4.5,2,4.5,4.5v35.4c0,2.5-2,4.5-4.5,4.5H19.7
			c-2.5,0-4.5-2-4.5-4.5V113.2z"/>
		<path class="st1" d="M15.5,107.7h57.6c3,0,5.5,2.4,5.5,5.5v35.4c0,3-2.4,5.5-5.5,5.5H15.5c-3,0-5.5-2.5-5.5-5.5v-35.4
			C10,110.2,12.4,107.7,15.5,107.7"/>
		<path class="st4" d="M9,113.2v35.4c0,3.6,2.9,6.5,6.5,6.5h57.6c3.6,0,6.5-2.9,6.5-6.5v-35.4c0-3.6-2.9-6.5-6.5-6.5H15.5
			C11.9,106.7,9,109.6,9,113.2 M11,113.2c0-2.5,2-4.5,4.5-4.5h57.6c2.5,0,4.5,2,4.5,4.5v35.4c0,2.5-2,4.5-4.5,4.5H15.5
			c-2.5,0-4.5-2-4.5-4.5V113.2z"/>
		<path class="st1" d="M33,166.3h30.9c3,0,5.5,2.6,5.5,5.7H27.6C27.6,168.9,30,166.3,33,166.3"/>
		<path class="st4" d="M26.6,172.1c0,0.6,0.4,1.1,1,1.1h41.8c0.6,0,1-0.5,1-1.1c0-3.7-2.9-6.8-6.5-6.8H33
			C29.5,165.3,26.6,168.3,26.6,172.1 M28.7,171c0.5-2.1,2.2-3.6,4.4-3.6h30.9c2.1,0,3.9,1.6,4.4,3.6H28.7z"/>
		<rect x="37.4" y="154.1" class="st1" width="22.1" height="12.2"/>
		<path class="st4" d="M36.4,154.1v12.2c0,0.6,0.4,1.1,1,1.1h22.1c0.6,0,1-0.5,1-1.1v-12.2c0-0.6-0.4-1.1-1-1.1H37.4
			C36.8,153,36.4,153.5,36.4,154.1 M38.4,155.1h20.1v10.1H38.4V155.1z"/>
		<path class="st15" d="M115.4,93.6h1c0.6,0,1,0.4,1,1c0,0.6-0.4,1-1,1h-1c-0.6,0-1-0.4-1-1C114.4,94.1,114.9,93.6,115.4,93.6"/>
		<path class="st15" d="M107.1,93.6h1c0.6,0,1,0.4,1,1c0,0.6-0.4,1-1,1h-1c-0.6,0-1-0.4-1-1C106.1,94.1,106.5,93.6,107.1,93.6"/>
		<rect x="4.1" y="172.2" class="st1" width="171.3" height="8.1"/>
		<path class="st4" d="M3.1,172.2v8.1c0,0.5,0.4,1,1,1h171.3c0.6,0,1-0.4,1-1v-8.1c0-0.5-0.4-1-1-1H4.1
			C3.6,171.2,3.1,171.6,3.1,172.2 M5.1,173.1h169.3v6.2H5.1V173.1z"/>
		<path class="st15" d="M110.1,108.7h4.5c0.6,0,1,0.4,1,1c0,0.6-0.4,1-1,1h-4.5c-0.6,0-1-0.4-1-1
			C109.1,109.1,109.6,108.7,110.1,108.7"/>
		<path class="st1" d="M127.9,100.9c0,6.5-5.3,11.7-11.7,11.7c-6.5,0-11.7-5.3-11.7-11.7V89.9l23.5,3.4V100.9z"/>
		<path class="st4" d="M104.5,88.9c0.6,0,1,0.4,1,1v10.9c0,5.9,4.8,10.7,10.7,10.7c5.9,0,10.7-4.8,10.7-10.7v-7.6c0-0.6,0.4-1,1-1
			c0.6,0,1,0.4,1,1v7.6c0,7-5.7,12.7-12.7,12.7c-7,0-12.7-5.7-12.7-12.7V89.9C103.4,89.3,103.9,88.9,104.5,88.9"/>
		<polygon class="st1" points="114,85.4 115.7,88.1 121.5,91.9 127.9,93.3 104.5,89.9 111.6,87.3 		"/>
		<path class="st1" d="M89.7,165.9h30.9c3,0,5.5,2.7,5.5,6.1H84.2C84.2,168.6,86.7,165.9,89.7,165.9"/>
		<path class="st4" d="M83.2,172c0,0.6,0.4,1.1,1,1.1H126c0.6,0,1-0.5,1-1.1c0-4-2.9-7.3-6.5-7.3H89.7C86.1,164.7,83.2,168,83.2,172
			 M85.3,170.9c0.5-2.2,2.2-3.9,4.4-3.9h30.9c2.1,0,3.9,1.7,4.4,3.9H85.3z"/>
		<path class="st11" d="M127.5,93.3L127.5,93.3c-6.2,0-11.6-3.9-13.6-9.5l15.6,9.3C128.8,93.2,128.1,93.3,127.5,93.3"/>
		<path class="st4" d="M113.5,82.9c0.5-0.2,1.1,0.1,1.3,0.6c1,2.6,2.6,4.7,4.9,6.3c2.3,1.6,5,2.5,7.8,2.5c0.6,0,1.2,0,1.9-0.1
			c0.5-0.1,1.1,0.3,1.1,0.9c0.1,0.5-0.3,1.1-0.9,1.1c-0.7,0.1-1.5,0.2-2.2,0.2c-3.2,0-6.3-1-9-2.8c-2.6-1.8-4.5-4.3-5.6-7.3
			C112.7,83.6,113,83.1,113.5,82.9"/>
		<path class="st11" d="M103.5,89.8l11.8-9.2C113.9,86.1,109,89.9,103.5,89.8"/>
		<path class="st4" d="M103.5,88.8C103.5,88.8,103.5,88.8,103.5,88.8c5.1,0,9.6-3.5,10.9-8.4c0.1-0.5,0.7-0.9,1.2-0.7
			c0.5,0.1,0.9,0.7,0.7,1.2c-1.5,5.9-6.8,9.9-12.8,9.9h0c-0.6,0-1-0.5-1-1C102.4,89.3,102.9,88.8,103.5,88.8"/>
		<path class="st3" d="M119.2,205.7H80.6l-0.2,0.4v-16.1h57.4C137.8,200.4,129.4,205.7,119.2,205.7"/>
		<path class="st4" d="M79.4,190.1v16.1c0,0.5,0.3,0.9,0.8,1c0.1,0,0.1,0,0.2,0c0.3,0,0.6-0.2,0.8-0.4h38c5.5,0,10.2-1.4,13.7-4.2
			c3.8-3,5.8-7.3,5.8-12.4c0-0.6-0.4-1-1-1H80.4C79.8,189.1,79.4,189.6,79.4,190.1 M81.4,191.1h55.3c-0.2,4.1-2,7.5-5,9.9
			c-3.1,2.4-7.5,3.8-12.5,3.8H81.4V191.1z"/>
		<path class="st1" d="M129.6,99.1L129.6,99.1c0,1.4-1.1,2.5-2.5,2.5h-0.8v-5h0.8C128.5,96.6,129.6,97.7,129.6,99.1"/>
		<path class="st4" d="M127.1,97.6h-0.8c-0.6,0-1-0.4-1-1c0-0.6,0.4-1,1-1h0.8c1.9,0,3.5,1.6,3.5,3.5c0,1.9-1.6,3.5-3.5,3.5h-0.8
			c-0.6,0-1-0.4-1-1c0-0.6,0.4-1,1-1h0.8c0.8,0,1.5-0.7,1.5-1.5S128,97.6,127.1,97.6"/>
		<polygon class="st1" points="19.9,267.5 10.1,267.5 10.1,181.3 19.9,181.3 		"/>
		<path class="st4" d="M48.7,34.5c-0.7,0-1.2,0.6-1.2,1.2v2.1c0,0.7,0.6,1.2,1.2,1.2c0.7,0,1.2-0.6,1.2-1.2v-2.1
			C50,35,49.4,34.5,48.7,34.5"/>
		<path class="st4" d="M48.7,60.6c-0.7,0-1.2,0.6-1.2,1.2V64c0,0.7,0.6,1.2,1.2,1.2c0.7,0,1.2-0.6,1.2-1.2v-2.1
			C50,61.2,49.4,60.6,48.7,60.6"/>
		<path class="st4" d="M62.9,48.6h-2.1c-0.7,0-1.2,0.6-1.2,1.2c0,0.7,0.6,1.2,1.2,1.2h2.1c0.7,0,1.2-0.6,1.2-1.2
			C64.1,49.2,63.6,48.6,62.9,48.6"/>
		<path class="st4" d="M36.7,48.6h-2.1c-0.7,0-1.2,0.6-1.2,1.2c0,0.7,0.6,1.2,1.2,1.2h2.1c0.7,0,1.2-0.6,1.2-1.2
			C38,49.2,37.4,48.6,36.7,48.6"/>
		<path class="st4" d="M42.7,37c-0.3-0.6-1.1-0.8-1.7-0.5c-0.6,0.3-0.8,1.1-0.5,1.7l1.1,1.8c0.2,0.4,0.6,0.6,1.1,0.6
			c0.2,0,0.4-0.1,0.6-0.2c0.6-0.3,0.8-1.1,0.5-1.7L42.7,37z"/>
		<path class="st4" d="M55.8,59.6c-0.3-0.6-1.1-0.8-1.7-0.5c-0.6,0.3-0.8,1.1-0.5,1.7l1.1,1.8c0.2,0.4,0.6,0.6,1.1,0.6
			c0.2,0,0.4-0.1,0.6-0.2c0.6-0.3,0.8-1.1,0.5-1.7L55.8,59.6z"/>
		<path class="st4" d="M60.4,41.7l-1.8,1.1c-0.6,0.3-0.8,1.1-0.5,1.7c0.2,0.4,0.6,0.6,1.1,0.6c0.2,0,0.4-0.1,0.6-0.2l1.8-1.1
			c0.6-0.3,0.8-1.1,0.5-1.7C61.7,41.6,61,41.4,60.4,41.7"/>
		<path class="st4" d="M37.7,54.8l-1.8,1.1c-0.6,0.3-0.8,1.1-0.5,1.7c0.2,0.4,0.6,0.6,1.1,0.6c0.2,0,0.4-0.1,0.6-0.2l1.8-1.1
			c0.6-0.3,0.8-1.1,0.5-1.7C39.1,54.7,38.3,54.5,37.7,54.8"/>
		<path class="st4" d="M39,42.8l-1.8-1.1c-0.6-0.3-1.3-0.1-1.7,0.5c-0.3,0.6-0.1,1.3,0.5,1.7l1.8,1.1c0.2,0.1,0.4,0.2,0.6,0.2
			c0.4,0,0.8-0.2,1.1-0.6C39.7,43.9,39.5,43.1,39,42.8"/>
		<path class="st4" d="M61.6,55.9l-1.8-1.1c-0.6-0.3-1.3-0.1-1.7,0.5c-0.3,0.6-0.1,1.3,0.5,1.7l1.8,1.1c0.2,0.1,0.4,0.2,0.6,0.2
			c0.4,0,0.8-0.2,1.1-0.6C62.4,56.9,62.2,56.2,61.6,55.9"/>
		<path class="st4" d="M56.4,36.5c-0.6-0.3-1.3-0.1-1.7,0.5l-1.1,1.8c-0.3,0.6-0.1,1.3,0.5,1.7c0.2,0.1,0.4,0.2,0.6,0.2
			c0.4,0,0.8-0.2,1.1-0.6l1.1-1.8C57.2,37.6,57,36.9,56.4,36.5"/>
		<path class="st4" d="M43.3,59.2c-0.6-0.3-1.3-0.1-1.7,0.5l-1.1,1.8c-0.3,0.6-0.1,1.3,0.5,1.7c0.2,0.1,0.4,0.2,0.6,0.2
			c0.4,0,0.8-0.2,1.1-0.6l1.1-1.8C44.1,60.3,43.9,59.5,43.3,59.2"/>
		<path class="st4" d="M42.3,46.1l3.3,3.1c0.5,0.5,1.3,0.5,1.7,0c0.3-0.3,0.4-0.6,0.3-1c0-0.3-0.2-0.6-0.4-0.8L44,44.3
			c-0.5-0.5-1.3-0.5-1.7,0C41.7,44.9,41.8,45.6,42.3,46.1"/>
		<path class="st4" d="M47.4,47.5c0.2,0.6,0.9,1,1.6,0.8c0.6-0.2,1-0.9,0.8-1.6l-2.4-7.3c-0.1-0.3-0.3-0.6-0.6-0.7
			c-0.3-0.2-0.6-0.2-1-0.1c-0.6,0.2-1,0.9-0.8,1.6L47.4,47.5z"/>
		<path class="st4" d="M48.7,45.9c-2.2,0-4,1.8-4,4c0,2.2,1.8,4,4,4c2.2,0,4-1.8,4-4C52.7,47.7,50.9,45.9,48.7,45.9 M48.7,51.3
			c-0.8,0-1.5-0.7-1.5-1.5c0-0.8,0.7-1.5,1.5-1.5c0.8,0,1.5,0.7,1.5,1.5C50.2,50.7,49.6,51.3,48.7,51.3"/>
		<path class="st4" d="M48.7,27.7c-12.2,0-22.2,10-22.2,22.2c0,12.2,10,22.2,22.2,22.2s22.2-10,22.2-22.2
			C70.9,37.6,61,27.7,48.7,27.7 M48.7,69.6C37.9,69.6,29,60.7,29,49.9c0-10.9,8.8-19.7,19.7-19.7S68.5,39,68.5,49.9
			C68.5,60.7,59.6,69.6,48.7,69.6"/>
		<path class="st4" d="M126.6,145.7h-8.9c-1.1,0-2.1,0.9-2.1,2.1V164c0,1.1,0.9,2.1,2.1,2.1h8.9c1.1,0,2.1-0.9,2.1-2.1v-16.3
			C128.7,146.6,127.8,145.7,126.6,145.7"/>
		<path class="st1" d="M124.5,153.4c0,1.3-1,2.3-2.3,2.3c-1.3,0-2.3-1-2.3-2.3c0-1.3,1-2.3,2.3-2.3
			C123.5,151.1,124.5,152.1,124.5,153.4"/>
		<path class="st1" d="M130,162.1h3.5v10h-13.3C120.2,166.6,124.6,162.1,130,162.1"/>
		<path class="st4" d="M119.2,172.1c0,0.6,0.4,1,1,1h13.3c0.6,0,1-0.5,1-1v-10c0-0.6-0.4-1-1-1H130C124,161.1,119.2,166,119.2,172.1
			 M121.2,171.1c0.5-4.5,4.2-8,8.8-8h2.5v8H121.2z"/>
		<polygon class="st14" points="162.5,172 132,172 132,159.1 154,159.1 		"/>
		<path class="st4" d="M132,158L132,158l22,0.1c0.6,0,1,0.5,1,1c0,0.6-0.5,1-1,1h0l-21-0.1V171h29.4c0.6,0,1,0.5,1,1
			c0,0.6-0.4,1-1,1H132c-0.6,0-1-0.5-1-1v-13c0-0.3,0.1-0.5,0.3-0.7C131.5,158.1,131.8,158,132,158"/>
		<path class="st18" d="M564.9,126.2c-3.2-4.4-8.3-7-13.7-7h-6.7l37.7,52.8c6.4,0,10.2-7.3,6.4-12.5L564.9,126.2z"/>
		<path class="st4" d="M589.5,158.9l-23.8-33.3c-3.3-4.7-8.7-7.5-14.5-7.5h-6.7c-0.4,0-0.7,0.2-0.9,0.5c-0.2,0.3-0.1,0.7,0.1,1
			l37.7,52.8c0.2,0.3,0.5,0.4,0.8,0.4c1.7,0,3.4-0.5,4.8-1.4c1.3-0.8,2.4-2,3.1-3.5c0.7-1.4,1.1-3,1-4.6
			C591,161.9,590.5,160.3,589.5,158.9 M588.4,167.3c-1.1,2.2-3.2,3.6-5.7,3.7l-36.3-50.8h4.8c5.1,0,9.9,2.5,12.9,6.6l23.8,33.3
			C589.4,162.2,589.6,164.9,588.4,167.3"/>
		<path class="st4" d="M633,179.4c-0.5,0-1,0.4-1,1v86.5c0,0.5,0.4,1,1,1s1-0.4,1-1v-86.5C633.9,179.9,633.5,179.4,633,179.4"/>
		<path class="st18" d="M649.8,262.7l-20.9-7.5h-14.5v11.7h34.2C651,266.9,651.8,263.8,649.8,262.7"/>
		<path class="st4" d="M650.3,261.8c0,0-0.1-0.1-0.2-0.1l-20.9-7.5c-0.1,0-0.2-0.1-0.3-0.1h-14.5c-0.5,0-1,0.4-1,1v11.7
			c0,0.5,0.4,1,1,1h34.2c1.5,0,2.8-1,3.1-2.4C652.2,264,651.6,262.6,650.3,261.8 M649.9,265c-0.1,0.5-0.5,1-1.2,1h-33.2v-9.7h13.3
			l20.6,7.4C649.9,263.9,650,264.5,649.9,265"/>
		<path class="st3" d="M610.4,196.1c-2.5-3.6-6.1-5.6-10.7-5.6h-26.3l19,18.2h4.9l17.1,46.5h14.5l-15.6-52.4
			C612.6,200.2,611.6,197.8,610.4,196.1"/>
		<path class="st4" d="M614.2,202.5c-0.8-2.8-1.8-5.3-3-7c-2.8-4-6.7-6-11.5-6h-26.3c-0.5,0-1,0.4-1,1c0,0.5,0.4,1,1,1h26.3
			c4.1,0,7.4,1.7,9.9,5.2c1.1,1.5,2,3.7,2.7,6.3c0,0,0,0,0,0l15.3,51.2h-12.5l-16.9-45.8c-0.1-0.4-0.5-0.6-0.9-0.6h-4.9
			c-0.5,0-1,0.4-1,1c0,0.5,0.4,1,1,1h4.2l16.9,45.8c0.1,0.4,0.5,0.6,0.9,0.6h14.5c0.3,0,0.6-0.1,0.8-0.4c0.2-0.2,0.2-0.6,0.2-0.9
			L614.2,202.5z"/>
		<path class="st4" d="M597.3,207.7h-4.5l-16.9-16.2h16.5c0.5,0,1-0.4,1-1c0-0.5-0.4-1-1-1h-18.9c-0.4,0-0.8,0.2-0.9,0.6
			c-0.1,0.4-0.1,0.8,0.2,1.1l19,18.2c0.2,0.2,0.4,0.3,0.7,0.3h4.9c0.5,0,1-0.4,1-1C598.3,208.2,597.9,207.7,597.3,207.7"/>
		<path class="st18" d="M551.2,119.2h-23.9c-4.9,0-8.8,3.9-8.8,8.8v62.6H560V128C560,123.1,556.1,119.2,551.2,119.2"/>
		<path class="st4" d="M551.2,118.2h-23.9c-5.4,0-9.8,4.4-9.8,9.8v62.6c0,0.5,0.4,1,1,1H560c0.5,0,1-0.4,1-1V128
			C561,122.6,556.6,118.2,551.2,118.2 M559,189.6h-39.5V128c0-4.3,3.5-7.8,7.8-7.8h23.9c4.3,0,7.8,3.5,7.8,7.8V189.6z"/>
		<path class="st18" d="M513.5,126.2l-23.8,33.3c-3.7,5.2,0,12.5,6.4,12.5l27.9-39.1l9.8-13.8h-6.7
			C521.7,119.2,516.6,121.8,513.5,126.2"/>
		<path class="st4" d="M533.9,118.2h-6.7c-5.7,0-11.1,2.8-14.5,7.5l-23.8,33.3c-1,1.4-1.6,3-1.7,4.7c-0.1,1.6,0.3,3.1,1,4.6
			c0.7,1.4,1.8,2.6,3.1,3.5c1.4,0.9,3.1,1.4,4.8,1.4c0.3,0,0.6-0.2,0.8-0.4l27.9-39.1c0.3-0.4,0.2-1.1-0.2-1.4
			c-0.4-0.3-1.1-0.2-1.4,0.2L495.6,171c-2.4-0.2-4.5-1.5-5.7-3.7c-1.2-2.4-1-5,0.5-7.2l23.8-33.3c3-4.2,7.8-6.6,12.9-6.6h6.7
			c0.5,0,1-0.4,1-1C534.8,118.6,534.4,118.2,533.9,118.2"/>
		<path class="st4" d="M560,157.4c-0.5,0-1,0.4-1,1v31.1h-39.5v-31.1c0-0.5-0.4-1-1-1c-0.5,0-1,0.4-1,1v32.1c0,0.5,0.4,1,1,1H560
			c0.5,0,1-0.4,1-1v-32.1C561,157.9,560.5,157.4,560,157.4"/>
		<path class="st1" d="M553.1,172.1L553.1,172.1h13v-9.6h-3.4C557.4,162.4,553.1,166.8,553.1,172.1"/>
		<path class="st4" d="M566.2,161.5h-3.4c-5.9,0-10.6,4.8-10.6,10.6c0,0.5,0.4,1,1,1h13c0.5,0,1-0.4,1-1v-9.6
			C567.1,161.9,566.7,161.5,566.2,161.5 M565.2,171.1h-11c0.5-4.3,4.2-7.7,8.6-7.7h2.4V171.1z"/>
		<polygon class="st18" points="566.2,159.5 566.2,172 586,172 575.8,159.6 		"/>
		<path class="st4" d="M586,171h-18.8v-10.5l8.7,0.1c0,0,0,0,0,0c0.5,0,1-0.4,1-1c0-0.5-0.4-1-1-1l-9.6-0.1h0
			c-0.3,0-0.5,0.1-0.7,0.3c-0.2,0.2-0.3,0.4-0.3,0.7V172c0,0.5,0.4,1,1,1H586c0.5,0,1-0.4,1-1S586.5,171,586,171"/>
		<path class="st5" d="M569.3,208.7h-51c-2.1,0-3.7,1.7-3.7,3.7v3.1c0,2.1,1.7,3.7,3.7,3.7h51c2.1,0,3.7-1.7,3.7-3.7v-3.1
			C573,210.4,571.3,208.7,569.3,208.7"/>
		<path class="st4" d="M569.3,207.7h-51c-2.6,0-4.7,2.1-4.7,4.7v3.1c0,2.6,2.1,4.7,4.7,4.7h51c2.6,0,4.7-2.1,4.7-4.7v-3.1
			C574,209.9,571.9,207.7,569.3,207.7 M572,215.6c0,1.5-1.2,2.7-2.7,2.7h-51c-1.5,0-2.7-1.2-2.7-2.7v-3.1c0-1.5,1.2-2.7,2.7-2.7h51
			c1.5,0,2.7,1.2,2.7,2.7V215.6z"/>
		<rect x="537.9" y="219.3" class="st5" width="11.7" height="7.1"/>
		<path class="st4" d="M549.6,218.3h-11.7c-0.5,0-1,0.4-1,1v7.1c0,0.5,0.4,1,1,1h11.7c0.5,0,1-0.4,1-1v-7.1
			C550.6,218.7,550.2,218.3,549.6,218.3 M548.7,225.4h-9.8v-5.2h9.8V225.4z"/>
		<rect x="537.9" y="246.1" class="st5" width="11.7" height="7.1"/>
		<path class="st4" d="M549.6,245.1h-11.7c-0.5,0-1,0.4-1,1v7.1c0,0.5,0.4,1,1,1h11.7c0.5,0,1-0.4,1-1v-7.1
			C550.6,245.6,550.2,245.1,549.6,245.1 M548.7,252.3h-9.8v-5.2h9.8V252.3z"/>
		<rect x="539.4" y="226.4" class="st5" width="8.7" height="19.6"/>
		<path class="st4" d="M548.1,225.4h-8.7c-0.5,0-1,0.4-1,1V246c0,0.5,0.4,1,1,1h8.7c0.5,0,1-0.4,1-1v-19.6
			C549.1,225.9,548.7,225.4,548.1,225.4 M547.1,245h-6.7v-17.6h6.7V245z"/>
		<path class="st3" d="M521.3,258.6c-2.3,0-4.1,1.9-4.1,4.1s1.9,4.1,4.1,4.1c2.3,0,4.1-1.9,4.1-4.1S523.6,258.6,521.3,258.6"/>
		<path class="st4" d="M521.3,257.6c-2.8,0-5.1,2.3-5.1,5.1c0,2.8,2.3,5.1,5.1,5.1c2.8,0,5.1-2.3,5.1-5.1
			C526.4,259.9,524.2,257.6,521.3,257.6 M521.3,265.9c-1.7,0-3.2-1.4-3.2-3.2c0-1.7,1.4-3.2,3.2-3.2c1.7,0,3.2,1.4,3.2,3.2
			C524.5,264.5,523.1,265.9,521.3,265.9"/>
		<path class="st3" d="M566.2,258.6c-2.3,0-4.1,1.9-4.1,4.1s1.9,4.1,4.1,4.1c2.3,0,4.1-1.9,4.1-4.1S568.5,258.6,566.2,258.6"/>
		<path class="st4" d="M566.2,257.6c-2.8,0-5.1,2.3-5.1,5.1c0,2.8,2.3,5.1,5.1,5.1s5.1-2.3,5.1-5.1
			C571.3,259.9,569,257.6,566.2,257.6 M566.2,265.9c-1.7,0-3.2-1.4-3.2-3.2c0-1.7,1.4-3.2,3.2-3.2c1.7,0,3.2,1.4,3.2,3.2
			C569.4,264.5,568,265.9,566.2,265.9"/>
		<path class="st3" d="M543.8,258.6c-2.3,0-4.1,1.9-4.1,4.1s1.9,4.1,4.1,4.1s4.1-1.9,4.1-4.1S546.1,258.6,543.8,258.6"/>
		<path class="st4" d="M543.8,257.6c-2.8,0-5.1,2.3-5.1,5.1c0,2.8,2.3,5.1,5.1,5.1s5.1-2.3,5.1-5.1
			C548.9,259.9,546.6,257.6,543.8,257.6 M543.8,265.9c-1.7,0-3.2-1.4-3.2-3.2c0-1.7,1.4-3.2,3.2-3.2s3.2,1.4,3.2,3.2
			C546.9,264.5,545.5,265.9,543.8,265.9"/>
		<path class="st18" d="M626.9,262.7l-20.9-7.5h-14.5v11.7h34.2C628.1,266.9,629,263.8,626.9,262.7"/>
		<path class="st4" d="M627.4,261.8c0,0-0.1-0.1-0.2-0.1l-20.9-7.5c-0.1,0-0.2-0.1-0.3-0.1h-14.5c-0.5,0-1,0.4-1,1v11.7
			c0,0.5,0.4,1,1,1h34.2c1.5,0,2.8-1,3.1-2.4C629.3,264,628.7,262.6,627.4,261.8 M627.1,265c-0.1,0.5-0.5,1-1.2,1h-33.2v-9.7h13.3
			l20.6,7.4C627.1,263.9,627.2,264.5,627.1,265"/>
		<path class="st5" d="M565.9,253.2h-28.5h-15.9c-2.6,0-4.7,2.1-4.7,4.7h20.5h33.1C570.6,255.3,568.5,253.2,565.9,253.2"/>
		<path class="st4" d="M565.9,252.3h-44.3c-3.1,0-5.6,2.5-5.6,5.6c0,0.5,0.4,1,1,1h53.6c0.5,0,1-0.4,1-1
			C571.6,254.8,569,252.3,565.9,252.3 M518.1,256.9c0.4-1.6,1.9-2.7,3.5-2.7h44.3c1.7,0,3.1,1.1,3.5,2.7H518.1z"/>
		<path class="st1" d="M539.2,83.8L539.2,83.8c-6.4,0-11.5,5.2-11.5,11.5v23.9h23V95.3C550.7,88.9,545.5,83.8,539.2,83.8"/>
		<path class="st4" d="M539.2,82.8c-6.9,0-12.5,5.6-12.5,12.5v23.9c0,0.5,0.4,1,1,1h23c0.5,0,1-0.4,1-1V95.3
			C551.6,88.4,546,82.8,539.2,82.8 M549.7,118.2h-21V95.3c0-5.8,4.7-10.5,10.5-10.5c5.8,0,10.5,4.7,10.5,10.5V118.2z"/>
		<path class="st11" d="M538.4,77.6c-5.9,0-10.7,4.8-10.7,10.7v19.2h5.1l2.7-19.1h6.3c11.9,0,10.8-10.8,10.8-10.8H538.4z"/>
		<path class="st4" d="M552.7,76.6h-14.3c-6.5,0-11.7,5.3-11.7,11.7v19.2c0,0.5,0.4,1,1,1h5.1c0.5,0,0.9-0.4,1-0.8l2.6-18.2h5.5
			c4,0,7.1-1.2,9.1-3.4c3.1-3.5,2.7-8.3,2.7-8.5C553.6,77,553.2,76.6,552.7,76.6 M549.5,84.6c-1.7,1.8-4.2,2.8-7.7,2.8h-6.3
			c-0.5,0-0.9,0.4-1,0.8l-2.6,18.2h-3.3V88.3c0-5.4,4.4-9.8,9.8-9.8h13.3C551.7,79.9,551.4,82.6,549.5,84.6"/>
		<path class="st1" d="M531.3,105L531.3,105c0,1.4,1.1,2.5,2.5,2.5h0.8v-4.9h-0.8C532.4,102.5,531.3,103.6,531.3,105"/>
		<path class="st4" d="M533.8,103.5h0.8c0.5,0,1-0.4,1-1c0-0.5-0.4-1-1-1h-0.8c-1.9,0-3.5,1.6-3.5,3.5c0,1.9,1.6,3.5,3.5,3.5h0.8
			c0.5,0,1-0.4,1-1s-0.4-1-1-1h-0.8c-0.8,0-1.5-0.7-1.5-1.5C532.3,104.2,532.9,103.5,533.8,103.5"/>
		<path class="st4" d="M488.2,179.4c-0.5,0-1,0.4-1,1v86.5c0,0.5,0.4,1,1,1c0.5,0,1-0.4,1-1v-86.5
			C489.2,179.9,488.8,179.4,488.2,179.4"/>
		<path class="st4" d="M499.8,179.4c-0.5,0-1,0.4-1,1v86.5c0,0.5,0.4,1,1,1c0.5,0,1-0.4,1-1v-86.5
			C500.8,179.9,500.3,179.4,499.8,179.4"/>
		<path class="st4" d="M644.5,179.4c-0.5,0-1,0.4-1,1v80.2c0,0.5,0.4,1,1,1s1-0.4,1-1v-80.2C645.5,179.9,645,179.4,644.5,179.4"/>
		<path class="st3" d="M587.6,196.1c-2.5-3.6-6.1-5.6-10.7-5.6h-58.4c0,10,8.1,18.2,18.2,18.2h37.8l17.1,46.5H606l-15.6-52.4
			C589.7,200.2,588.8,197.8,587.6,196.1"/>
		<path class="st4" d="M591.4,202.5c-0.8-2.8-1.8-5.3-3-7c-2.8-4-6.7-6-11.5-6h-58.4c-0.5,0-1,0.4-1,1c0,10.6,8.6,19.2,19.2,19.2
			h37.1l16.9,45.8c0.1,0.4,0.5,0.6,0.9,0.6H606c0.3,0,0.6-0.1,0.8-0.4c0.2-0.2,0.2-0.6,0.2-0.9L591.4,202.5z M592.3,254.2
			l-16.9-45.8c-0.1-0.4-0.5-0.6-0.9-0.6h-37.8c-9.2,0-16.7-7.2-17.2-16.2h57.4c4.1,0,7.4,1.7,9.9,5.2c1.1,1.5,2,3.7,2.7,6.3
			c0,0,0,0,0,0l15.3,51.2H592.3z"/>
		<rect x="481.5" y="172" class="st1" width="167.9" height="8.4"/>
		<path class="st4" d="M649.4,171H481.5c-0.5,0-1,0.4-1,1v8.4c0,0.5,0.4,1,1,1h167.9c0.5,0,1-0.4,1-1V172
			C650.4,171.5,649.9,171,649.4,171 M648.4,179.4H482.5V173h165.9V179.4z"/>
		<path class="st1" d="M565.6,166.6h-30.3c-3,0-5.4,2.4-5.4,5.4h41C570.9,169,568.5,166.6,565.6,166.6"/>
		<path class="st4" d="M565.6,165.7h-30.3c-3.5,0-6.3,2.8-6.3,6.3c0,0.5,0.4,1,1,1h41c0.5,0,1-0.4,1-1
			C571.9,168.5,569.1,165.7,565.6,165.7 M531,171c0.4-1.9,2.2-3.4,4.3-3.4h30.3c2.1,0,3.8,1.5,4.3,3.4H531z"/>
		<path class="st1" d="M526.1,162.4h-3.4v9.6h13C535.7,166.8,531.4,162.4,526.1,162.4"/>
		<path class="st4" d="M526.1,161.5h-3.4c-0.5,0-1,0.4-1,1v9.6c0,0.5,0.4,1,1,1h13c0.5,0,1-0.4,1-1
			C536.7,166.2,531.9,161.5,526.1,161.5 M523.7,171.1v-7.7h2.4c4.4,0,8.1,3.4,8.6,7.7H523.7z"/>
		<polygon class="st18" points="494.3,172 524.1,172 524.1,159.5 502.6,159.6 		"/>
		<path class="st4" d="M524.1,158.5L524.1,158.5l-21.5,0.1c-0.5,0-1,0.4-1,1c0,0.5,0.4,1,1,1h0l20.5-0.1V171h-28.8c-0.5,0-1,0.4-1,1
			c0,0.5,0.4,1,1,1h29.8c0.5,0,1-0.4,1-1v-12.5c0-0.3-0.1-0.5-0.3-0.7C524.6,158.6,524.3,158.5,524.1,158.5"/>
		<path class="st3" d="M625.8,138.7h-37.2c-2.4,0-4.9,2-5.4,4.4l-5.4,25.4H562c-1.9,0-3.5,1.6-3.5,3.5h18.6h8.8h37.3l6.1-28.9
			C629.8,140.7,628.3,138.7,625.8,138.7"/>
		<path class="st4" d="M625.8,137.8h-37.2c-2.9,0-5.7,2.3-6.3,5.2l-5.2,24.6H562c-2.5,0-4.5,2-4.5,4.5c0,0.5,0.4,1,1,1h64.7
			c0.5,0,0.9-0.3,0.9-0.8l6.1-28.9c0.3-1.5,0-2.9-0.9-4C628.6,138.3,627.3,137.8,625.8,137.8 M628.4,143l-6,28.1h-62.8
			c0.4-0.9,1.3-1.5,2.3-1.5h15.9c0.5,0,0.9-0.3,0.9-0.8l5.4-25.4c0.4-2,2.4-3.7,4.4-3.7h37.2c0.9,0,1.6,0.3,2.1,0.9
			C628.4,141.2,628.6,142.1,628.4,143"/>
		<path class="st1" d="M629.2,138.7h-37.2c-2.4,0-4.9,2-5.4,4.4l-6.1,28.9h46.1l6.1-28.9C633.2,140.7,631.6,138.7,629.2,138.7"/>
		<path class="st4" d="M629.2,137.8h-37.2c-2.9,0-5.7,2.3-6.3,5.2l-6.1,28.9c-0.1,0.3,0,0.6,0.2,0.8c0.2,0.2,0.5,0.4,0.8,0.4h46.1
			c0.5,0,0.9-0.3,0.9-0.8l6.1-28.9c0.3-1.5,0-2.9-0.9-4C631.9,138.3,630.6,137.8,629.2,137.8 M631.7,143l-6,28.1h-44.1l5.9-27.7
			c0.4-2,2.4-3.7,4.4-3.7h37.2c0.9,0,1.6,0.3,2.1,0.9C631.7,141.2,631.9,142.1,631.7,143"/>
		<path class="st4" d="M585.2,34.5c-0.7,0-1.2,0.6-1.2,1.2v2.1c0,0.7,0.6,1.2,1.2,1.2s1.2-0.6,1.2-1.2v-2.1
			C586.4,35,585.9,34.5,585.2,34.5"/>
		<path class="st4" d="M585.2,60.6c-0.7,0-1.2,0.6-1.2,1.2V64c0,0.7,0.6,1.2,1.2,1.2s1.2-0.6,1.2-1.2v-2.1
			C586.4,61.2,585.9,60.6,585.2,60.6"/>
		<path class="st4" d="M599.3,48.6h-2.1c-0.7,0-1.2,0.6-1.2,1.2c0,0.7,0.6,1.2,1.2,1.2h2.1c0.7,0,1.2-0.6,1.2-1.2
			C600.6,49.2,600,48.6,599.3,48.6"/>
		<path class="st4" d="M573.2,48.6h-2.1c-0.7,0-1.2,0.6-1.2,1.2c0,0.7,0.6,1.2,1.2,1.2h2.1c0.7,0,1.2-0.6,1.2-1.2
			C574.4,49.2,573.9,48.6,573.2,48.6"/>
		<path class="st4" d="M579.2,37c-0.3-0.6-1.1-0.8-1.7-0.5c-0.6,0.3-0.8,1.1-0.5,1.7l1.1,1.8c0.2,0.4,0.6,0.6,1.1,0.6
			c0.2,0,0.4-0.1,0.6-0.2c0.6-0.3,0.8-1.1,0.5-1.7L579.2,37z"/>
		<path class="st4" d="M592.3,59.6c-0.3-0.6-1.1-0.8-1.7-0.5c-0.6,0.3-0.8,1.1-0.5,1.7l1.1,1.8c0.2,0.4,0.6,0.6,1.1,0.6
			c0.2,0,0.4-0.1,0.6-0.2c0.6-0.3,0.8-1.1,0.5-1.7L592.3,59.6z"/>
		<path class="st4" d="M596.8,41.7l-1.8,1.1c-0.6,0.3-0.8,1.1-0.5,1.7c0.2,0.4,0.6,0.6,1.1,0.6c0.2,0,0.4-0.1,0.6-0.2l1.8-1.1
			c0.6-0.3,0.8-1.1,0.5-1.7C598.2,41.6,597.4,41.4,596.8,41.7"/>
		<path class="st4" d="M574.2,54.8l-1.8,1.1c-0.6,0.3-0.8,1.1-0.5,1.7c0.2,0.4,0.6,0.6,1.1,0.6c0.2,0,0.4-0.1,0.6-0.2l1.8-1.1
			c0.6-0.3,0.8-1.1,0.5-1.7C575.5,54.7,574.8,54.5,574.2,54.8"/>
		<path class="st4" d="M575.4,42.8l-1.8-1.1c-0.6-0.3-1.3-0.1-1.7,0.5c-0.3,0.6-0.1,1.3,0.5,1.7l1.8,1.1c0.2,0.1,0.4,0.2,0.6,0.2
			c0.4,0,0.8-0.2,1.1-0.6C576.2,43.9,576,43.1,575.4,42.8"/>
		<path class="st4" d="M598.1,55.9l-1.8-1.1c-0.6-0.3-1.3-0.1-1.7,0.5c-0.3,0.6-0.1,1.3,0.5,1.7l1.8,1.1c0.2,0.1,0.4,0.2,0.6,0.2
			c0.4,0,0.8-0.2,1.1-0.6C598.8,56.9,598.6,56.2,598.1,55.9"/>
		<path class="st4" d="M592.9,36.5c-0.6-0.3-1.3-0.1-1.7,0.5l-1.1,1.8c-0.3,0.6-0.1,1.3,0.5,1.7c0.2,0.1,0.4,0.2,0.6,0.2
			c0.4,0,0.8-0.2,1.1-0.6l1.1-1.8C593.7,37.6,593.5,36.9,592.9,36.5"/>
		<path class="st4" d="M579.8,59.2c-0.6-0.3-1.3-0.1-1.7,0.5l-1.1,1.8c-0.3,0.6-0.1,1.3,0.5,1.7c0.2,0.1,0.4,0.2,0.6,0.2
			c0.4,0,0.8-0.2,1.1-0.6l1.1-1.8C580.6,60.3,580.4,59.5,579.8,59.2"/>
		<path class="st4" d="M581.4,56.2l3.1-3.2c0.5-0.5,0.5-1.3,0-1.7c-0.3-0.3-0.6-0.4-0.9-0.3c-0.3,0-0.6,0.1-0.8,0.4l-3.1,3.2
			c-0.5,0.5-0.5,1.3,0,1.7C580.2,56.7,580.9,56.7,581.4,56.2"/>
		<path class="st4" d="M586.6,47.4c-0.5,0.5-0.4,1.3,0.1,1.7c0.5,0.5,1.3,0.4,1.7-0.1l5.1-5.8c0.2-0.2,0.3-0.6,0.3-0.9
			c0-0.3-0.2-0.7-0.4-0.9c-0.5-0.5-1.3-0.4-1.7,0.1L586.6,47.4z"/>
		<path class="st4" d="M585.2,45.9c-2.2,0-4,1.8-4,4c0,2.2,1.8,4,4,4s4-1.8,4-4C589.2,47.7,587.4,45.9,585.2,45.9 M585.2,51.3
			c-0.8,0-1.5-0.7-1.5-1.5c0-0.8,0.7-1.5,1.5-1.5s1.5,0.7,1.5,1.5C586.7,50.7,586,51.3,585.2,51.3"/>
		<path class="st4" d="M585.2,27.7c-12.2,0-22.2,10-22.2,22.2c0,12.2,10,22.2,22.2,22.2c12.2,0,22.2-10,22.2-22.2
			C607.4,37.6,597.4,27.7,585.2,27.7 M585.2,69.6c-10.9,0-19.7-8.8-19.7-19.7c0-10.9,8.8-19.7,19.7-19.7c10.9,0,19.7,8.8,19.7,19.7
			C604.9,60.7,596.1,69.6,585.2,69.6"/>
		<path class="st4" d="M0.7,267.5c-0.5,0-0.9,0.4-0.8,0.9c0,0.5,0.4,0.8,0.9,0.8h179.9c0.5,0,0.9-0.4,0.9-0.9s-0.4-0.9-0.9-0.9H0.7z
			"/>
		<path class="st4" d="M430.6,267.5H203.9c-0.5,0-0.9,0.4-0.9,0.9c0,0.5,0.4,0.9,0.9,0.9h226.8c0.5,0,0.9-0.4,0.8-0.9
			C431.5,267.8,431.1,267.5,430.6,267.5"/>
		<path class="st19" d="M394.1,267.2c-0.5,0-1,0.4-1,1c0,0.5,0.5,1,1,1h52.2c0.5,0,1-0.4,1-1c0-0.5-0.4-1-1-1H394.1z"/>
		<path class="st4" d="M654.9,267.2H478.2c-0.5,0-1,0.4-1,1c0,0.5,0.4,1,1,1h176.7c0.5,0,1-0.5,1-1
			C655.9,267.6,655.4,267.2,654.9,267.2"/>
		<path class="st5" d="M522.1,278.1h-38.2c-0.5,0-0.9,0.4-0.9,0.9c0,0.5,0.4,0.9,0.9,0.9h38.3c0.5,0,0.9-0.4,0.8-0.9
			C522.9,278.5,522.5,278.1,522.1,278.1"/>
		<path class="st5" d="M343.8,278.1c-0.5,0-0.9,0.4-0.8,0.9c0,0.5,0.4,0.8,0.9,0.8h90.7c0.5,0,0.9-0.4,0.9-0.9
			c0-0.5-0.4-0.9-0.9-0.9H343.8z"/>
		<path class="st5" d="M48.7,51.3c-0.8,0-1.5-0.7-1.5-1.5c0-0.8,0.7-1.5,1.5-1.5c0.8,0,1.5,0.7,1.5,1.5
			C50.2,50.7,49.6,51.3,48.7,51.3"/>
		<path class="st5" d="M328.2,51.7c-0.8,0-1.5-0.7-1.5-1.5c0-0.8,0.7-1.5,1.5-1.5s1.5,0.7,1.5,1.5C329.6,51.1,329,51.7,328.2,51.7"
			/>
		<path class="st5" d="M585.2,51.3c-0.8,0-1.5-0.7-1.5-1.5c0-0.8,0.7-1.5,1.5-1.5c0.8,0,1.5,0.7,1.5,1.5
			C586.7,50.7,586.1,51.3,585.2,51.3"/>
	</g>
</g>
</svg>
