<?xml version="1.0" encoding="UTF-8" standalone="no"?>
<!-- Created with Inkscape (http://www.inkscape.org/) -->

<svg
   xmlns:dc="http://purl.org/dc/elements/1.1/"
   xmlns:cc="http://creativecommons.org/ns#"
   xmlns:rdf="http://www.w3.org/1999/02/22-rdf-syntax-ns#"
   xmlns:svg="http://www.w3.org/2000/svg"
   xmlns="http://www.w3.org/2000/svg"
   xmlns:sodipodi="http://sodipodi.sourceforge.net/DTD/sodipodi-0.dtd"
   xmlns:inkscape="http://www.inkscape.org/namespaces/inkscape"
   width="800mm"
   height="650mm"
   viewBox="0 0 210 297"
   version="1.1"
   id="svg3773"
   inkscape:version="0.92.4 (5da689c313, 2019-01-14)"
   sodipodi:docname="icon.svg">
  <defs
     id="defs3767" />
  <sodipodi:namedview
     id="base"
     pagecolor="#ffffff"
     bordercolor="#666666"
     borderopacity="1.0"
     inkscape:pageopacity="0.0"
     inkscape:pageshadow="2"
     inkscape:zoom="0.98994949"
     inkscape:cx="602.86807"
     inkscape:cy="361.30726"
     inkscape:document-units="mm"
     inkscape:current-layer="layer1"
     showgrid="false"
     inkscape:window-width="1366"
     inkscape:window-height="745"
     inkscape:window-x="-8"
     inkscape:window-y="-8"
     inkscape:window-maximized="1" />
  <metadata
     id="metadata3770">
    <rdf:RDF>
      <cc:Work
         rdf:about="">
        <dc:format>image/svg+xml</dc:format>
        <dc:type
           rdf:resource="http://purl.org/dc/dcmitype/StillImage" />
        <dc:title></dc:title>
      </cc:Work>
    </rdf:RDF>
  </metadata>
  <g
     inkscape:label="Layer 1"
     inkscape:groupmode="layer"
     id="layer1">
    <g
       id="g3786"
       transform="translate(3.6666667e-7,16.404167)">
      <path
         style="fill:#a4d0ef;stroke-width:0.26458332"
         d="m 85.365934,215.67622 c -2.874134,-0.76524 -5.472123,-1.58383 -6.416146,-2.02165 -1.151731,-0.53414 -1.165701,-1.55929 -0.03874,-2.84283 1.002072,-1.1413 0.770123,-1.1649 -1.392714,-0.14171 -2.53836,1.20084 -3.209803,1.10178 -5.827287,-0.85969 -1.213688,-0.9095 -2.650894,-1.9513 -3.19379,-2.3151 -1.757672,-1.17784 -1.165739,-1.85208 1.625975,-1.85208 2.755601,0 7.987038,-1.01784 11.141658,-2.16774 0.800364,-0.29175 1.931458,-0.70593 2.513541,-0.92042 2.440808,-0.89938 5.329262,-2.66799 7.061042,-4.32349 0.991375,-0.9477 1.8025,-1.86843 1.8025,-2.04606 0,-0.17763 -0.565547,-0.6126 -1.256771,-0.9666 -1.415534,-0.72495 -3.206895,-2.47612 -3.951851,-3.86319 -0.273542,-0.50933 -0.793784,-1.4023 -1.156097,-1.98438 -0.36231,-0.58208 -0.829503,-1.41552 -1.038206,-1.85208 -0.208704,-0.43656 -0.5338,-0.98214 -0.722437,-1.21239 -0.533657,-0.65137 -2.987138,-5.73897 -2.987138,-6.19419 0,-0.22353 0.357529,-0.62384 0.794509,-0.88958 l 0.79451,-0.48318 -1.125239,-0.33616 c -1.51784,-0.45346 -3.109613,-1.28388 -3.109613,-1.62226 0,-0.15178 -0.863204,-1.22143 -1.91823,-2.37699 -4.391906,-4.81044 -4.525076,-4.98466 -4.679944,-6.12236 -0.144868,-1.06422 -0.20669,-1.12231 -2.39766,-2.2528 -3.097694,-1.59834 -4.083143,-2.28311 -6.17443,-4.29052 -2.183755,-2.09616 -3.829217,-4.56575 -4.617646,-6.93036 -0.482891,-1.44826 -0.585007,-2.35118 -0.585007,-5.17261 0,-4.93233 0.309575,-5.0897 3.672091,-1.86667 2.840418,2.72258 3.094884,2.89444 7.308117,4.93571 6.868385,3.32766 15.822354,8.66272 19.240114,11.46387 2.494442,2.04441 9.028078,8.62395 9.525228,9.59215 0.298886,0.58208 0.833874,1.40565 1.18886,1.83016 0.354986,0.4245 1.339807,2.15701 2.188487,3.85002 0.84868,1.69302 1.73259,3.23551 1.96425,3.42776 0.23165,0.19226 0.42119,0.51358 0.42119,0.71404 0,0.20046 0.11906,0.36448 0.26458,0.36448 0.14552,0 0.26459,-0.11204 0.26459,-0.24897 0,-0.13693 -0.11907,-0.32255 -0.26459,-0.41249 -0.14552,-0.0899 -0.26458,-0.56383 -0.26458,-1.0531 0,-1.07653 1.01571,-2.25664 8.81186,-10.23809 4.7061,-4.81796 8.74889,-9.04717 18.36681,-19.21374 2.10799,-2.22824 2.69793,-2.70951 3.24328,-2.64584 l 0.66659,0.0778 0.0824,4.49792 c 0.0954,5.20603 -0.12138,6.50259 -1.57909,9.44519 -1.26395,2.55145 -2.18253,3.60243 -4.33894,4.96433 -0.93776,0.59224 -1.70501,1.13744 -1.70501,1.21155 0,0.0741 0.31011,0.25265 0.68914,0.39676 0.58453,0.22224 0.66239,0.37186 0.51291,0.98564 -0.32503,1.33465 -4.05103,4.75714 -7.45505,6.84779 -0.39735,0.24404 -0.42924,0.37073 -0.16315,0.64823 0.54131,0.56451 0.39577,1.0219 -0.96191,3.02293 -0.71096,1.04784 -1.55944,2.66585 -1.88551,3.59556 -0.32608,0.92971 -0.71147,1.83921 -0.85643,2.02111 -0.31063,0.38981 -4.45481,0.46097 -5.64938,0.097 -0.42189,-0.12854 -1.30286,-0.3881 -1.95771,-0.57679 -0.65484,-0.18869 -1.70261,-0.67883 -2.32836,-1.0892 -1.71163,-1.12248 -1.90466,-0.90032 -0.47707,0.54907 1.76731,1.79428 3.73626,2.40897 7.71635,2.40897 2.81447,0 2.96932,0.0306 4.64148,0.91857 3.47572,1.84561 7.06249,6.81314 5.38436,7.4571 -0.22499,0.0863 -1.21062,-0.096 -2.19028,-0.40518 -2.86684,-0.90479 -4.01297,-0.78028 -7.21028,0.78328 -1.5132,0.73998 -3.40764,1.7463 -4.20988,2.23626 -0.80224,0.48995 -2.37257,1.19419 -3.48963,1.56498 -1.82239,0.6049 -2.4479,0.67416 -6.08915,0.67416 -3.358978,0 -4.300363,0.0885 -5.464101,0.51389 -1.362493,0.49801 -2.274009,1.04623 -2.073291,1.24695 0.05386,0.0539 0.741352,-0.0914 1.527749,-0.32289 0.786395,-0.23146 1.84653,-0.53755 2.355853,-0.68022 0.509323,-0.14266 2.043615,-0.22269 3.40954,-0.17783 l 2.4835,0.0816 0.5741,2.24896 c 0.63923,2.5041 1.42904,4.19789 2.5643,5.49931 0.45724,0.52416 0.75815,1.1711 0.75815,1.62998 0,0.6526 -0.19566,0.85838 -1.37487,1.446 -2.35681,1.17445 -3.53106,0.88837 -4.55559,-1.10987 -0.51487,-1.0042 -0.67609,-1.15555 -0.82604,-0.77553 -0.10247,0.2597 -0.0353,1.01168 0.14936,1.67108 0.28051,1.0019 0.27487,1.25553 -0.0343,1.54359 -0.73308,0.68295 -2.22487,0.94336 -5.404164,0.94336 -3.720052,0 -3.944718,-0.11153 -3.67112,-1.82251 0.09568,-0.59835 0.100708,-1.08791 0.01117,-1.08791 -0.08953,0 -0.474861,0.50602 -0.856281,1.12448 -0.381424,0.61847 -0.881923,1.27331 -1.112224,1.45521 -0.57799,0.45652 -2.478675,0.36742 -4.683213,-0.21954 z m 25.618196,-4.63144 c -0.62659,-0.62659 -0.6484,-0.71918 -0.26079,-1.10679 0.38761,-0.38762 0.46417,-0.38575 0.91509,0.0223 0.61491,0.55649 1.64105,0.58679 1.64105,0.0485 0,-0.2247 -0.23712,-0.39687 -0.54656,-0.39687 -0.30061,0 -0.80663,-0.13851 -1.12448,-0.3078 -1.45939,-0.77728 -1.65099,-2.23172 -0.45195,-3.43075 0.80047,-0.80047 0.82593,-0.80455 3.21743,-0.51517 0.31901,0.0386 0.52403,2.37855 0.2528,2.88534 -0.18858,0.35237 -0.17311,0.75996 0.0514,1.35566 0.29883,0.79273 0.26962,0.8961 -0.42126,1.49059 -1.01791,0.8759 -2.37047,0.8573 -3.27278,-0.045 z m 2.3948,-3.34614 c 0.2219,-0.35237 0.18739,-0.55911 -0.14957,-0.89607 -0.79261,-0.79262 -1.97514,0.24327 -1.26059,1.10426 0.4114,0.49571 1.02382,0.40529 1.41016,-0.20819 z m 4.48437,3.34614 c -0.62659,-0.62659 -0.64841,-0.71918 -0.2608,-1.10679 0.38762,-0.38762 0.46417,-0.38575 0.91509,0.0223 0.61492,0.55649 1.64105,0.58679 1.64105,0.0485 0,-0.2247 -0.23711,-0.39687 -0.54656,-0.39687 -0.30061,0 -0.80662,-0.13851 -1.12448,-0.3078 -1.45938,-0.77728 -1.65098,-2.23172 -0.45195,-3.43075 0.80047,-0.80047 0.82594,-0.80455 3.21743,-0.51517 0.31902,0.0386 0.52404,2.37855 0.25281,2.88534 -0.18858,0.35237 -0.17312,0.75996 0.0514,1.35566 0.29884,0.79273 0.26963,0.8961 -0.42125,1.49059 -1.01792,0.8759 -2.37048,0.8573 -3.27278,-0.045 z m 2.39479,-3.34614 c 0.22191,-0.35237 0.1874,-0.55911 -0.14956,-0.89607 -0.79262,-0.79262 -1.97515,0.24327 -1.26059,1.10426 0.4114,0.49571 1.02382,0.40529 1.41015,-0.20819 z m -4.71923,1.66555 c -0.0842,-0.13625 -0.13328,-1.38037 -0.10906,-2.76473 0.0309,-1.76745 0.1449,-2.55571 0.38272,-2.64697 0.49355,-0.18939 1.03674,0.55048 0.70705,0.96306 -0.15055,0.1884 -0.17249,0.55846 -0.051,0.8599 0.66401,1.64741 -0.16111,4.83238 -0.92972,3.58874 z m 7.12198,-0.0833 c -0.0781,-0.20357 -0.10752,-1.49229 -0.0653,-2.86382 0.0705,-2.29174 0.11954,-2.4937 0.60585,-2.4937 0.41892,0 0.55673,0.22049 0.66146,1.05834 0.12599,1.00793 0.17639,1.05833 1.05833,1.05833 0.88195,0 0.93234,-0.0504 1.05834,-1.05833 0.10473,-0.83785 0.24253,-1.05834 0.66146,-1.05834 0.49557,0 0.52916,0.17639 0.52916,2.77813 0,2.60173 -0.0336,2.77812 -0.52916,2.77812 -0.40318,0 -0.56067,-0.22048 -0.66146,-0.92604 -0.1224,-0.85674 -0.20159,-0.92604 -1.05834,-0.92604 -0.85609,0 -0.93603,0.0697 -1.05833,0.92304 -0.13787,0.96199 -0.92868,1.44248 -1.20197,0.73031 z m 6.46199,-0.45366 c -0.75311,-0.75311 -0.78157,-0.86758 -0.70725,-2.84428 0.0698,-1.85737 0.12939,-2.05958 0.60661,-2.05958 0.46866,0 0.54429,0.22049 0.66145,1.92836 0.12714,1.85317 0.40945,2.42917 1.19063,2.42917 0.75201,0 1.02851,-0.57044 1.17215,-2.41823 0.13315,-1.71265 0.21261,-1.9393 0.67993,-1.9393 0.47722,0 0.53677,0.20221 0.60661,2.05958 0.0743,1.9767 0.0459,2.09117 -0.70726,2.84428 -0.58352,0.58352 -1.03253,0.78469 -1.75143,0.78469 -0.71891,0 -1.16792,-0.20117 -1.75144,-0.78469 z m 5.17218,0.43411 c -0.074,-0.19282 -0.10002,-1.47274 -0.0578,-2.84427 l 0.0767,-2.4937 1.60357,-0.0775 c 1.30052,-0.0628 1.73599,0.0267 2.30428,0.47371 0.59745,0.46996 0.70082,0.7543 0.70144,1.92956 5.3e-4,0.7581 0.0107,1.6165 0.0228,1.90754 0.0394,0.94446 -0.9495,1.45521 -2.81764,1.45521 -1.16625,0 -1.74096,-0.1099 -1.83331,-0.35058 z m 2.94754,-1.2665 c 0.1,-0.1618 0.0177,-0.4006 -0.18282,-0.53069 -0.55676,-0.36114 -1.40695,-0.15686 -1.5058,0.36183 -0.0683,0.35808 0.0925,0.46302 0.70928,0.46302 0.43865,0 0.87935,-0.13237 0.97934,-0.29416 z m -0.0183,-2.48397 c 0,-0.14552 -0.38695,-0.30189 -0.8599,-0.34749 -0.65171,-0.0628 -0.85989,0.0213 -0.85989,0.34749 0,0.3262 0.20818,0.41033 0.85989,0.3475 0.47295,-0.0456 0.8599,-0.20197 0.8599,-0.3475 z"
         id="path3800"
         inkscape:connector-curvature="0" />
      <path
         style="fill:#88bbe8;stroke-width:0.26458332"
         d="m 84.309869,215.01278 c -3.504187,-0.92606 -5.721353,-1.83539 -5.897574,-2.41878 -0.05403,-0.17887 0.526624,-0.9859 1.290336,-1.79341 1.976948,-2.09033 1.504254,-2.36714 -1.519526,-0.88984 -3.226369,1.57628 -3.650707,1.53845 -6.465951,-0.57656 -1.249434,-0.93866 -2.610247,-1.95136 -3.024029,-2.25043 -1.182195,-0.85448 -0.671459,-1.17602 1.867961,-1.17602 1.226249,0 2.737271,-0.11197 3.357822,-0.24883 0.620551,-0.13686 2.318901,-0.50868 3.77411,-0.82626 5.26085,-1.14812 10.486808,-3.60244 13.397217,-6.29187 2.276125,-2.10331 2.363157,-2.66578 0.554315,-3.58239 -1.409753,-0.71437 -3.420086,-2.72807 -4.285586,-4.29276 -0.313288,-0.56637 -1.156356,-2.0418 -1.873488,-3.27872 -2.004759,-3.45787 -3.751324,-7.13518 -3.589364,-7.55724 0.09759,-0.25433 0.548756,-0.38027 1.362247,-0.38027 1.43996,0 2.5196,-0.45416 1.944883,-0.81814 -0.201562,-0.12765 -0.875104,-0.23391 -1.496764,-0.23614 -1.235218,-0.004 -4.558252,-1.3577 -4.558252,-1.8563 0,-0.16386 -0.863203,-1.23028 -1.918229,-2.36983 -4.159978,-4.49323 -4.755645,-5.3008 -4.584161,-6.21489 0.153316,-0.81725 0.114615,-0.85597 -1.746969,-1.74784 -2.906427,-1.39244 -4.932537,-2.77026 -6.921368,-4.70671 -2.374339,-2.31181 -3.716573,-4.30851 -4.534792,-6.74594 -0.571468,-1.70238 -0.667398,-2.46227 -0.667398,-5.28663 0,-2.74563 0.06925,-3.32505 0.413141,-3.45702 0.279509,-0.10726 1.211411,0.60193 2.881101,2.19256 2.322846,2.21286 2.776932,2.50875 7.722796,5.03232 9.220071,4.70443 14.955433,8.113 18.434228,10.95561 2.359716,1.92818 9.351206,8.96651 9.825927,9.89176 0.28263,0.55086 0.7781,1.29922 1.101037,1.66302 0.32294,0.36381 1.283981,2.03068 2.135641,3.70417 2.03856,4.0057 2.23681,4.29968 4.42902,6.56784 2.8279,2.92588 4.21896,3.47901 8.76056,3.48347 2.82046,0.003 2.97751,0.0339 4.64895,0.92143 2.00525,1.06479 4.51129,3.55083 5.25588,5.21393 0.72571,1.62092 0.4014,1.87183 -1.61013,1.24577 -0.882,-0.2745 -2.34772,-0.4991 -3.25716,-0.4991 -1.44923,0 -1.99387,0.1659 -4.4082,1.34274 -1.51506,0.73851 -3.30257,1.6921 -3.97224,2.1191 -0.66967,0.42699 -2.09842,1.09313 -3.175,1.4803 -1.75322,0.63051 -2.45492,0.71996 -6.72623,0.85746 -4.739677,0.15259 -4.779809,0.15895 -6.570689,1.04096 -1.810467,0.89165 -5.226191,3.79506 -4.878671,4.14693 0.102301,0.10359 0.757145,-0.22819 1.455208,-0.73727 3.101687,-2.26199 6.727463,-3.44016 10.202022,-3.31507 l 2.1198,0.0763 0.5749,2.24896 c 0.57214,2.23811 1.74227,4.77045 2.83951,6.14511 0.5425,0.67966 0.54992,0.74956 0.12885,1.21483 -0.24573,0.27153 -1.07942,0.70873 -1.85264,0.97155 -1.72217,0.58539 -2.10406,0.41769 -3.0776,-1.35146 -0.91752,-1.66734 -1.46746,-1.70553 -1.45232,-0.10087 0.006,0.65485 0.0657,1.48514 0.13229,1.8451 0.19652,1.06244 -0.928631,1.43219 -4.713638,1.54901 -3.781904,0.11673 -4.116113,-0.0131 -3.720553,-1.44574 0.544815,-1.97316 -0.45635,-2.29603 -1.515493,-0.48874 -0.8225,1.40349 -1.564818,1.98776 -2.48969,1.95959 -0.367802,-0.0112 -2.215525,-0.42914 -4.106047,-0.92876 z m 27.051381,-3.83457 c -0.47147,-0.2746 -0.65361,-1.30172 -0.23084,-1.30172 0.12771,0 0.3854,0.18461 0.57267,0.41025 0.48607,0.58568 1.70869,0.39456 1.70869,-0.26711 0,-0.37922 -0.24682,-0.5688 -0.91968,-0.70641 -1.79625,-0.36738 -2.40724,-2.08699 -1.1782,-3.31603 0.59042,-0.59042 0.82492,-0.65711 1.776,-0.50502 0.60267,0.0964 1.1447,0.22416 1.20452,0.28397 0.10489,0.1049 0.12602,1.81996 0.0358,2.90972 -0.0241,0.29105 0.0383,0.78605 0.13864,1.10002 0.39103,1.22362 -1.7502,2.18297 -3.10764,1.39233 z m 2.03162,-3.04041 c 0.22868,-0.22868 0.41577,-0.54672 0.41577,-0.70677 0,-0.41476 -0.81312,-1.25871 -1.21273,-1.25871 -0.44489,0 -1.16852,0.73732 -1.16852,1.19063 0,0.19749 0.1871,0.54617 0.41578,0.77485 0.22867,0.22868 0.57736,0.41577 0.77485,0.41577 0.19749,0 0.54618,-0.18709 0.77485,-0.41577 z m 4.84754,3.04041 c -0.47146,-0.2746 -0.6536,-1.30172 -0.23083,-1.30172 0.1277,0 0.3854,0.18461 0.57267,0.41025 0.48607,0.58568 1.70869,0.39456 1.70869,-0.26711 0,-0.37922 -0.24682,-0.5688 -0.91968,-0.70641 -1.79625,-0.36738 -2.40724,-2.08699 -1.17821,-3.31603 0.59043,-0.59042 0.82493,-0.65711 1.77601,-0.50502 0.60267,0.0964 1.1447,0.22416 1.20451,0.28397 0.1049,0.1049 0.12603,1.81996 0.0358,2.90972 -0.0241,0.29105 0.0383,0.78605 0.13864,1.10002 0.39103,1.22362 -1.7502,2.18297 -3.10765,1.39233 z m 2.03163,-3.04041 c 0.22867,-0.22868 0.41577,-0.54672 0.41577,-0.70677 0,-0.41476 -0.81312,-1.25871 -1.21273,-1.25871 -0.44489,0 -1.16852,0.73732 -1.16852,1.19063 0,0.19749 0.1871,0.54617 0.41577,0.77485 0.22868,0.22868 0.57736,0.41577 0.77486,0.41577 0.19749,0 0.54617,-0.18709 0.77485,-0.41577 z m 2.53244,-1.43631 c 0,-2.03362 0.0807,-2.66337 0.33073,-2.58105 0.1819,0.0599 0.39026,0.57581 0.46302,1.14652 0.1318,1.03382 0.13668,1.03765 1.32291,1.03765 1.18623,0 1.19112,-0.004 1.32292,-1.03765 0.0728,-0.57071 0.28112,-1.08664 0.46302,-1.14652 0.25004,-0.0823 0.33073,0.54743 0.33073,2.58105 0,2.03381 -0.0807,2.66329 -0.33073,2.5807 -0.1819,-0.0601 -0.39026,-0.51648 -0.46302,-1.01423 -0.12814,-0.87662 -0.16965,-0.90501 -1.32292,-0.90501 -1.15327,0 -1.19477,0.0284 -1.32291,0.90501 -0.0728,0.49775 -0.28112,0.95416 -0.46302,1.01423 -0.25006,0.0826 -0.33073,-0.54689 -0.33073,-2.5807 z m 6.47026,1.9964 c -0.57601,-0.57601 -0.64943,-0.87761 -0.64943,-2.66788 0,-1.49649 0.0855,-1.99027 0.33073,-1.90949 0.20119,0.0663 0.38255,0.79688 0.46302,1.86523 0.15441,2.04995 0.62798,2.7332 1.70676,2.46244 0.86089,-0.21606 1.20366,-1.06372 1.20366,-2.9766 0,-1.04996 0.0929,-1.42932 0.33073,-1.35067 0.21336,0.0705 0.35832,0.78273 0.40847,2.00685 0.0707,1.72463 0.0175,1.95771 -0.58328,2.55852 -0.89532,0.89531 -2.32179,0.90047 -3.21066,0.0116 z m 5.28398,0.29659 c -0.0745,-0.19407 -0.1005,-1.35493 -0.0578,-2.57969 l 0.0776,-2.22684 1.41312,-0.0808 c 1.97564,-0.11297 2.66856,0.37503 2.64795,1.86486 -0.009,0.6195 0.0118,1.47427 0.0453,1.89948 0.0389,0.49484 -0.1121,0.89959 -0.41966,1.12448 -0.64674,0.4729 -3.52479,0.47175 -3.70639,-0.002 z m 3.01345,-1.15916 c 0.0624,-0.43843 -0.0827,-0.62764 -0.57621,-0.75149 -0.90603,-0.2274 -1.75607,0.0871 -1.75607,0.64972 0,0.69295 0.27568,0.85382 1.31346,0.76647 0.73441,-0.0618 0.95341,-0.20469 1.01882,-0.6647 z m -0.0762,-1.93917 c 0.27863,-0.45082 -0.41284,-1.04674 -1.21457,-1.04674 -0.82033,0 -1.1681,0.34692 -0.941,0.93871 0.17138,0.4466 1.893,0.53289 2.15557,0.10803 z m -21.83528,1.59909 c 0,-1.18769 0.09,-1.6016 0.33073,-1.52135 0.20946,0.0698 0.33073,0.62765 0.33073,1.52135 0,0.8937 -0.12127,1.45153 -0.33073,1.52135 -0.24075,0.0803 -0.33073,-0.33367 -0.33073,-1.52135 z m 0,-2.91042 c 0,-0.14552 0.11906,-0.26458 0.26458,-0.26458 0.14552,0 0.26458,0.11906 0.26458,0.26458 0,0.14552 -0.11906,0.26459 -0.26458,0.26459 -0.14552,0 -0.26458,-0.11907 -0.26458,-0.26459 z m -3.70417,-16.9221 c -0.3638,-0.11636 -1.19724,-0.36369 -1.85208,-0.54962 -2.9967,-0.85085 -6.0799,-3.68506 -5.69165,-5.232 0.22073,-0.87944 2.31122,-3.18016 8.04668,-8.85588 2.53219,-2.50582 5.06467,-5.15135 5.62773,-5.87895 0.91129,-1.17761 5.98558,-6.53126 13.49245,-14.23527 1.41726,-1.45448 2.71485,-2.57234 2.91042,-2.50729 0.48806,0.16232 0.64293,8.5627 0.18916,10.26026 -0.48223,1.80402 -2.46005,5.5908 -3.37148,6.45509 -0.44459,0.4216 -1.5495,1.25504 -2.45536,1.85209 -0.90586,0.59705 -1.65496,1.2046 -1.66467,1.35012 -0.01,0.14552 0.25023,0.38212 0.57765,0.52576 0.32743,0.14365 0.59532,0.44366 0.59532,0.66669 0,0.59455 -4.64541,5.08282 -6.41615,6.19911 -1.35108,0.85174 -1.99144,1.73657 -1.25677,1.73657 0.5731,0 0.2101,1.10446 -0.89215,2.71447 -0.6362,0.92926 -1.42515,2.45484 -1.75321,3.39016 -0.32808,0.93532 -0.71509,1.84941 -0.86005,2.03131 -0.29759,0.37345 -4.12314,0.43009 -5.22584,0.0774 z"
         id="path3798"
         inkscape:connector-curvature="0" />
      <path
         style="fill:#5aa7e2;stroke-width:0.26458332"
         d="m 85.630518,215.14602 c -3.514831,-0.9378 -6.507385,-1.93825 -6.779901,-2.26662 -0.356674,-0.42976 -0.146312,-0.76861 1.686671,-2.71682 0.836745,-0.88935 1.521355,-1.73426 1.521355,-1.87759 0,-0.33027 -0.40498,-0.3331 -0.995778,-0.007 -1.767375,0.97564 -5.660189,2.65678 -6.152005,2.65678 -0.328128,0 -1.622314,-0.75743 -2.87597,-1.68318 -1.253654,-0.92576 -2.606794,-1.89195 -3.006977,-2.1471 -0.400182,-0.25515 -0.727604,-0.56928 -0.727604,-0.69806 0,-0.12879 0.915567,-0.23416 2.034593,-0.23416 4.723921,0 12.687067,-2.24551 17.49996,-4.93478 0.921348,-0.51482 2.504898,-1.71875 3.519001,-2.6754 2.200283,-2.07564 2.311098,-2.71256 0.634682,-3.64795 -1.683639,-0.93941 -3.036371,-2.20358 -4.061071,-3.7952 -2.000612,-3.10745 -5.868831,-10.34122 -5.868831,-10.97501 0,-0.49015 0.58089,-0.69458 1.973617,-0.69458 1.068673,0 1.939763,-0.49634 1.551866,-0.88424 -0.09575,-0.0957 -0.558427,-0.17409 -1.028168,-0.17409 -0.469742,0 -1.610757,-0.23405 -2.53559,-0.5201 -1.784765,-0.55203 -1.74077,-0.5104 -8.097663,-7.66237 -1.08675,-1.22267 -1.41347,-2.19104 -0.85558,-2.53583 0.479438,-0.29631 5.29e-4,-0.65147 -2.716033,-2.01477 -3.236209,-1.62401 -4.812234,-2.76945 -7.098565,-5.15919 -3.169018,-3.31235 -4.477218,-6.54187 -4.477218,-11.05281 0,-3.86197 0.168182,-3.936 2.961793,-1.30373 2.886075,2.71939 3.168672,2.90476 8.208815,5.3847 4.664967,2.29534 8.902253,4.58224 10.192562,5.50103 0.446175,0.3177 0.886114,0.57764 0.977641,0.57764 0.256686,0 5.691233,3.67654 7.00886,4.74158 2.395263,1.9361 9.081231,8.66082 9.753966,9.81051 0.383183,0.65485 1.072404,1.72641 1.531609,2.38125 0.459203,0.65485 1.530235,2.55877 2.380075,4.23094 1.25862,2.47649 1.93972,3.4521 3.67273,5.26081 2.85762,2.98241 3.50718,3.25629 8.21299,3.46296 3.54403,0.15565 3.7728,0.20026 5.29167,1.03208 0.87312,0.47817 2.20191,1.47098 2.95285,2.20625 1.49309,1.46192 2.93461,3.82221 2.56196,4.19486 -0.13349,0.13349 -0.96241,0.001 -1.94757,-0.31057 -2.67482,-0.8468 -4.54553,-0.61519 -7.66828,0.94938 -1.38245,0.69264 -3.16839,1.66 -3.96875,2.1497 -0.80037,0.48969 -2.33927,1.19033 -3.41978,1.55698 -1.7484,0.59327 -2.39311,0.66662 -5.85911,0.66662 -4.749372,0 -6.406937,0.42633 -9.151579,2.35382 -2.351794,1.6516 -3.405325,2.84728 -2.970458,3.37126 0.266671,0.32132 0.389313,0.31608 0.867725,-0.037 4.213759,-3.11034 6.831488,-4.10053 10.840442,-4.10053 h 2.18767 l 0.47967,2.05052 c 0.4792,2.04847 1.76506,4.8674 2.82417,6.1913 0.68301,0.85374 0.53584,1.13176 -0.95966,1.81304 -1.91995,0.87465 -2.40729,0.73042 -3.29414,-0.97486 -0.77916,-1.4982 -1.21177,-1.83835 -1.75971,-1.3836 -0.40739,0.3381 -0.41735,0.96696 -0.0516,3.25381 0.12866,0.80432 -1.385211,1.17785 -4.865474,1.20049 -1.701281,0.0111 -3.154683,-0.0793 -3.229779,-0.20079 -0.0751,-0.12151 -0.0013,-0.66153 0.163957,-1.20004 0.255233,-0.83162 0.232844,-1.04677 -0.148622,-1.42824 -0.562819,-0.56282 -1.126157,-0.25759 -1.78217,0.96562 -1.108548,2.06701 -1.756251,2.23492 -5.139314,1.33228 z m 25.526982,-4.34988 c -0.50887,-0.61316 -0.12724,-0.75412 0.65465,-0.2418 0.55971,0.36673 0.8221,0.39775 1.34587,0.1591 0.35784,-0.16304 0.65062,-0.4734 0.65062,-0.68968 0,-0.45352 -0.79216,-0.94102 -1.5291,-0.94102 -1.2332,0 -1.86805,-2.12333 -0.89746,-3.0017 0.64119,-0.58027 2.57475,-0.59367 2.79513,-0.0194 0.26941,0.70207 0.1793,2.10279 -0.1569,2.43899 -0.24694,0.24694 -0.24694,0.38805 0,0.635 0.17462,0.17462 0.3175,0.56753 0.3175,0.87312 0,0.30559 -0.14288,0.6985 -0.3175,0.87313 -0.46003,0.46002 -2.45955,0.40012 -2.86281,-0.0858 z m 2.33364,-2.56007 c 0.17463,-0.17462 0.3175,-0.56753 0.3175,-0.87312 0,-0.3056 -0.14287,-0.6985 -0.3175,-0.87313 -0.17462,-0.17462 -0.56753,-0.3175 -0.87312,-0.3175 -0.3056,0 -0.6985,0.14288 -0.87313,0.3175 -0.17462,0.17463 -0.3175,0.56753 -0.3175,0.87313 0,0.30559 0.14288,0.6985 0.3175,0.87312 0.17463,0.17463 0.56753,0.3175 0.87313,0.3175 0.30559,0 0.6985,-0.14287 0.87312,-0.3175 z m 4.54553,2.56007 c -0.50888,-0.61316 -0.12725,-0.75412 0.65465,-0.2418 0.5597,0.36673 0.82209,0.39775 1.34587,0.1591 0.35784,-0.16304 0.65062,-0.4734 0.65062,-0.68968 0,-0.45352 -0.79217,-0.94102 -1.5291,-0.94102 -1.23321,0 -1.86805,-2.12333 -0.89746,-3.0017 0.64119,-0.58027 2.57475,-0.59367 2.79513,-0.0194 0.26941,0.70207 0.1793,2.10279 -0.1569,2.43899 -0.24695,0.24694 -0.24695,0.38805 0,0.635 0.17462,0.17462 0.3175,0.56753 0.3175,0.87312 0,0.30559 -0.14288,0.6985 -0.3175,0.87313 -0.46003,0.46002 -2.45956,0.40012 -2.86281,-0.0858 z m 2.33364,-2.56007 c 0.17463,-0.17462 0.3175,-0.56753 0.3175,-0.87312 0,-0.3056 -0.14287,-0.6985 -0.3175,-0.87313 -0.17462,-0.17462 -0.56753,-0.3175 -0.87312,-0.3175 -0.3056,0 -0.6985,0.14288 -0.87313,0.3175 -0.17462,0.17463 -0.3175,0.56753 -0.3175,0.87313 0,0.30559 0.14288,0.6985 0.3175,0.87312 0.17463,0.17463 0.56753,0.3175 0.87313,0.3175 0.30559,0 0.6985,-0.14287 0.87312,-0.3175 z m 9.91392,0.90562 c -1.08324,-0.17326 -1.65892,-1.26964 -1.65892,-3.15939 0,-1.24677 0.089,-1.67676 0.33073,-1.59696 0.20657,0.0682 0.36084,0.7431 0.41095,1.79784 0.0945,1.98808 0.34128,2.37039 1.53037,2.37039 1.13672,0 1.43212,-0.54671 1.43212,-2.65048 0,-1.18611 0.0896,-1.59598 0.33073,-1.51268 0.43795,0.15131 0.40852,3.45892 -0.0355,3.99398 -0.41677,0.50218 -1.58077,0.87881 -2.34045,0.7573 z m 4.52674,-0.0941 c -0.15434,-0.19896 -0.30426,-1.26601 -0.33315,-2.37122 -0.0634,-2.42421 0.18902,-2.75414 1.95469,-2.55513 1.6509,0.18608 2.0713,0.59506 1.8748,1.82389 -0.0889,0.55593 -0.042,1.06074 0.10701,1.15286 0.39407,0.24355 0.32081,1.34458 -0.11344,1.70498 -0.60043,0.49831 -3.15425,0.67731 -3.48991,0.24462 z m 2.98037,-0.89428 c 0.25152,-0.65546 -0.4238,-1.18726 -1.50768,-1.18726 -0.77422,0 -1.0469,0.12222 -1.17531,0.5268 -0.25763,0.81172 0.0583,1.0607 1.34609,1.0607 0.81218,0 1.23148,-0.12553 1.3369,-0.40024 z m -0.47489,-1.95062 c 0.19622,-0.12435 0.31425,-0.44995 0.2623,-0.72355 -0.0716,-0.37713 -0.36592,-0.51714 -1.21666,-0.57882 -1.03942,-0.0754 -1.1222,-0.0331 -1.1222,0.57326 0,0.87146 1.19169,1.28988 2.07656,0.72911 z m -14.51197,0.49878 c 0,-1.82183 0.0823,-2.39831 0.33073,-2.3167 0.1819,0.0598 0.36768,0.54593 0.41284,1.08038 l 0.0821,0.97174 h 1.29097 1.29098 l 0.0821,-0.97174 c 0.0452,-0.53445 0.23095,-1.02063 0.41285,-1.08038 0.24843,-0.0816 0.33073,0.49487 0.33073,2.3167 0,1.82179 -0.0823,2.39833 -0.33073,2.31678 -0.1819,-0.0597 -0.36804,-0.48636 -0.41364,-0.94809 -0.0807,-0.81679 -0.11783,-0.83952 -1.3723,-0.83952 -1.25446,0 -1.29163,0.0227 -1.3723,0.83952 -0.0456,0.46173 -0.23173,0.88837 -0.41363,0.94809 -0.24843,0.0815 -0.33073,-0.49499 -0.33073,-2.31678 z m -7.14375,0.79375 c 0,-0.7276 0.11906,-1.32292 0.26458,-1.32292 0.14552,0 0.26458,0.59532 0.26458,1.32292 0,0.7276 -0.11906,1.32292 -0.26458,1.32292 -0.14552,0 -0.26458,-0.59532 -0.26458,-1.32292 z m -3.96875,-20.09949 c -2.42517,-0.66638 -3.11749,-0.96946 -4.70611,-2.06021 -1.41551,-0.97191 -2.43764,-2.2682 -2.43764,-3.09149 0,-0.66293 2.43672,-3.38721 7.82442,-8.74778 2.63263,-2.61937 5.24617,-5.35781 5.80785,-6.08542 0.89691,-1.16185 3.80857,-4.23541 13.47225,-14.22136 1.37304,-1.41883 2.6089,-2.57969 2.74635,-2.57969 0.43508,0 0.56888,1.09242 0.5726,4.67499 0.004,4.12708 -0.38969,5.95645 -1.89916,8.81877 -1.26562,2.3999 -1.91594,3.11143 -4.16899,4.5614 -2.36857,1.5243 -2.59909,1.88806 -1.46886,2.31777 0.3638,0.13832 0.66145,0.40589 0.66145,0.59461 0,0.3867 -3.87169,4.24348 -5.29166,5.27127 -0.50933,0.36865 -1.313,0.86958 -1.78594,1.11316 -0.9387,0.48347 -1.14309,1.30285 -0.42521,1.7046 0.3777,0.21138 0.25496,0.51662 -0.93624,2.32826 -0.75401,1.14674 -1.55685,2.72197 -1.78408,3.50052 -0.59045,2.02304 -1.08486,2.42616 -2.93989,2.39704 -0.83674,-0.0131 -2.29526,-0.23653 -3.24114,-0.49644 z"
         id="path3796"
         inkscape:connector-curvature="0" />
      <path
         style="fill:#3aaae0;stroke-width:0.26458332"
         d="m 85.233643,214.79863 c -3.268594,-0.86976 -5.741281,-1.72936 -6.052162,-2.10394 -0.199183,-0.24001 0.180589,-0.78152 1.427637,-2.03562 1.772954,-1.78298 2.227482,-2.89925 1.180533,-2.89925 -0.293465,0 -1.839293,0.65485 -3.435175,1.45521 -1.595882,0.80037 -3.136908,1.45521 -3.424502,1.45521 -0.287597,0 -1.512853,-0.74414 -2.722793,-1.65365 -1.20994,-0.9095 -2.494664,-1.85576 -2.854944,-2.10279 -0.645565,-0.44263 -0.62846,-0.44934 1.181103,-0.46302 4.659212,-0.0352 12.488452,-2.2086 17.414856,-4.83435 1.51787,-0.80902 4.997062,-3.78807 5.481776,-4.69377 0.415575,-0.77651 -0.0099,-1.59547 -1.124146,-2.16393 -1.61004,-0.82138 -3.47952,-2.7117 -4.764427,-4.81753 -2.985436,-4.89284 -5.353947,-9.52889 -5.088027,-9.95916 0.09112,-0.14743 0.798907,-0.26805 1.572863,-0.26805 1.493615,0 2.134836,-0.40212 1.845122,-1.1571 -0.116382,-0.30328 -0.49453,-0.43041 -1.280347,-0.43041 -1.182376,0 -3.370038,-0.63501 -4.252159,-1.23428 -0.291042,-0.19772 -0.886354,-0.82152 -1.322917,-1.38621 -0.436562,-0.5647 -2.025057,-2.35755 -3.529991,-3.98412 -2.548848,-2.75486 -2.7074,-2.98927 -2.315104,-3.42275 0.231626,-0.25594 0.421137,-0.59159 0.421137,-0.74588 0,-0.15429 -1.430634,-1.02231 -3.179189,-1.92893 -2.51085,-1.30188 -3.720618,-2.13797 -5.754687,-3.97716 -4.154157,-3.75616 -5.618208,-6.86407 -5.618208,-11.92641 0,-1.56665 0.09859,-2.90939 0.219091,-2.98387 0.120499,-0.0745 0.924171,0.58409 1.785938,1.46346 2.093174,2.13594 3.810714,3.2699 7.916846,5.2269 7.109672,3.38848 15.261837,8.30575 20.032632,12.08338 1.773504,1.40431 8.938064,8.97493 8.941813,9.44861 0.0013,0.17851 0.410268,0.83739 0.908569,1.46419 0.4983,0.6268 1.470459,2.29367 2.160349,3.70417 1.60385,3.27908 3.09382,5.39888 5.10091,7.25709 2.2472,2.08051 3.70983,2.58343 7.51409,2.5837 2.74034,1.9e-4 3.09338,0.0602 4.6282,0.78626 0.91386,0.43232 2.32429,1.41283 3.13429,2.17889 1.41989,1.34287 2.95367,3.52851 2.67307,3.80912 -0.0748,0.0748 -0.82396,-0.064 -1.66479,-0.30843 -2.57831,-0.74954 -4.77086,-0.4498 -7.78851,1.06472 -1.38244,0.69383 -3.16838,1.66218 -3.96875,2.15187 -0.80036,0.4897 -2.33926,1.19034 -3.41978,1.55698 -1.7484,0.59328 -2.3931,0.66663 -5.85911,0.66663 -4.752247,0 -6.414878,0.42746 -9.128746,2.34703 -3.129966,2.21388 -3.882933,3.35612 -2.702415,4.09953 0.354169,0.22303 0.614923,0.15738 1.190625,-0.29977 3.438274,-2.73024 6.109068,-3.80248 9.898296,-3.97385 l 2.54658,-0.11516 0.44407,1.996 c 0.49613,2.23001 1.58721,4.67142 2.65459,5.93993 l 0.70717,0.84043 -0.87762,0.54153 c -1.04121,0.64249 -1.93095,0.90446 -2.4263,0.71437 -0.19759,-0.0758 -0.73465,-0.80303 -1.19348,-1.61603 -0.90681,-1.60678 -1.6371,-1.91227 -2.17385,-0.90936 -0.28987,0.54164 -0.20351,2.24184 0.16231,3.19514 0.25343,0.66045 -1.377406,0.99535 -4.855271,0.99706 -2.868378,0.001 -2.988075,-0.0208 -2.844271,-0.52769 0.08257,-0.29104 0.216249,-0.76279 0.297071,-1.04834 0.219202,-0.77444 -0.332346,-1.59749 -1.070523,-1.59749 -0.500335,0 -0.834387,0.3327 -1.527561,1.52135 -0.828127,1.42008 -0.956609,1.52457 -1.930006,1.56967 -0.57355,0.0266 -2.054849,-0.22098 -3.291776,-0.55013 z m 27.913537,-5.98047 c 0.0899,-0.14552 0.21603,-0.26459 0.2802,-0.26459 0.0642,0 0.11668,0.11907 0.11668,0.26459 0,0.14552 -0.12609,0.26458 -0.2802,0.26458 -0.15411,0 -0.20661,-0.11906 -0.11668,-0.26458 z m 6.87917,0 c 0.0899,-0.14552 0.21603,-0.26459 0.2802,-0.26459 0.0642,0 0.11668,0.11907 0.11668,0.26459 0,0.14552 -0.12609,0.26458 -0.2802,0.26458 -0.15411,0 -0.20662,-0.11906 -0.11668,-0.26458 z m 14.81667,0 c -0.20695,-0.33486 0.1433,-0.33486 0.66146,0 0.34202,0.22103 0.33504,0.25704 -0.0505,0.26053 -0.24608,0.002 -0.52099,-0.11501 -0.61093,-0.26053 z m -11.68927,-2.11667 c 0,-1.23693 0.0471,-1.83224 0.10475,-1.32292 0.0576,0.50933 0.28019,1.06079 0.4946,1.22548 0.34124,0.26211 0.34163,0.31794 0.003,0.44785 -0.21272,0.0816 -0.43529,0.54219 -0.4946,1.02348 -0.0593,0.48129 -0.10785,-0.13696 -0.10785,-1.37389 z m 3.35489,1.31461 c 0,-0.47571 -0.16464,-0.86523 -0.40465,-0.95733 -0.35509,-0.13626 -0.35691,-0.19195 -0.0148,-0.45472 0.21441,-0.16469 0.43698,-0.71615 0.49459,-1.22548 0.0576,-0.50932 0.12382,0.0562 0.14711,1.25677 0.0233,1.20055 -0.0172,2.18282 -0.09,2.18282 -0.0728,0 -0.13229,-0.36093 -0.13229,-0.80206 z m 11.39045,0.24793 c 0.2439,-0.45574 0.19602,-0.66115 -0.26963,-1.15681 -0.48378,-0.51496 -0.50633,-0.62565 -0.15496,-0.76049 0.48839,-0.18741 0.54094,-0.9972 0.0937,-1.44441 -0.20686,-0.20685 -0.21815,-0.3175 -0.0324,-0.3175 0.15681,0 0.44135,0.18826 0.63231,0.41836 0.26545,0.31985 0.27626,0.53197 0.0459,0.90087 -0.22284,0.35682 -0.22465,0.68566 -0.007,1.26242 0.3113,0.82474 0.14992,1.65169 -0.32235,1.65169 -0.1953,0 -0.19087,-0.17064 0.0144,-0.55413 z m -5.68489,-0.0526 c 0.0993,-0.26094 0.2473,-0.40778 0.32876,-0.32632 0.0815,0.0815 1.7e-4,0.29496 -0.18065,0.47444 -0.26131,0.25936 -0.2917,0.22897 -0.14811,-0.14812 z m -3.23962,-2.03911 c 0,-0.94588 0.048,-1.33284 0.10671,-0.85989 0.0587,0.47294 0.0587,1.24685 0,1.71979 -0.0587,0.47294 -0.10671,0.086 -0.10671,-0.8599 z m 3.70147,-0.13229 c 0.002,-0.87312 0.0509,-1.19841 0.10976,-0.72286 0.0589,0.47554 0.0577,1.18992 -0.003,1.5875 -0.0604,0.39757 -0.10855,0.008 -0.10706,-0.86464 z m 2.03468,0.38518 c 0,-0.47864 0.0337,-0.82064 0.0749,-0.76001 0.0412,0.0606 0.22124,0.30281 0.40013,0.53816 0.26216,0.34489 0.24763,0.49235 -0.0749,0.76001 -0.34333,0.28494 -0.40013,0.20854 -0.40013,-0.53816 z m -21.16667,-0.2685 c 0,-0.15411 0.11906,-0.20662 0.26458,-0.11668 0.14552,0.0899 0.26459,0.21603 0.26459,0.2802 0,0.0642 -0.11907,0.11668 -0.26459,0.11668 -0.14552,0 -0.26458,-0.12609 -0.26458,-0.2802 z m 6.87917,0 c 0,-0.15411 0.11906,-0.20662 0.26458,-0.11668 0.14552,0.0899 0.26458,0.21603 0.26458,0.2802 0,0.0642 -0.11906,0.11668 -0.26458,0.11668 -0.14552,0 -0.26458,-0.12609 -0.26458,-0.2802 z m 14.41979,-1.57189 c 0.0899,-0.14552 0.36485,-0.26276 0.61093,-0.26053 0.38557,0.003 0.39255,0.0395 0.0505,0.26053 -0.51816,0.33486 -0.86841,0.33486 -0.66146,0 z m -23.6466,-17.61633 c -3.24545,-0.95931 -6.38361,-3.26606 -6.38361,-4.69235 0,-0.76553 2.45047,-3.44594 9.23615,-10.10278 2.22506,-2.18282 4.35129,-4.4444 4.72497,-5.02575 1.16582,-1.8137 15.35193,-16.33888 15.72955,-16.1055 0.11399,0.0705 0.20725,1.86005 0.20725,3.97689 0,4.4419 -0.35385,6.20262 -1.7725,8.81998 -1.18281,2.1822 -2.13187,3.19259 -4.44521,4.73242 -2.11606,1.40852 -2.50885,2.22502 -1.29278,2.68737 l 0.72828,0.27689 -2.23129,2.25457 c -2.15093,2.17335 -3.63912,3.35853 -5.28768,4.21103 -0.89337,0.46198 -0.96744,0.80256 -0.32818,1.50894 0.35694,0.39441 0.38769,0.59339 0.14635,0.94688 -1.21052,1.77303 -2.20085,3.66527 -2.69426,5.14799 -0.31772,0.95475 -0.75974,1.80578 -0.98226,1.89117 -0.86487,0.33188 -3.23777,0.098 -5.35478,-0.52775 z"
         id="path3794"
         inkscape:connector-curvature="0" />
      <path
         style="fill:#3992e0;stroke-width:0.26458332"
         d="m 113.14718,208.81816 c 0.0899,-0.14552 0.21603,-0.26459 0.2802,-0.26459 0.0642,0 0.11668,0.11907 0.11668,0.26459 0,0.14552 -0.12609,0.26458 -0.2802,0.26458 -0.15411,0 -0.20661,-0.11906 -0.11668,-0.26458 z m 6.87917,0 c 0.0899,-0.14552 0.21603,-0.26459 0.2802,-0.26459 0.0642,0 0.11668,0.11907 0.11668,0.26459 0,0.14552 -0.12609,0.26458 -0.2802,0.26458 -0.15411,0 -0.20662,-0.11906 -0.11668,-0.26458 z m 14.81667,0 c -0.20695,-0.33486 0.1433,-0.33486 0.66146,0 0.34202,0.22103 0.33504,0.25704 -0.0505,0.26053 -0.24608,0.002 -0.52099,-0.11501 -0.61093,-0.26053 z m -11.68927,-2.11667 c 0,-1.23693 0.0471,-1.83224 0.10475,-1.32292 0.0576,0.50933 0.28019,1.06079 0.4946,1.22548 0.34124,0.26211 0.34163,0.31794 0.003,0.44785 -0.21272,0.0816 -0.43529,0.54219 -0.4946,1.02348 -0.0593,0.48129 -0.10785,-0.13696 -0.10785,-1.37389 z m 3.35489,1.31461 c 0,-0.47571 -0.16464,-0.86523 -0.40465,-0.95733 -0.35509,-0.13626 -0.35691,-0.19195 -0.0148,-0.45472 0.21441,-0.16469 0.43698,-0.71615 0.49459,-1.22548 0.0576,-0.50932 0.12382,0.0562 0.14711,1.25677 0.0233,1.20055 -0.0172,2.18282 -0.09,2.18282 -0.0728,0 -0.13229,-0.36093 -0.13229,-0.80206 z m 11.39045,0.24793 c 0.2439,-0.45574 0.19602,-0.66115 -0.26963,-1.15681 -0.48378,-0.51496 -0.50633,-0.62565 -0.15496,-0.76049 0.48839,-0.18741 0.54094,-0.9972 0.0937,-1.44441 -0.20686,-0.20685 -0.21815,-0.3175 -0.0324,-0.3175 0.15681,0 0.44135,0.18826 0.63231,0.41836 0.26545,0.31985 0.27626,0.53197 0.0459,0.90087 -0.22284,0.35682 -0.22465,0.68566 -0.007,1.26242 0.3113,0.82474 0.14992,1.65169 -0.32235,1.65169 -0.1953,0 -0.19087,-0.17064 0.0144,-0.55413 z m -5.68489,-0.0526 c 0.0993,-0.26094 0.2473,-0.40778 0.32876,-0.32632 0.0815,0.0815 1.7e-4,0.29496 -0.18065,0.47444 -0.26131,0.25936 -0.2917,0.22897 -0.14811,-0.14812 z m -3.23962,-2.03911 c 0,-0.94588 0.048,-1.33284 0.10671,-0.85989 0.0587,0.47294 0.0587,1.24685 0,1.71979 -0.0587,0.47294 -0.10671,0.086 -0.10671,-0.8599 z m 3.70147,-0.13229 c 0.002,-0.87312 0.0509,-1.19841 0.10976,-0.72286 0.0589,0.47554 0.0577,1.18992 -0.003,1.5875 -0.0604,0.39757 -0.10855,0.008 -0.10706,-0.86464 z m 2.03468,0.38518 c 0,-0.47864 0.0337,-0.82064 0.0749,-0.76001 0.0412,0.0606 0.22124,0.30281 0.40013,0.53816 0.26216,0.34489 0.24763,0.49235 -0.0749,0.76001 -0.34333,0.28494 -0.40013,0.20854 -0.40013,-0.53816 z m -21.16667,-0.2685 c 0,-0.15411 0.11906,-0.20662 0.26458,-0.11668 0.14552,0.0899 0.26459,0.21603 0.26459,0.2802 0,0.0642 -0.11907,0.11668 -0.26459,0.11668 -0.14552,0 -0.26458,-0.12609 -0.26458,-0.2802 z m 6.87917,0 c 0,-0.15411 0.11906,-0.20662 0.26458,-0.11668 0.14552,0.0899 0.26458,0.21603 0.26458,0.2802 0,0.0642 -0.11906,0.11668 -0.26458,0.11668 -0.14552,0 -0.26458,-0.12609 -0.26458,-0.2802 z M 98.089602,205.657 c -2.162951,-0.10949 -2.793175,-0.21876 -2.513542,-0.43579 0.933939,-0.72486 3.864457,-1.43014 5.94237,-1.43014 h 1.70688 v 1.05834 1.05833 l -1.12448,-0.0523 c -0.61846,-0.0288 -2.423517,-0.11806 -4.011228,-0.19844 z m -14.519829,-0.54383 c -0.842369,-0.10781 -1.593183,-0.25762 -1.668481,-0.33292 -0.07529,-0.0753 0.673447,-0.51637 1.663872,-0.98018 5.049208,-2.36448 6.565969,-3.34719 8.780865,-5.68912 0.906836,-0.95884 1.347753,-1.62818 1.24645,-1.89217 -0.08621,-0.22467 -0.156753,-0.51539 -0.156753,-0.64605 0,-0.13066 -0.493162,-0.48916 -1.095915,-0.79666 -1.642255,-0.83782 -3.504393,-2.7141 -4.798412,-4.83487 -2.985436,-4.89284 -5.353947,-9.52889 -5.088027,-9.95916 0.09112,-0.14743 0.798907,-0.26805 1.572863,-0.26805 1.482958,0 2.192766,-0.44197 1.90677,-1.18726 -0.10455,-0.27246 -0.521332,-0.40025 -1.305385,-0.40025 -1.213689,0 -3.396697,-0.62825 -4.288769,-1.23428 -0.291042,-0.19772 -0.886354,-0.82152 -1.322917,-1.38621 -0.436562,-0.5647 -2.025057,-2.35755 -3.529991,-3.98412 -2.548848,-2.75486 -2.7074,-2.98927 -2.315104,-3.42275 0.231626,-0.25594 0.421137,-0.59159 0.421137,-0.74588 0,-0.15429 -1.430634,-1.02231 -3.179189,-1.92893 -2.51085,-1.30188 -3.720618,-2.13797 -5.754687,-3.97716 -4.154157,-3.75616 -5.618208,-6.86407 -5.618208,-11.92641 0,-1.56665 0.09859,-2.90939 0.219091,-2.98387 0.120499,-0.0745 0.924171,0.58409 1.785938,1.46346 2.093174,2.13594 3.810714,3.2699 7.916846,5.2269 7.109672,3.38848 15.261837,8.30575 20.032632,12.08338 1.704713,1.34984 8.939244,8.96791 8.939244,9.41316 0,0.15901 0.399926,0.84084 0.888722,1.51518 0.488797,0.67434 1.461135,2.35717 2.160745,3.73962 1.66137,3.2829 3.15551,5.38461 5.12293,7.2061 2.2472,2.08051 3.70983,2.58343 7.51409,2.5837 2.74034,1.9e-4 3.09338,0.0602 4.6282,0.78626 0.91386,0.43232 2.32429,1.41283 3.13429,2.17889 1.41989,1.34287 2.95367,3.52851 2.67307,3.80912 -0.0748,0.0748 -0.82396,-0.064 -1.66479,-0.30843 -1.05632,-0.30708 -2.10767,-0.4061 -3.40188,-0.3204 -1.6235,0.10751 -2.27538,0.32643 -4.89225,1.64298 -1.66054,0.83541 -3.32741,1.74404 -3.70416,2.01917 -0.37676,0.27512 -1.51845,0.81604 -2.53709,1.20203 -1.65265,0.62623 -2.37917,0.72361 -6.74688,0.90429 -3.023878,0.1251 -5.248746,0.34 -5.82083,0.56226 -1.08358,0.42097 -3.824516,1.95657 -4.732036,2.65112 -0.513866,0.39327 -1.078662,0.47647 -3.042709,0.44822 -1.326443,-0.0191 -3.100924,-0.1229 -3.943292,-0.23071 z m 51.273247,-0.52835 c 0.0899,-0.14552 0.36485,-0.26276 0.61093,-0.26053 0.38557,0.003 0.39255,0.0395 0.0505,0.26053 -0.51816,0.33486 -0.86841,0.33486 -0.66146,0 z m -23.6466,-17.61633 c -3.24007,-0.95772 -6.38361,-3.26597 -6.38361,-4.68736 0,-0.2341 0.74414,-1.28301 1.65365,-2.33093 1.89386,-2.18209 1.87369,-2.16141 7.45424,-7.64455 2.29564,-2.25558 4.47962,-4.57669 4.85327,-5.15804 1.16568,-1.81359 15.35188,-16.33889 15.72951,-16.1055 0.11399,0.0705 0.20725,1.86005 0.20725,3.97689 0,4.4419 -0.35385,6.20262 -1.7725,8.81998 -1.18281,2.1822 -2.13187,3.19259 -4.44521,4.73242 -2.11606,1.40852 -2.50885,2.22502 -1.29278,2.68737 l 0.72828,0.27689 -2.23129,2.25457 c -2.15093,2.17335 -3.63912,3.35853 -5.28768,4.21103 -0.89337,0.46198 -0.96744,0.80256 -0.32818,1.50894 0.35694,0.39441 0.38769,0.59339 0.14635,0.94688 -1.21052,1.77303 -2.20085,3.66527 -2.69426,5.14799 -0.31772,0.95475 -0.75974,1.80578 -0.98226,1.89117 -0.86487,0.33188 -3.23777,0.098 -5.35478,-0.52775 z"
         id="path3792"
         inkscape:connector-curvature="0" />
      <path
         style="fill:#2b89dc;stroke-width:0.26458332"
         d="m 89.353015,191.07215 c -1.045451,-0.91792 -1.40775,-1.49718 -4.261464,-6.8135 -2.682126,-4.99669 -2.648313,-4.80879 -0.865378,-4.80879 1.850445,0 2.463205,-0.40997 2.087962,-1.39694 -0.237659,-0.62509 -0.419325,-0.71974 -1.381419,-0.71974 -1.678442,0 -3.920138,-0.80939 -4.840959,-1.74788 -1.527903,-1.55721 -4.515131,-4.79686 -5.758056,-6.2446 -1.133658,-1.32048 -1.205905,-1.48417 -0.823714,-1.86636 0.230412,-0.23042 0.356476,-0.577 0.280138,-0.77019 -0.07634,-0.19318 -1.193946,-0.88299 -2.483575,-1.53289 -3.19717,-1.61122 -4.372803,-2.42209 -6.842699,-4.71963 -2.775059,-2.58141 -3.656481,-3.89611 -4.646872,-6.93109 -0.757971,-2.32274 -0.806424,-2.6893 -0.638281,-4.82867 0.100076,-1.27332 0.245382,-2.31512 0.322903,-2.31512 0.07752,0 1.069618,0.88725 2.204659,1.97167 1.883627,1.79962 2.522969,2.1993 7.326596,4.58018 2.894586,1.43468 5.610553,2.84469 6.035482,3.13335 0.424928,0.28866 1.367144,0.8172 2.093812,1.17454 2.488922,1.22392 7.846277,4.75549 10.983169,7.24011 2.171475,1.71995 8.99087,8.81508 9.393873,9.77371 0.192812,0.45864 0.695859,1.31015 1.117885,1.89223 0.422027,0.58209 1.533233,2.54192 2.469343,4.35517 1.40942,2.73007 2.08078,3.69489 3.90526,5.61229 1.26294,1.32727 2.64679,2.51116 3.24253,2.77399 0.57161,0.2522 0.94937,0.53985 0.83947,0.63924 -0.10991,0.0994 -1.68811,0.37744 -3.50712,0.61788 -1.81901,0.24044 -4.02167,0.54944 -4.89479,0.68666 -2.559811,0.40231 -8.383087,1.05252 -9.449649,1.05513 -0.722286,0.002 -1.228598,-0.21325 -1.909106,-0.81075 z m 22.489535,-4.78198 c -1.00859,-0.28099 -2.2399,-0.70359 -2.73624,-0.93912 -1.18547,-0.56254 -3.76433,-2.93033 -3.76433,-3.45623 0,-0.55304 1.57122,-2.29844 7.50895,-8.34134 2.74748,-2.79615 5.4418,-5.73874 5.98739,-6.53911 0.94734,-1.38974 7.81024,-8.74804 13.02298,-13.96306 2.42054,-2.42159 2.45473,-2.44403 2.61969,-1.7198 0.34828,1.52919 0.23269,6.4669 -0.18954,8.09635 -0.6578,2.53856 -2.33797,5.54766 -3.86339,6.91915 -0.73195,0.65809 -1.43103,1.19653 -1.55352,1.19653 -0.31978,0 -2.48746,1.49325 -2.91433,2.0076 -0.31334,0.37755 -0.26145,0.51939 0.39725,1.08598 l 0.75765,0.65172 -1.82459,1.84957 c -1.85928,1.88475 -3.32628,3.00903 -5.12094,3.9246 -1.25229,0.63888 -1.52245,1.25751 -0.84499,1.93496 0.5029,0.50291 0.49615,0.53258 -0.52398,2.30197 -0.5684,0.98588 -1.22133,2.43145 -1.45097,3.21237 -0.22963,0.78093 -0.60297,1.62822 -0.82964,1.88289 -0.54014,0.60684 -2.26095,0.5682 -4.67745,-0.10503 z"
         id="path3790"
         inkscape:connector-curvature="0" />
      <path
         style="fill:#2277cc;stroke-width:0.26458332"
         d="m 74.564359,168.59066 c -0.587261,-0.46194 -0.648956,-0.63867 -0.426868,-1.22281 0.174453,-0.45884 0.168762,-0.79229 -0.01736,-1.01653 -0.152323,-0.18354 -1.740445,-1.05273 -3.529158,-1.93153 -2.655014,-1.30442 -3.717745,-2.01231 -5.787461,-3.85505 -4.039431,-3.59644 -5.611797,-6.9424 -5.447832,-11.59288 l 0.08107,-2.2994 2.09114,1.86349 c 1.79605,1.60052 2.841482,2.2337 7.408333,4.48699 5.732503,2.82841 8.750329,4.47268 11.670467,6.35867 2.992416,1.93267 6.007153,4.15685 6.405803,4.726 0.203457,0.29047 0.714727,0.70644 1.136156,0.92437 0.421428,0.21793 1.197255,0.96073 1.724059,1.65066 l 0.957824,1.25442 -0.880224,0.19001 c -1.41727,0.30594 -10.108142,1.00357 -12.502158,1.00357 -1.81137,0 -2.317906,-0.0948 -2.883808,-0.53998 z m 50.026051,-2.30384 c -2.43747,-0.0437 -4.42901,-0.16581 -4.42564,-0.27143 0.0172,-0.53992 13.55051,-15.14101 14.03373,-15.14101 0.32327,0 0.43933,3.21379 0.22366,6.19317 -0.22472,3.10424 -0.83336,4.78966 -2.6206,7.25688 -0.7259,1.00208 -2.30176,2.2523 -2.64708,2.10009 -0.0728,-0.0321 -2.12659,-0.094 -4.56407,-0.1377 z"
         id="path3788"
         inkscape:connector-curvature="0" />
    </g>
  </g>
</svg>
