<svg xmlns="http://www.w3.org/2000/svg" width="330" height="409"><g fill="none" fill-rule="evenodd"><rect width="327" height="189" x="1.5" y="1.5" fill="#FFF" stroke="#E2E2E2" stroke-width="3" rx="2"/><path fill="#F4F1FF" stroke="#DAD3F4" d="M69.5 46.5h54v58h-54z"/><path fill="#F4F1FF" stroke="#DAD3F4" d="M72.5 50.5h49v12h-49zm77 31h54v58h-54z"/><path fill="#DAD2F5" stroke="#DAD3F4" d="M156.5 121.5h9v12h-9zm14-19h9v32h-9zm13 8h9v23h-9z"/><path fill="#F4F1FF" stroke="#DAD3F4" d="M72.5 65.5h20v1h-20zm82 21h20v1h-20zm0 3h20v1h-20zm73-64h54v23h-54z"/><path fill="#F4F1FF" stroke="#DAD3F4" d="M232.5 30.5h20v1h-20zm-1 5h44v1h-44zm29 35h54v32h-54z"/><path fill="#F4F1FF" stroke="#DAD3F4" d="M265.5 91.5h20v1h-20zm0 4h44v1h-44zm-34-56h44v1h-44zm-159 30h30v3h-30zm33 0h16v3h-16zm-33 8h30v3h-30zm33 0h16v3h-16zm-33 5h30v3h-30zm33 0h16v3h-16zm-33 6h30v3h-30zm33 0h16v3h-16zm-33 8h30v3h-30zm33 0h16v3h-16z"/><g transform="translate(29 70)"><path fill="#AB9AF7" d="M27.985 296.317c0 .194-.082 1.758-.245 4.693l5.542 1.169.193-6.442c-3.66.194-5.49.387-5.49.58zm23.32 7.823v8.757l6.118-1.336.376-8.05z"/><ellipse cx="33.201" cy="23.884" fill="#AB9AF7" rx="15.092" ry="19.534" transform="rotate(-21 33.201 23.884)"/><path fill="#AB9AF7" d="M76.02 22.865c-.089-2.639.046-4.527.404-5.663.359-1.137 1.169-2.246 2.43-3.325-.226-3.678-.226-5.662 0-5.952.217-.276 1.657-1.623 4.32-4.04a1 1 0 0 1 .976-.211c.362.115.607.264.735.445.188.267.354.933.498 1.998l3.02 1.552a1 1 0 0 1 .54.818c.118 1.644.177 2.905.177 3.782 0 .864-.057 1.763-.171 2.7a1 1 0 0 1-.312.61c-.762.71-1.353 1.25-1.773 1.623-.467.413-1.935 1.69-4.403 3.833l-.655 3.399-5.786-1.569z"/><path fill="#2E3038" d="M16.969 145.415l55.2-9.607c2.911 14.212 4.083 24.716 3.517 31.51-.232 2.79-3.414 17.417-5.374 33.183-1.002 8.055-2.973 31.214-5.016 51.081-1.167 11.345-3.47 29.507-6.912 54.487a1 1 0 0 1-1.431.76c-.939-.46-1.893-.69-2.863-.69-.86 0-1.68.18-2.462.543a1 1 0 0 1-1.42-.903c-.115-25.595-.112-43.19.008-52.784.11-8.932 1.705-16.6 1.556-22.978-.396-16.891-1.976-36.333-4.74-58.327-3.982 23.334-6.457 40.543-7.425 51.626-.503 5.763-.474 16.11-1.133 29.68-.391 8.065-1.224 22.918-2.496 44.557a1 1 0 0 1-1.563.767c-.88-.602-1.985-.903-3.316-.903-1.975 0-3.233.662-3.774 1.986l-.251-.103a.729.729 0 0 0 .053-.312c-1.087-21.959-1.815-37.29-2.185-45.993-.457-10.785-.272-19.894-.785-27.54-.783-11.652-5.233-36.147-7.188-56.036-.602-6.117-.602-14.118 0-24.004z"/><path fill="#AB9AF7" d="M31.106 41.496l11.13-1.201v4.39l-10.11 1.202z"/><path fill="#FF4D8C" d="M73.018 23.434c1.099-.606 2.917-.91 5.455-.91 2.537 0 4.267.304 5.188.91V46.7c-.678 6.759-1.67 11.412-2.973 13.959-1.122 2.19-3.169 4.179-6.142 5.967a6 6 0 0 1-3.093.859h-2.45l-7.4 22.665c-.064 5.4.28 9.317 1.03 11.752.75 2.435 5.198 14.064 13.344 34.887-13.925 4.536-24.457 7.414-31.593 8.635-7.137 1.22-17.221 1.867-30.254 1.941.988-16.06 1.726-28.179 2.213-36.355.43-7.215-5.107-26.757-5.436-52.154-.03-2.254 2.948-4.696 8.933-7.327l7.56-2.2V46.7c1.38-.938 4.087-1.819 8.118-2.643 4.032-.825 7.408-1.187 10.128-1.087l1.172 3.73 9.549-.671a14 14 0 0 1 8.148 1.939l5.977 3.56c1.463-2.46 2.305-4.396 2.526-5.807.22-1.411.22-8.84 0-22.288z"/><path fill="#4300A2" d="M43.85 23.945c-1.235-1.862-2.356-3-3.363-3.414-1.511-.623-2.949-.486-3.78.471s-1.16 2.505-.72 3.694c.293.793 1.724 2.78 4.291 5.959-2.23 4.15-4.007 6.774-5.327 7.87-2.576 2.14-6.161 2.38-7.685 2.38-2.707 0-5.782-1.738-9.224-5.214l-8.424-9.895a4 4 0 0 1-.954-2.571c-.038-6.889.633-11.397 2.013-13.525C15.734 1.905 23.897.352 24.603.352c.707 0 7.08-.594 12.828 2.8 1.659.98 3.643 3.304 5.951 6.97a5 5 0 0 1 .768 2.8l-.3 11.023z"/><path fill="#FFC85D" d="M14.185 26.926c2.17 0 3.438-1.097 3.438-3.244 0-2.146-1.269-3.379-3.438-3.379-2.169 0-4.4 1.233-4.4 3.38 0 2.146 2.231 3.243 4.4 3.243z"/><path fill="#748CE3" d="M9.331 116.881c9.479 2.145 13.061 3.218 10.749 3.218-.09 0-2.95-2.164-2.056-6.442.264-1.262.264-5.04 0-11.334L10.38 61.396c-3.842 25.44-5.9 40.737-6.177 45.891-.277 5.155 1.433 8.353 5.128 9.594z"/><path fill="#F74581" d="M61.579 90.361l-9.151 34.595 9.151-25.347z"/><path fill="#556DC5" d="M4.457 106.748c0-.396 3.764 3.446 11.291 11.526 4.77-3.953 7.154-6.344 7.154-7.174 0-.83.768-4.573 2.302-11.23-11.753 1.546-18.553 2.646-20.4 3.3-1.096.39-.347 3.946-.347 3.578z"/><path fill="#4300A2" d="M15.124 25.664c1.959 10.693 3.299 18.693 4.02 24 .718 5.273 2.762 22.118 6.131 50.532a2 2 0 0 1-.146 1.02l-4.142 9.713a2 2 0 0 1-2.564 1.08c-6.942-2.696-11.101-4.785-12.475-6.266-1.359-1.465-3.242-4.354-5.65-8.666a2 2 0 0 1 .282-2.338c3.25-3.49 5.039-5.904 5.368-7.24C9.829 71.746 7.486 60.57 7.58 51.606c.11-10.493.479-18.436 1.105-23.828.06-2.045.386-3.495.979-4.349.592-.854 1.644-1.489 3.154-1.905 1.43-.317 2.442.05 3.036 1.1.593 1.05.35 2.063-.73 3.04z"/><path fill="#32D0AE" d="M36.206 325c16.396 0 29.688-5.21 29.688-7.05 0-1.84-13.292-3.332-29.688-3.332s-29.688 1.491-29.688 3.331c0 1.84 13.292 7.051 29.688 7.051z"/><path fill="#748CE3" d="M25.718 302.24c1.519-1.863 3.341-2.463 5.467-1.8 2.125.664 3.15 2.153 3.078 4.467-.675 2.516-1.041 4.33-1.099 5.442-.11 2.164.717 4.218.355 5.543-.642 2.346-1.818 3.888-3.529 4.626-3.994.399-6.628.399-7.902 0s-2.009-1.454-2.204-3.164c.234-2.156.537-3.717.91-4.683.236-.612 1.933-2.11 3.19-4.742.483-1.012 1.06-2.909 1.734-5.69z"/><path fill="#5D76D0" d="M26.7 320.86c2.987-.533 4.625-.957 4.915-1.273.193-.21 1.248-1.18 1.67-2.98.086-.363.1-1.239.041-2.625a1 1 0 0 0-.871-.95l-4.876-.629a1 1 0 0 0-.285.004l-4.026.642a1 1 0 0 0-.774.624l-1.429 3.652a1 1 0 0 0 .047.83c.815 1.552 1.294 2.368 1.436 2.446.152.083 1.464.174 3.936.273a1 1 0 0 0 .216-.015z"/><path fill="#748CE3" d="M51.082 319.11c.37 0 4.2.268 10.853 0a30.005 30.005 0 0 0 2.45-.232 2 2 0 0 0 1.483-2.977c-.64-1.116-1.29-1.947-1.956-2.494-1.103-.907-2.953-1.614-5.55-2.121-1.531.309-2.68.492-3.449.55-.768.059-2.045.059-3.83 0-.553 1.787-.848 3.022-.885 3.707-.125 2.346.564 3.567.884 3.567z"/><path fill="#FFC85D" d="M96.357 14.53l.01-.017a1 1 0 0 0-.34-1.343l-9.934-6.194.29 2.415 8.662 5.468a.935.935 0 0 0 1.312-.329zM81.815 5.478l-3.588-2.315-3.356-.63 1.695 2.333 3.496 1.88z"/></g><g transform="translate(166 36)"><ellipse cx="47.242" cy="364.995" fill="#32D0AE" rx="47.242" ry="7.995"/><path fill="#AB9AF7" d="M86.059 356.34v-6.37c4.51-.282 6.765-.282 6.765 0v7.14l-6.765-.77zm-49.066-6.004v6.139l6.93.426v-8.253z"/><path fill="#F4D394" d="M34.517 350.933c1.39 1.107 3.087 1.66 5.094 1.66 2.006 0 3.742-.553 5.208-1.66 2.584-23.687 4.272-41.437 5.065-53.25.792-11.814 1.14-24.4 1.041-37.76l23.063-58.165c.345 17.112.829 28.45 1.452 34.013 2.069 18.487 4.525 33.085 5.36 44.056 1.212 15.924 2.32 39.626 3.322 71.106 1.05 1.107 2.716 1.66 4.996 1.66 2.28 0 3.817-.553 4.61-1.66 2.834-29.764 4.587-52.236 5.262-67.415.388-8.753.96-27.261 1.712-55.526.235-8.83 3.814-30.57 4.28-49.324.175-7.085-.6-16.657-2.327-28.716H43.698C36.28 196.625 32.21 231.8 31.49 255.475c-.36 11.78.712 25.484 1.21 41.295.335 10.646.94 28.7 1.817 54.163z"/><path fill="#AB9AF7" d="M36.02 179.067c-.726 8.993-.726 14.476 0 16.448.726 1.973 2.351.905 4.875-3.202l2.464-16.198-7.34 2.952zM61.526 53.73l.954 6.53 15.639-1.062.655-9.15-17.248 3.682z"/><path fill="#24E2D3" d="M43.653 179.94c-.945.626-2.427.94-4.445.94-2.018 0-3.5-.314-4.445-.94l4.445-95.636c-.377-6.584.259-10.789 1.91-12.613 1.65-1.825 7.536-4.83 17.658-9.019V58.88c2.857-1.415 6.297-2.38 10.322-2.894 4.026-.515 8.127-.515 12.303 0l1.595 4.632c4.77 2.412 8.436 4.344 10.997 5.796 2.562 1.452 5.689 3.211 9.38 5.278 5.005 2.786 8.31 5.418 9.916 7.894 1.606 2.476 2.861 7.31 3.766 14.502 1.812 22.132 2.718 34.59 2.718 37.373 0 4.175-1.218 6.453-2.718 7.597-1 .763-4.148 1.324-9.445 1.683l-5.078 10.136c-10.833.835-20.1 1.102-27.8.8-7.702-.302-14.193-.568-19.474-.8-2.114 7.4-3.754 12.416-4.918 15.046-1.165 2.63-3.394 7.303-6.687 14.018z"/><path fill="#AB9AF7" d="M45.257 48.972c-.372-5.703-.517-9.499-.436-11.386.144-3.347.774-8.228 1.822-12.16 1.048-3.932 2.117-5.629 3.378-7.342 2.803-3.809 5.46-4.667 5.46-4.667l23 17.877.802 19.111L62.6 54.346l-13.83-1.663a4 4 0 0 1-3.514-3.71z"/><path fill="#4300A2" d="M86.928 48.91l-7.79 4.253c-6.699.873-11.656.618-14.872-.767-3.216-1.385-5.916-4.426-8.1-9.122 1.729-3.86 2.57-6.381 2.524-7.564-.085-2.171-2.776-3.015-3.11-3.362-1.667-1.731-5.395 4.714-5.395 4.714s-1.446-13.199-.723-14.69c.482-.996 1.806-2.708 3.973-5.139-2.536-3.61-3.86-6.76-3.973-9.447a3.68 3.68 0 0 1 6.424-2.603 3.7 3.7 0 0 0 .28.283c.516.428 2.149.428 4.898 0 11.359-1.16 19.031.986 23.018 6.435 5.98 8.174 6.498 11.024 6.553 16.663.06 6.09-7.076 17.102-7.432 19.054-.237 1.302 1.004 1.733 3.725 1.292z"/><path fill="#4300A2" d="M51.99 34.53l-1.48 6.241 4.652 5.46 6.65 8.491c-6.781.74-11.257.74-13.427 0-3.254-1.109-4.173-3.467-4.653-7.388-.32-2.614.943-4.472 3.786-5.575l2.992-10.581 1.48 3.353z"/><path fill="#24C7BA" d="M54.835 148.722l2.95-58.712c1.255 32.746 1.882 49.571 1.882 50.477 0 .905-1.61 3.65-4.832 8.235zm53.338-58.712l-.927 50.479 2.902-3.105-1.975-47.374z"/><path fill="#FFFCF3" d="M69.332 356.181c0 .625 4.909 3.083 14.728 7.375a12 12 0 0 0 4.806 1.004H92.7a2 2 0 0 0 2-1.932l.23-6.827a1 1 0 0 0-1.281-.994c-1.493.44-2.647.66-3.461.66-1.042 0-2.994-.36-5.856-1.08l-5.654-1.154a10 10 0 0 0-6.385.809c-1.974.962-2.961 1.676-2.961 2.14zm-24.378-.597c0 .892-.107 3.89-.322 8.994a1 1 0 0 1-1 .958c-11.878-.008-20.656-.16-26.336-.457-4.205-.22-7.08-.538-8.624-.955a1 1 0 0 1-.57-1.524c.794-1.18 1.474-1.857 2.043-2.032 15.067-4.657 23.48-4.984 23.937-4.984.311 0 2.89.86 5.091.674 2.994-.253 5.781-1.492 5.781-.674z"/></g><circle cx="271.5" cy="82.5" r="6.5" fill="#F4F1FF" stroke="#DAD3F4"/></g></svg>