<?xml version="1.0" encoding="UTF-8"?>
<svg width="60px" height="45px" viewBox="0 0 60 45" version="1.1" xmlns="http://www.w3.org/2000/svg" xmlns:xlink="http://www.w3.org/1999/xlink">
    <!-- Generator: Sketch 53.2 (72643) - https://sketchapp.com -->
    <title>icon-JobAlertEmails</title>
    <desc>Created with Sketch.</desc>
    <g id="Finals" stroke="none" stroke-width="1" fill="none" fill-rule="evenodd" stroke-linecap="round" stroke-linejoin="round">
        <g id="Returning-Visitor---Not-logged-in" transform="translate(-774.000000, -1697.000000)" stroke="#FEC236">
            <g id="How-CB-Can-Help" transform="translate(133.000000, 1353.000000)">
                <g id="icon-JobAlertEmails" transform="translate(642.000000, 345.000000)">
                    <polyline id="Stroke-1" stroke-width="1.5" points="30.0764627 23.9625701 0.648820896 23.9625701 0.648820896 0.649167164 42.4997164 0.649167164 42.4997164 7.77624179"></polyline>
                    <polyline id="Stroke-3" stroke-width="1.5" points="0.649080597 0.649426866 21.5740955 14.9027104 42.4991104 0.649426866"></polyline>
                    <path d="M47.2466269,11.747597 C45.8546269,10.9156866 44.2306269,10.4369701 42.4992836,10.4369701 C37.3788358,10.4369701 33.1889851,14.6268209 33.1889851,19.7481343 L33.1889851,22.9112985 C33.1889851,23.2038955 33.2062985,23.4930299 33.2331343,23.7787015 C33.0054627,34.2741045 27.3881194,37.4874776 27.3881194,37.4874776 L42.4992836,37.4874776" id="Stroke-5" stroke-width="1.5"></path>
                    <path d="M37.7745343,11.747597 C39.1665343,10.9156866 40.7914,10.4369701 42.5218776,10.4369701 C47.6423254,10.4369701 51.8330418,14.6268209 51.8330418,19.7481343 L51.8330418,22.9112985 C51.8330418,23.2038955 51.8148627,23.4930299 51.7880269,23.7787015 C52.0165642,34.2741045 57.6339075,37.4874776 57.6339075,37.4874776 L42.5218776,37.4874776" id="Stroke-7" stroke-width="1.5"></path>
                    <path d="M46.0136507,39.8785254 L46.0136507,39.8785254 C46.0136507,41.8107045 44.4320687,43.3931522 42.4990239,43.3931522 C40.5668448,43.3931522 38.9852627,41.8107045 38.9852627,39.8785254" id="Stroke-9"></path>
                    <path d="M44.2823075,39.8785254 L44.2823075,39.8785254 C44.2823075,40.8593313 43.4798299,41.661809 42.4990239,41.661809 C41.5190836,41.661809 40.716606,40.8593313 40.716606,39.8785254" id="Stroke-11"></path>
                </g>
            </g>
        </g>
    </g>
</svg>