<?xml version="1.0" encoding="UTF-8"?>
<svg width="54px" height="33px" viewBox="0 0 54 33" version="1.1" xmlns="http://www.w3.org/2000/svg" xmlns:xlink="http://www.w3.org/1999/xlink">
    <!-- Generator: Sketch 53.1 (72631) - https://sketchapp.com -->
    <title>Group 17</title>
    <desc>Created with Sketch.</desc>
    <g id="UXR" stroke="none" stroke-width="1" fill="none" fill-rule="evenodd">
        <g id="Click-location" transform="translate(-753.000000, -1466.000000)">
            <g id="How-CB-Can-Help" transform="translate(250.000000, 1331.000000)">
                <g id="Group-17" transform="translate(504.000000, 136.000000)">
                    <polygon id="Stroke-1" stroke="#FEC236" stroke-width="1.5" stroke-linecap="round" stroke-linejoin="round" points="3.733 30.7663 52.077 30.7663 52.077 3.8353 3.733 3.8353"></polygon>
                    <polyline id="Stroke-3" stroke="#FEC236" stroke-width="1.5" stroke-linecap="round" stroke-linejoin="round" points="0 26.931 0 0 48.344 0"></polyline>
                    <path d="M47.6434,12.7019 C45.1954,12.7019 43.2104,10.7179 43.2104,8.2689 C43.2104,8.0349 43.2444,7.8109 43.2784,7.5879 L12.5304,7.5879 C12.5654,7.8109 12.5994,8.0349 12.5994,8.2689 C12.5994,10.7179 10.6144,12.7019 8.1654,12.7019 C7.8764,12.7019 7.5944,12.6699 7.3204,12.6169 L7.3204,21.9849 C7.5944,21.9319 7.8764,21.8999 8.1654,21.8999 C10.6144,21.8999 12.5994,23.8849 12.5994,26.3329 C12.5994,26.5659 12.5654,26.7909 12.5304,27.0149 L43.2784,27.0149 C43.2444,26.7909 43.2104,26.5659 43.2104,26.3329 C43.2104,23.8849 45.1954,21.8999 47.6434,21.8999 C47.9334,21.8999 48.2144,21.9319 48.4884,21.9849 L48.4884,12.6169 C48.2144,12.6699 47.9334,12.7019 47.6434,12.7019 Z" id="Stroke-4" stroke="#FEC236" stroke-linecap="round" stroke-linejoin="round"></path>
                    <path d="M33.931,17.3005 C33.931,20.6295 31.233,23.3265 27.905,23.3265 C24.576,23.3265 21.878,20.6295 21.878,17.3005 C21.878,13.9725 24.576,11.2745 27.905,11.2745 C31.233,11.2745 33.931,13.9725 33.931,17.3005 Z" id="Stroke-5" stroke="#FEC236" stroke-linecap="round" stroke-linejoin="round"></path>
                    <text id="$" font-family="LucidaGrande-Bold, Lucida Grande" font-size="8" font-weight="bold" fill="#FEC236">
                        <tspan x="25.8154" y="20.500725">$</tspan>
                    </text>
                </g>
            </g>
        </g>
    </g>
</svg>